<svg width="25" height="29" viewBox="0 0 25 29" fill="none" xmlns="http://www.w3.org/2000/svg">
<path fill-rule="evenodd" clip-rule="evenodd" d="M12.5 29H12.6749C17.7429 28.9363 22.2211 26.2886 25 22.2349L24.2703 18.977C24.0354 17.2366 22.9708 16.0746 21.2165 15.3955L16.6483 14C14.0844 15.5016 10.9156 15.5016 8.35166 14L3.78349 15.3955C2.02919 16.0746 0.964616 17.2366 0.72971 18.977L0 22.2349C2.77889 26.2886 7.2571 28.9416 12.3251 29H12.5ZM12.5 0C16.0912 0 19 2.90884 19 6.5C19 10.0912 16.0912 13 12.5 13C8.90884 13 6 10.0912 6 6.5C6 2.90884 8.90884 0 12.5 0Z" fill="#20C9A7"/>
</svg>
