<?xml version="1.0" encoding="UTF-8"?>
<svg width="18px" height="26px" viewBox="0 0 18 26" version="1.1" xmlns="http://www.w3.org/2000/svg" xmlns:xlink="http://www.w3.org/1999/xlink">
    <title>ic_credit_your_account</title>
    <g id="version_4" stroke="none" stroke-width="1" fill="none" fill-rule="evenodd">
        <path d="M10.6630085,0 C11.2152933,-1.01453063e-16 11.6630085,0.44771525 11.6630085,1 L11.663,16 L16.326017,16 C16.5403241,16 16.7477663,16.0688027 16.9186136,16.1944965 L17.0164928,16.2766445 C17.415991,16.6579837 17.4307118,17.2909775 17.0493726,17.6904757 L17.0493726,17.6904757 L9.38636406,25.7183894 C9.37566046,25.7296027 9.36469756,25.7405656 9.35348426,25.7512692 C8.95398603,26.1326085 8.3209922,26.1178877 7.93965297,25.7183894 L7.93965297,25.7183894 L0.276644456,17.6904757 C0.0990758404,17.5044515 -3.06421555e-14,17.2571685 -3.06421555e-14,17 C-3.06421555e-14,16.4477153 0.44771525,16 1,16 L1,16 L5.663,16 L5.66300852,1 C5.66300852,0.44771525 6.11072377,1.01453063e-16 6.66300852,0 L10.6630085,0 Z" id="ic_credit_your_account" fill="#F05137"></path>
    </g>
</svg>