<svg width="67" height="66" viewBox="0 0 67 66" fill="none" xmlns="http://www.w3.org/2000/svg">
<circle cx="33" cy="33" r="26" fill="#F0F0F0"/>
<path d="M13.639 26.3188C13.639 26.3188 12.4758 27.5562 12.3772 27.8743C11.6759 28.1534 11.4206 27.9497 11.0466 28.2632C10.8749 28.9262 11.0069 29.9938 11.0712 30.1501C11.138 30.3074 13.418 30.145 13.418 30.145L13.0606 30.804C13.0606 30.804 11.152 30.7071 11.0668 30.8564C10.9622 31.1093 10.917 32.8021 11.0794 33.1117C11.6559 33.2257 14.2789 33.325 14.2789 33.325L14.4102 51.1113L13.7047 52.1121L13.6574 53.1305L14.5579 54.278L52.3946 54.5733L52.8498 53.1257L52.8048 51.2261L52.1157 50.2991L52.1813 33.3743L52.8191 33.2011C52.8191 33.2011 55.1291 33.1622 55.5039 33.0789C55.6351 32.448 55.5825 30.9405 55.4383 30.7654C54.872 30.6489 53.3463 30.8392 53.3463 30.8392L53.3709 30.2239C53.3709 30.2239 55.156 30.3123 55.4629 30.1829C55.6256 29.4601 55.5284 28.3426 55.3891 28.1483C55.1114 27.9857 54.7584 28.0788 54.3858 27.9492C54.0207 27.7753 53.576 27.1967 53.576 27.1967L33.2547 14.1113L13.639 26.3188Z" fill="#D4DEE6"/>
<path fill-rule="evenodd" clip-rule="evenodd" d="M53.5292 30.5256C53.5299 30.6708 53.5434 30.7224 53.5592 30.6402C53.5751 30.5582 53.5744 30.4394 53.5579 30.3762C53.5414 30.3132 53.5284 30.3804 53.5292 30.5256ZM19.7337 32.8818C19.6874 32.9281 19.6545 33.1504 19.6545 33.4175C19.6545 33.8307 19.6357 33.8955 19.4565 34.0996L19.2585 34.3252L19.2632 42.2924C19.2658 46.6743 19.2922 50.319 19.3221 50.3916C19.3993 50.5792 19.4422 50.4307 19.4724 49.8721C19.507 49.2293 19.4902 49.2365 20.9529 49.2365C22.3393 49.2365 22.2132 49.3072 22.2447 48.5122C22.2695 47.8836 22.0683 47.9187 25.6478 47.9175L28.7043 47.9165L28.9808 47.7027C29.1331 47.5851 29.2724 47.4788 29.2905 47.4663C29.3087 47.4539 29.3407 45.7013 29.3618 43.5716C29.4042 39.2753 29.3996 39.3224 29.8722 38.4807C30.6835 37.0355 32.9476 36.2133 34.5082 36.7972C34.6514 36.8507 34.8893 36.9396 35.037 36.9947C35.6239 37.2138 36.3212 37.8725 36.704 38.5698C37.1013 39.2933 37.1006 39.2846 37.1407 43.5145L37.1775 47.3956L37.4712 47.6395L37.7649 47.8836L40.9494 47.9165C44.5999 47.9543 44.2857 47.8854 44.3362 48.66L44.3715 49.2036L45.6145 49.2365C47.0455 49.2745 47.0445 49.274 47.0445 49.8708C47.0445 50.2558 47.0947 50.4422 47.1835 50.3873C47.2178 50.3661 47.2425 46.9739 47.2425 42.315V34.2793L47.0445 34.0896C46.8609 33.9137 46.8465 33.8658 46.8465 33.4304C46.8465 33.1533 46.814 32.9284 46.7673 32.8818C46.652 32.7664 19.8491 32.7664 19.7337 32.8818ZM11.949 33.2477C12.2667 33.2598 12.7864 33.2598 13.104 33.2477C13.4217 33.2357 13.1618 33.2258 12.5265 33.2258C11.8913 33.2258 11.6314 33.2357 11.949 33.2477ZM53.3277 33.2477C53.6435 33.2598 54.1781 33.2598 54.5157 33.2477C54.8533 33.2358 54.5949 33.2259 53.9415 33.2258C53.2881 33.2258 53.0119 33.2355 53.3277 33.2477ZM13.8135 34.4526C13.8792 34.5252 13.9581 34.5846 13.9888 34.5846C14.0195 34.5846 13.9851 34.5252 13.9125 34.4526C13.8399 34.38 13.7611 34.3206 13.7373 34.3206C13.7135 34.3206 13.7479 34.38 13.8135 34.4526ZM26.5468 36.7343C26.6834 36.8708 26.707 45.0617 26.5713 45.1974C26.4357 45.333 21.7271 45.3087 21.6746 45.1721C21.6169 45.0218 21.6271 36.8757 21.685 36.789C21.7773 36.651 21.9408 36.6409 24.1873 36.6358C26.1547 36.6312 26.4563 36.6438 26.5468 36.7343ZM44.6977 36.6951L44.8675 36.7596L44.8505 41.0016L44.8335 45.2436L42.4067 45.2609L39.9799 45.2782L39.9152 45.1081C39.7951 44.7919 39.8309 36.952 39.9533 36.7772C40.0665 36.6155 44.2958 36.5423 44.6977 36.6951Z" fill="#4D4C4C"/>
<path fill-rule="evenodd" clip-rule="evenodd" d="M19.7036 32.8072C19.6111 32.8612 19.5881 32.9661 19.5881 33.3369C19.5881 33.7627 19.573 33.8134 19.3962 33.9772C19.1519 34.2035 19.1728 33.3493 19.1832 42.6546C19.1913 49.8372 19.2019 50.5639 19.2977 50.6007C19.4576 50.662 19.52 50.5017 19.5212 50.0261C19.5228 49.2942 19.5076 49.302 20.941 49.302C22.3354 49.302 22.2473 49.3449 22.2941 48.6436C22.3413 47.9376 22.0999 47.9841 25.7219 47.9829C28.7442 47.982 28.7887 47.98 28.9342 47.8434C29.3268 47.4744 37.171 47.4723 37.5634 47.8409C37.7051 47.974 37.7799 47.9775 40.888 47.996C44.504 48.0176 44.1997 47.9554 44.2533 48.6827C44.3015 49.3358 44.223 49.2998 45.6039 49.301C46.9862 49.3021 46.9776 49.2983 46.979 49.9172C46.9801 50.417 47.0306 50.622 47.1525 50.622C47.3674 50.622 47.3761 50.2657 47.3586 42.2268L47.3411 34.1754L47.1596 34.0307C46.992 33.8971 46.9781 33.8499 46.9781 33.4138C46.9781 32.6544 48.6267 32.7356 33.252 32.7379C24.2505 32.7393 19.781 32.7622 19.7036 32.8072ZM46.7669 32.8812C46.8136 32.9278 46.8461 33.1527 46.8461 33.4298C46.8461 33.8652 46.8605 33.9131 47.0441 34.089L47.2421 34.2787V42.3144C47.2421 46.9733 47.2174 50.3655 47.1831 50.3867C47.0943 50.4416 47.0441 50.2552 47.0441 49.8702C47.0441 49.2734 47.0451 49.2739 45.6141 49.236L44.3711 49.203L44.3358 48.6594C44.2853 47.8848 44.5995 47.9537 40.949 47.916L37.7645 47.883L37.4708 47.6389L37.1771 47.3951L37.1403 43.5139C37.1003 39.284 37.1009 39.2927 36.7036 38.5692C36.3208 37.8719 35.6235 37.2132 35.0366 36.9941C34.8889 36.939 34.651 36.8501 34.5078 36.7966C32.9472 36.2127 30.6831 37.0349 29.8718 38.4801C29.3992 39.3218 29.4038 39.2747 29.3614 43.571C29.3403 45.7007 29.3083 47.4533 29.2901 47.4657C29.272 47.4782 29.1327 47.5845 28.9804 47.7021L28.7039 47.916L25.6474 47.9169C22.0679 47.9181 22.2691 47.883 22.2443 48.5116C22.2128 49.3066 22.3389 49.236 20.9525 49.236C19.4898 49.236 19.5066 49.2287 19.472 49.8715C19.4418 50.4301 19.3989 50.5786 19.3217 50.391C19.2918 50.3184 19.2654 46.6737 19.2628 42.2918L19.2581 34.3246L19.4561 34.099C19.6353 33.8949 19.6541 33.8301 19.6541 33.4169C19.6541 33.1498 19.687 32.9275 19.7333 32.8812C19.8487 32.7658 46.6516 32.7658 46.7669 32.8812ZM21.8321 36.6781C21.7777 36.6988 21.7114 36.7484 21.6846 36.7884C21.6267 36.8751 21.6165 45.0212 21.6742 45.1715C21.7267 45.3081 26.4353 45.3324 26.5709 45.1968C26.7066 45.0611 26.683 36.8702 26.5464 36.7337C26.4419 36.6291 22.0955 36.5778 21.8321 36.6781ZM39.9529 36.7766C39.8305 36.9514 39.7947 44.7913 39.9148 45.1075L39.9795 45.2776L42.4063 45.2603L44.8331 45.243L44.8501 41.001L44.8671 36.759L44.6974 36.6945C44.2954 36.5417 40.0661 36.6149 39.9529 36.7766ZM23.8138 37.3576C24.0093 37.5531 23.9898 44.4006 23.7933 44.5971C23.641 44.7493 22.5133 44.7704 22.3372 44.6244C22.1645 44.481 22.1706 37.396 22.3436 37.2952C22.5733 37.1614 23.664 37.2078 23.8138 37.3576ZM25.9524 37.3277C26.1339 37.5091 26.107 44.4331 25.9241 44.616C25.7108 44.8293 24.7911 44.8088 24.5682 44.5859L24.4061 44.4239V40.9706C24.4061 36.8618 24.3264 37.224 25.2302 37.224C25.7045 37.224 25.8728 37.2482 25.9524 37.3277ZM41.9735 37.3332C42.1375 37.4817 42.1631 44.3643 42.0004 44.5869C41.8843 44.7458 40.7141 44.7803 40.5629 44.6292C40.4146 44.481 40.4039 37.5099 40.5517 37.3465C40.706 37.1759 41.7886 37.1659 41.9735 37.3332ZM44.2398 37.3809C44.4069 37.636 44.3575 44.427 44.1873 44.5971C44.035 44.7493 42.9073 44.7704 42.7312 44.6244C42.6322 44.5422 42.6221 44.2053 42.6221 40.9817V37.4294L42.7688 37.3267C43.0318 37.1424 44.1098 37.1822 44.2398 37.3809ZM36.1937 42.2244C36.3955 42.3593 36.4338 42.5909 36.3863 43.3889C36.3244 44.4285 36.318 44.4396 35.7918 44.4061C35.1655 44.3661 35.1603 44.3571 35.2079 43.3719C35.2569 42.3581 35.2679 42.3332 35.7083 42.2528C35.8991 42.2182 36.07 42.1865 36.0881 42.1829C36.1063 42.1791 36.1538 42.1977 36.1937 42.2244Z" fill="#8F6B53"/>
<path fill-rule="evenodd" clip-rule="evenodd" d="M32.9201 13.5898C32.8293 13.6548 32.6363 13.7825 32.4911 13.8734C32.3459 13.9645 32.0043 14.1843 31.7321 14.3622C31.4598 14.5399 31.2074 14.6971 31.1711 14.7115C31.1348 14.7258 30.9863 14.8179 30.8411 14.9159C30.6959 15.0141 30.3692 15.2279 30.1151 15.3911C29.861 15.5543 29.3858 15.8607 29.0591 16.0721C28.7324 16.2833 28.3611 16.5207 28.2341 16.5997C27.9934 16.7494 27.7229 16.9256 27.4751 17.0944C27.1456 17.319 26.9979 17.4145 26.7001 17.5963C26.5278 17.7014 26.0551 18.0027 25.6494 18.2659C25.2436 18.5291 24.9011 18.7444 24.8884 18.7444C24.8755 18.7444 24.5168 18.9714 24.0911 19.249C22.6563 20.1845 22.0601 20.569 21.1556 21.1419C20.965 21.2626 20.7243 21.4186 20.6205 21.4884C20.5169 21.5583 20.3359 21.6748 20.2182 21.7474C20.1006 21.82 19.9181 21.9362 19.8127 22.0055C19.7074 22.0748 19.5171 22.1962 19.3901 22.2751C19.0837 22.4656 18.2831 22.9804 18.0465 23.139C17.9429 23.2085 17.7619 23.3248 17.6442 23.3974C17.5266 23.47 17.3441 23.5862 17.2387 23.6555C17.1334 23.7248 16.9431 23.846 16.8161 23.9247C16.689 24.0036 16.3521 24.2216 16.0675 24.4092C15.7827 24.597 15.5265 24.7504 15.4981 24.7504C15.4695 24.7504 15.4075 24.7971 15.3601 24.8542C15.3128 24.9113 15.1679 25.0172 15.0385 25.0896C14.909 25.1619 14.6983 25.286 14.5703 25.3654C14.4422 25.4446 14.238 25.5688 14.1165 25.6414C13.9949 25.714 13.8133 25.8402 13.7128 25.9219C13.6123 26.0036 13.5113 26.0704 13.4885 26.0704C13.4219 26.0704 12.7769 26.5253 12.5418 26.7382C12.3164 26.9423 12.2533 27.3244 12.4451 27.3244C12.4939 27.3244 12.5155 27.3541 12.4931 27.3904C12.4707 27.4267 12.5134 27.4564 12.5881 27.4564C12.6629 27.4564 12.7241 27.4307 12.7241 27.399C12.7241 27.3675 12.8322 27.3241 12.9642 27.3028C13.0962 27.2813 13.3115 27.1926 13.4427 27.1054C14.1076 26.6639 14.6721 26.2979 14.734 26.2684C14.7719 26.2503 15.0258 26.0899 15.2981 25.9122C15.5703 25.7343 15.897 25.5236 16.0241 25.4437C16.5037 25.1421 17.0496 24.7869 17.1131 24.7349C17.1494 24.7052 17.3276 24.5882 17.5091 24.4747C17.6906 24.3613 17.9505 24.1988 18.0866 24.1135C18.2227 24.0282 18.4455 23.8889 18.5816 23.804C18.7177 23.719 18.9149 23.5928 19.0198 23.5235C19.1248 23.4542 19.2578 23.3677 19.3153 23.3314C19.3728 23.2951 19.5988 23.1454 19.8174 22.9986C20.0362 22.8519 20.3601 22.644 20.5375 22.5366C20.7149 22.4293 20.9257 22.2969 21.0063 22.2424C21.0866 22.188 21.2386 22.0866 21.3437 22.0173C21.5226 21.8995 21.6437 21.8231 22.2776 21.4283C22.5535 21.2564 23.1666 20.8623 24.0101 20.3147C24.3186 20.1144 24.8039 19.8054 25.0885 19.628C25.3732 19.4506 25.8447 19.1495 26.1368 18.9589C26.4287 18.7683 26.6816 18.6124 26.6988 18.6124C26.7159 18.6124 26.8123 18.5456 26.9128 18.4639C27.0133 18.3822 27.1949 18.256 27.3165 18.1834C27.5957 18.0166 27.9024 17.8232 28.1445 17.6613C28.2483 17.592 28.437 17.4706 28.5641 17.3917C28.8705 17.2012 29.6711 16.6864 29.9077 16.5278C30.0113 16.4583 30.1923 16.342 30.31 16.2694C30.4276 16.1968 30.5952 16.0896 30.6825 16.031C30.7696 15.9724 31.0726 15.7794 31.3556 15.602C31.6385 15.4246 32.1137 15.1192 32.4116 14.9233C33.064 14.4942 33.3643 14.4344 33.7068 14.6653C33.8309 14.7489 33.9794 14.8476 34.0368 14.8844C34.0942 14.9214 34.2747 15.0378 34.4381 15.1434C34.6014 15.249 34.9281 15.4591 35.1641 15.6101C35.4 15.761 35.6789 15.9414 35.7838 16.011C35.8888 16.0805 36.0224 16.1669 36.0808 16.2029C36.1894 16.2697 36.9695 16.7674 37.7381 17.2597C37.974 17.4109 38.2519 17.5914 38.3557 17.661C38.4593 17.7305 38.6403 17.8468 38.758 17.9194C38.8756 17.992 39.0507 18.1034 39.147 18.1669C39.2432 18.2304 39.401 18.3344 39.4972 18.3979C39.7343 18.5543 40.0978 18.7741 40.3825 18.9332C40.5119 19.0056 40.6568 19.1115 40.7041 19.1686C40.7515 19.2257 40.8135 19.2724 40.8421 19.2724C40.8705 19.2724 41.1267 19.4259 41.4115 19.6136C41.6961 19.8012 42.0405 20.024 42.1766 20.1086C42.7721 20.4787 42.9302 20.5787 43.1077 20.6973C43.2113 20.7666 43.3923 20.8828 43.51 20.9554C43.6276 21.028 43.8101 21.1443 43.9155 21.2138C44.2318 21.4225 44.9433 21.8784 45.2951 22.0975C45.4766 22.2107 45.7142 22.3653 45.8231 22.4411C45.932 22.5168 46.2141 22.7006 46.4501 22.8496C47.3673 23.4286 47.6143 23.5872 47.8691 23.7601C48.0143 23.8586 48.1628 23.951 48.1991 23.9653C48.2354 23.9797 48.4878 24.1373 48.7601 24.3156C49.0323 24.494 49.3887 24.7232 49.5521 24.8247C49.7154 24.9263 49.8948 25.0538 49.9507 25.108C50.0067 25.1621 50.1106 25.2301 50.1817 25.2589C50.2528 25.2878 50.5338 25.4569 50.8061 25.6346C51.0783 25.8125 51.405 26.0234 51.5321 26.1034C51.6591 26.1834 51.9858 26.3943 52.2581 26.5722C52.5303 26.7499 52.7828 26.9075 52.8191 26.9221C52.8554 26.9368 52.9742 27.0163 53.0831 27.0987C53.192 27.181 53.3702 27.2581 53.4791 27.27C53.588 27.2817 53.7142 27.336 53.7596 27.3904C53.8324 27.4779 53.8525 27.476 53.9312 27.3749C53.98 27.312 54.0411 27.2813 54.0667 27.3071C54.0924 27.3327 54.1383 27.313 54.169 27.2635C54.2581 27.1193 54.1185 26.8446 53.8548 26.6451C53.3685 26.2773 53.1141 26.0998 52.8046 25.9123C52.501 25.7284 52.3381 25.6231 52.0283 25.4104C51.9058 25.3263 51.4211 25.0256 51.0163 24.7826C50.9551 24.7458 50.6823 24.5702 50.4101 24.3924C50.1378 24.2143 49.7814 23.9868 49.6181 23.8865C49.4548 23.7863 49.2714 23.6598 49.2105 23.6053C49.1498 23.5509 49.031 23.4712 48.9465 23.4279C48.8622 23.3849 48.5852 23.2143 48.3311 23.0491C48.077 22.8839 47.7651 22.6843 47.6381 22.6054C47.3045 22.3985 46.3485 21.7791 45.898 21.4781C45.685 21.3359 45.4622 21.1905 45.403 21.1554C45.3436 21.1201 45.1763 21.0166 45.0311 20.9254C44.8859 20.8341 44.7191 20.7294 44.6603 20.6924C44.6016 20.6556 44.4679 20.5686 44.3633 20.4993C44.2587 20.43 44.0617 20.3038 43.9256 20.2188C43.3809 19.8789 43.1612 19.7402 42.6551 19.4163C42.3647 19.2305 42.038 19.017 41.9291 18.9419C41.8202 18.8667 41.5826 18.7129 41.4011 18.5999C41.2196 18.487 40.9671 18.3299 40.8401 18.2509C40.337 17.9381 40.0649 17.7636 39.695 17.517C38.9903 17.0467 38.7632 16.902 38.5256 16.7715C38.3963 16.7002 38.2514 16.5953 38.2041 16.5382C38.1567 16.4811 38.0889 16.4344 38.0532 16.4344C38.0176 16.4344 37.6871 16.2362 37.3188 15.994C36.9506 15.7518 36.4857 15.4502 36.2861 15.324C36.0864 15.1977 35.8084 15.0182 35.6682 14.9253C35.5281 14.8323 35.3611 14.7255 35.2974 14.6879C35.2337 14.6503 35.0959 14.5623 34.9913 14.4924C34.8084 14.3703 34.583 14.2262 33.7603 13.7055C33.3384 13.4383 33.1651 13.4144 32.9201 13.5898ZM13.4179 30.1449C13.0775 30.1802 12.9881 30.2607 12.9881 30.5315V30.7523L12.1796 30.7731L11.3711 30.7939L12.234 30.8082C13.0589 30.8217 13.1039 30.8297 13.2511 30.9862L13.405 31.1503L33.2494 31.1509L53.094 31.1516L53.2486 30.9869C53.3964 30.8295 53.4403 30.8217 54.2661 30.8082L55.1291 30.7939L54.3206 30.7731L53.5121 30.7523V30.5516C53.5121 30.088 55.481 30.1301 33.4859 30.1235C22.5932 30.1202 13.5626 30.1299 13.4179 30.1449ZM19.6541 32.6874C19.5186 32.7282 18.2943 32.7732 16.6953 32.7961L13.9674 32.8354L13.8474 33.0004L13.7275 33.1654L12.539 33.1324C11.8852 33.1143 11.3642 33.1217 11.3812 33.1489C11.398 33.1761 11.9133 33.1984 12.5261 33.1984C13.1389 33.1984 13.6539 33.2207 13.6705 33.2479C13.6872 33.2751 13.71 33.5053 13.7212 33.7594C13.7431 34.2542 13.8679 34.5494 14.0292 34.4875C14.0829 34.4669 14.1637 34.4808 14.2088 34.5181C14.3111 34.6031 14.418 34.4871 14.4503 34.2561C14.4932 33.9487 14.6515 33.9264 16.7831 33.9264C17.9173 33.9264 18.8053 33.9531 18.8621 33.9891C19.0411 34.1021 19.0086 50.5978 18.8291 50.7308C18.5945 50.9046 14.6638 50.8336 14.5167 50.6528C14.4158 50.529 13.7999 50.4493 13.7718 50.5564C13.695 50.8501 13.6369 52.0744 13.6997 52.0744C13.7294 52.0744 13.7831 52.045 13.819 52.0091C13.8595 51.9686 14.9622 51.9373 16.7197 51.9266L19.5551 51.9094L19.6062 50.8204C19.6777 49.2998 19.5478 49.4344 20.9429 49.4344C22.3563 49.4344 22.4921 49.3917 22.4921 48.9475C22.4921 48.7233 22.5762 48.3348 22.647 48.2317C22.717 48.1301 35.5683 48.0801 40.631 48.1619C44.2685 48.2207 44.0081 48.1703 44.0081 48.8152C44.0081 49.396 44.1025 49.4344 45.5269 49.4344C46.3851 49.4344 46.7153 49.4565 46.7631 49.5169C46.8374 49.6111 46.9235 50.5214 46.9363 51.3484L46.9451 51.9094L49.8161 51.9424C51.3951 51.9606 52.7242 51.9995 52.7696 52.0289C52.8336 52.0703 52.8521 51.9338 52.8521 51.4184C52.8521 51.0466 52.8247 50.7544 52.7899 50.7544C52.7557 50.7544 52.7379 50.7013 52.7505 50.6364C52.7694 50.5381 52.7359 50.5227 52.5493 50.5445C52.3913 50.563 52.314 50.5409 52.2865 50.4693C52.2558 50.3893 52.2084 50.4119 52.0604 50.5777L51.8732 50.7874L49.838 50.808C48.1212 50.8254 47.7825 50.8133 47.6711 50.7308C47.499 50.6034 47.4584 34.24 47.6297 34.0336C47.7104 33.9364 47.9384 33.9246 49.7087 33.9254C51.8489 33.9264 52.007 33.9488 52.0499 34.2561C52.089 34.5357 52.1809 34.5948 52.3771 34.4664C52.4723 34.4042 52.5271 34.3905 52.4992 34.4359C52.4698 34.4836 52.4804 34.5184 52.5244 34.5184C52.5662 34.5184 52.616 34.4593 52.6348 34.3871C52.6536 34.315 52.695 34.2719 52.7269 34.2915C52.7585 34.3112 52.7668 34.2808 52.745 34.224C52.7232 34.1671 52.7412 34.0775 52.7849 34.0247C52.833 33.9668 52.8556 33.7846 52.8419 33.565L52.8191 33.201L53.9741 33.1816L55.1291 33.1621L53.9327 33.1473C52.7731 33.1329 52.7331 33.1278 52.6376 32.9839L52.5391 32.8354L49.8082 32.7975C48.0598 32.773 46.9821 32.7321 46.8131 32.6834C46.4546 32.5803 19.997 32.5843 19.6541 32.6874ZM46.8314 32.8392C46.9598 32.929 46.9781 33.0009 46.9781 33.4142C46.9781 33.8503 46.992 33.8975 47.1596 34.0312L47.3411 34.1759L47.3586 42.2272C47.3761 50.2662 47.3673 50.6224 47.1525 50.6224C47.0306 50.6224 46.9801 50.4175 46.9789 49.9177C46.9776 49.2988 46.9862 49.3026 45.6038 49.3014C44.2229 49.3003 44.3015 49.3362 44.2533 48.6832C44.1997 47.9558 44.5039 48.018 40.8879 47.9964C37.7798 47.978 37.7051 47.9745 37.5634 47.8413C37.171 47.4727 29.3267 47.4749 28.9342 47.8438C28.7887 47.9804 28.7441 47.9824 25.7218 47.9834C22.0999 47.9846 22.3413 47.938 22.2941 48.6441C22.2472 49.3453 22.3353 49.3024 20.9409 49.3024C19.5076 49.3024 19.5228 49.2946 19.5211 50.0266C19.5199 50.5021 19.4576 50.6625 19.2977 50.6011C19.2018 50.5643 19.1913 49.8377 19.1832 42.6551C19.1728 33.3497 19.1518 34.2039 19.3962 33.9777C19.5729 33.8139 19.5881 33.7632 19.5881 33.3373C19.5881 32.9666 19.611 32.8616 19.7036 32.8077C19.9183 32.6826 46.6522 32.7136 46.8314 32.8392ZM22.3436 37.2957C22.1705 37.3965 22.1644 44.4814 22.3372 44.6248C22.5132 44.7708 23.641 44.7497 23.7933 44.5976C23.9898 44.4011 24.0093 37.5536 23.8137 37.3581C23.6639 37.2082 22.5733 37.1619 22.3436 37.2957ZM24.5089 37.3711C24.419 37.4993 24.4061 37.9524 24.4061 40.9711V44.4243L24.5681 44.5864C24.791 44.8093 25.7107 44.8297 25.9241 44.6164C26.1069 44.4336 26.1338 37.5095 25.9523 37.3282C25.7715 37.1472 24.642 37.1808 24.5089 37.3711ZM40.5517 37.347C40.4038 37.5103 40.4146 44.4814 40.5629 44.6296C40.714 44.7807 41.8842 44.7463 42.0004 44.5874C42.1631 44.3648 42.1375 37.4821 41.9735 37.3336C41.7885 37.1663 40.7059 37.1764 40.5517 37.347ZM42.7688 37.3272L42.6221 37.4298V40.9821C42.6221 45.123 42.5312 44.7154 43.4548 44.7154C44.3917 44.7154 44.3018 45.0989 44.3239 41.009C44.3462 36.8664 44.4217 37.2244 43.5263 37.2244C43.0803 37.2244 42.8759 37.2521 42.7688 37.3272ZM23.6423 37.4602C23.7756 37.5933 23.8015 44.0924 23.67 44.3813C23.543 44.6601 22.6384 44.7024 22.4426 44.4384C22.2943 44.2384 22.3258 37.515 22.4756 37.4277C22.6678 37.3158 23.5217 37.3394 23.6423 37.4602ZM25.8449 37.4356C25.9434 37.5341 25.9583 44.3281 25.8604 44.4829C25.7639 44.6357 24.8595 44.6644 24.7145 44.5194C24.5691 44.374 24.5421 37.4584 24.6866 37.4001C24.8607 37.3298 25.767 37.3577 25.8449 37.4356ZM41.8954 37.4872C41.943 37.576 41.9596 38.7144 41.9474 41.0237C41.9263 44.9382 41.9872 44.6164 41.2691 44.6164C40.551 44.6164 40.6119 44.9382 40.5908 41.0237C40.5695 37.0376 40.5106 37.3564 41.2691 37.3564C41.7563 37.3564 41.8342 37.3727 41.8954 37.4872ZM44.0124 37.4247C44.187 37.5181 44.2152 44.3399 44.0418 44.4839C43.8538 44.6398 43.1385 44.6491 42.9521 44.4979L42.7871 44.3641L42.7688 41.0164C42.7473 37.0794 42.698 37.3564 43.42 37.3564C43.6756 37.3564 43.9423 37.3871 44.0124 37.4247ZM35.7083 42.2533C35.2679 42.3336 35.2568 42.3585 35.2078 43.3723C35.1603 44.3575 35.1654 44.3666 35.7918 44.4065C36.3179 44.44 36.3244 44.429 36.3862 43.3893C36.4372 42.5333 36.3379 42.1315 36.0881 42.1833C36.0699 42.1869 35.899 42.2186 35.7083 42.2533ZM36.2328 42.5391C36.2899 42.6641 36.2901 42.8062 36.2338 43.1086C36.1439 43.5921 36.126 43.6152 35.9582 43.4634C35.8677 43.3814 35.769 43.357 35.636 43.3835C35.4363 43.4235 35.3652 43.2675 35.3628 42.7849C35.3609 42.3917 36.0739 42.1902 36.2328 42.5391ZM14.2036 50.2685C14.2106 50.3158 14.2418 50.3777 14.2728 50.4059C14.3038 50.4343 14.3079 50.4203 14.2819 50.3749C14.2556 50.3295 14.2657 50.2924 14.3041 50.2924C14.3426 50.2924 14.3741 50.2677 14.3741 50.2375C14.3741 50.2071 14.3328 50.1823 14.2825 50.1823C14.2322 50.1823 14.1967 50.2211 14.2036 50.2685Z" fill="#92969A"/>
<path fill-rule="evenodd" clip-rule="evenodd" d="M32.7224 13.448C32.1714 13.8054 31.5033 14.2296 31.1837 14.425C31.0092 14.5318 30.7864 14.6801 30.6887 14.7543C30.5912 14.8288 30.3035 15.016 30.0494 15.1705C29.7953 15.3251 29.3646 15.5991 29.0924 15.7795C28.8201 15.9598 28.5124 16.1587 28.4084 16.2214C28.3046 16.2839 28.0076 16.4713 27.7484 16.6377C27.4894 16.804 27.0992 17.0535 26.8814 17.1921C26.6636 17.3308 26.3111 17.5585 26.0983 17.6983C25.8854 17.8379 25.6991 17.9522 25.6843 17.9522C25.6694 17.9522 25.4426 18.0964 25.1804 18.2726C24.918 18.4489 24.5549 18.6855 24.3734 18.7982C24.1919 18.9109 23.9543 19.0651 23.8454 19.1409C23.7365 19.2166 23.4543 19.4004 23.2184 19.5494C22.6669 19.8976 22.201 20.1957 21.5024 20.6473C21.1938 20.8468 20.8374 21.0748 20.7104 21.154C20.366 21.3689 19.8251 21.7135 19.1594 22.1422C18.8327 22.3526 18.4169 22.6194 18.2354 22.7351C18.0539 22.8506 17.8197 23.0024 17.7151 23.0722C17.6105 23.1421 17.4727 23.2301 17.409 23.2677C17.3453 23.3053 17.1784 23.4121 17.0383 23.5051C16.898 23.598 16.62 23.7775 16.4204 23.9038C16.2207 24.03 15.7559 24.3316 15.3876 24.5738C15.0193 24.816 14.6973 25.0142 14.672 25.0142C14.6468 25.0142 14.5473 25.0756 14.4508 25.1507C14.3542 25.2257 14.0229 25.4477 13.7144 25.6437C12.4566 26.4431 12.2407 26.6338 12.2266 26.9591C12.2233 27.0364 12.2023 27.1292 12.1802 27.1648C12.1581 27.2006 12.1919 27.23 12.2554 27.23C12.3381 27.23 12.3628 27.1894 12.3432 27.0864C12.3241 26.9863 12.3825 26.8825 12.5366 26.7429C12.776 26.5263 13.4213 26.0702 13.4888 26.0702C13.5116 26.0702 13.6126 26.0034 13.713 25.9217C13.8135 25.84 13.9952 25.7138 14.1168 25.6412C14.2382 25.5686 14.4425 25.4444 14.5705 25.3652C14.6986 25.2858 14.9093 25.1617 15.0388 25.0894C15.1682 25.017 15.313 24.9111 15.3604 24.854C15.4078 24.7969 15.4698 24.7502 15.4983 24.7502C15.5267 24.7502 15.783 24.5968 16.0678 24.409C16.3524 24.2214 16.6893 24.0034 16.8164 23.9245C16.9434 23.8458 17.1337 23.7246 17.2389 23.6553C17.3444 23.586 17.5268 23.4698 17.6445 23.3972C17.7621 23.3246 17.9431 23.2083 18.0468 23.1388C18.2834 22.9803 19.084 22.4655 19.3904 22.2749C19.5174 22.196 19.7077 22.0746 19.8129 22.0053C19.9184 21.936 20.1008 21.8198 20.2185 21.7472C20.3361 21.6746 20.5171 21.5581 20.6208 21.4882C20.7245 21.4184 20.9579 21.2674 21.1394 21.1527C21.9193 20.6597 22.656 20.1847 24.0914 19.2488C24.5171 18.9712 24.8758 18.7442 24.8887 18.7442C24.9014 18.7442 25.2439 18.5289 25.6496 18.2657C26.0554 18.0025 26.5281 17.7012 26.7004 17.5961C26.9982 17.4143 27.1459 17.3188 27.4754 17.0942C27.7232 16.9254 27.9936 16.7492 28.2344 16.5995C28.3614 16.5205 28.7327 16.2831 29.0594 16.0719C29.3861 15.8605 29.8613 15.5541 30.1154 15.3909C30.3695 15.2277 30.6962 15.0139 30.8414 14.9157C30.9866 14.8177 31.1351 14.7256 31.1714 14.7113C31.2077 14.6969 31.4601 14.5397 31.7324 14.362C32.0046 14.1841 32.3462 13.9642 32.4914 13.8731C32.6366 13.782 32.8359 13.6528 32.9342 13.5858C33.1893 13.4124 33.3299 13.4327 33.7605 13.7053C34.5832 14.226 34.8086 14.3701 34.9916 14.4922C35.0962 14.5621 35.234 14.6501 35.2977 14.6877C35.3614 14.7253 35.5283 14.8321 35.6684 14.9251C35.8087 15.018 36.0867 15.1975 36.2864 15.3238C36.486 15.45 36.9508 15.7516 37.3191 15.9938C37.6874 16.236 38.0179 16.4342 38.0535 16.4342C38.0891 16.4342 38.157 16.4809 38.2043 16.538C38.2517 16.5951 38.3965 16.7 38.5259 16.7713C38.7635 16.9018 38.9905 17.0465 39.6953 17.5168C39.9076 17.6583 40.1853 17.8389 40.3124 17.9177C40.4394 17.9968 40.6622 18.1363 40.8074 18.2279C40.9526 18.3195 41.2199 18.4868 41.4014 18.5997C41.5829 18.7127 41.8205 18.8665 41.9294 18.9417C42.1943 19.1245 43.3139 19.841 43.9424 20.23C44.0694 20.3087 44.259 20.4298 44.3636 20.4991C44.4682 20.5684 44.6019 20.6554 44.6606 20.6922C44.7193 20.7292 44.8862 20.8339 45.0314 20.9252C45.1766 21.0164 45.3439 21.1199 45.4033 21.1552C45.4625 21.1903 45.6853 21.3357 45.8983 21.4779C46.3487 21.7789 47.3047 22.3983 47.6384 22.6052C47.7654 22.6841 48.0773 22.8837 48.3314 23.0489C48.5855 23.2141 48.8625 23.3847 48.9468 23.4277C49.0313 23.471 49.1501 23.5507 49.2108 23.6051C49.2717 23.6596 49.455 23.7861 49.6184 23.8863C49.7817 23.9866 50.1381 24.2141 50.4104 24.3922C50.6826 24.57 50.9554 24.7456 51.0166 24.7824C51.4213 25.0254 51.9061 25.3261 52.0285 25.4102C52.3384 25.6229 52.5012 25.7282 52.8048 25.9121C53.1144 26.0996 53.3688 26.2771 53.8551 26.6449C54.0686 26.8064 54.273 27.1356 54.203 27.2054C54.1897 27.2189 54.2588 27.233 54.357 27.2368C54.4552 27.2404 54.4834 27.2298 54.4199 27.213C54.3563 27.1962 54.3044 27.1239 54.3044 27.0521C54.3044 26.7144 53.9247 26.322 53.1367 25.8451C52.9621 25.7395 52.5818 25.4991 52.2914 25.3109C51.535 24.8207 51.1015 24.5449 50.5754 24.2191C50.3213 24.0618 50.0335 23.8719 49.936 23.7972C49.8383 23.7224 49.6156 23.5754 49.441 23.4705C49.062 23.2428 48.7307 23.0354 48.4711 22.8633C48.3665 22.794 48.2329 22.7072 48.1741 22.6704C48.1154 22.6336 47.9783 22.5463 47.8694 22.4763C47.7605 22.4062 47.4189 22.1868 47.1104 21.9884C46.8018 21.7903 46.3118 21.4743 46.0214 21.2864C45.731 21.0984 45.33 20.8405 45.1304 20.7133C44.2816 20.1726 43.9622 19.9698 43.7444 19.8337C43.6173 19.7542 43.2824 19.5359 42.9999 19.3486C42.7176 19.1615 42.4707 19.0082 42.4516 19.0082C42.4324 19.0082 42.2328 18.8808 42.0081 18.7249C41.7833 18.5691 41.4543 18.3538 41.2769 18.2464C41.0996 18.1392 40.8887 18.0067 40.8082 17.9522C40.4312 17.697 40.3117 17.6192 39.8324 17.3178C39.0395 16.8193 38.3495 16.3798 37.7714 16.0049C37.481 15.8168 37.0652 15.5495 36.8474 15.4112C35.8341 14.7679 34.7599 14.0732 34.1084 13.6399C33.465 13.2121 33.1527 13.1689 32.7224 13.448ZM32.992 14.5676C32.9405 14.5879 32.6671 14.7563 32.3843 14.9418C32.1016 15.1274 31.6388 15.4244 31.3558 15.6018C31.0729 15.7792 30.7699 15.9722 30.6828 16.0308C30.5955 16.0894 30.4279 16.1966 30.3102 16.2692C30.1926 16.3418 30.0116 16.4581 29.908 16.5276C29.6713 16.6862 28.8708 17.201 28.5644 17.3915C28.4373 17.4704 28.2485 17.5918 28.1448 17.6611C27.9027 17.823 27.596 18.0164 27.3168 18.1832C27.1952 18.2558 27.0135 18.382 26.913 18.4637C26.8126 18.5454 26.7162 18.6122 26.699 18.6122C26.6819 18.6122 26.4289 18.7681 26.137 18.9587C25.845 19.1493 25.3734 19.4504 25.0888 19.6278C24.8042 19.8052 24.3189 20.1142 24.0104 20.3145C23.1322 20.8846 22.5457 21.2613 22.2944 21.4165C21.7235 21.7693 21.3735 21.9937 21.0065 22.2422C20.926 22.2967 20.7151 22.4292 20.5378 22.5364C20.3604 22.6438 20.0365 22.8517 19.8177 22.9984C19.5991 23.1453 19.373 23.2949 19.3156 23.3312C19.258 23.3675 19.125 23.454 19.0201 23.5233C18.9152 23.5926 18.718 23.7188 18.5819 23.8038C18.4457 23.8887 18.223 24.028 18.0869 24.1133C17.9507 24.1986 17.6909 24.3611 17.5094 24.4745C17.3279 24.588 17.1497 24.705 17.1134 24.7347C17.0498 24.7867 16.504 25.1419 16.0244 25.4435C15.8973 25.5234 15.5706 25.7341 15.2984 25.912C15.0261 26.0897 14.7722 26.2501 14.7342 26.2682C14.6723 26.2977 14.1079 26.6637 13.4429 27.1053C13.3118 27.1924 13.0964 27.2811 12.9644 27.3026C12.8324 27.3239 12.7244 27.3673 12.7244 27.3988C12.7244 27.4305 12.6631 27.4562 12.5884 27.4562C12.5137 27.4562 12.4709 27.4265 12.4934 27.3902C12.5158 27.3539 12.5059 27.3242 12.4712 27.3242C12.3788 27.3242 12.3277 27.4988 12.4171 27.5088C13.0659 27.5823 13.1783 27.5433 14.1764 26.899C14.4849 26.6998 14.8433 26.4786 14.9728 26.4075C15.1022 26.3362 15.247 26.2311 15.2944 26.174C15.3418 26.1169 15.4082 26.0702 15.4422 26.0702C15.4762 26.0702 15.6879 25.9428 15.9127 25.7869C16.1374 25.6311 16.4664 25.4158 16.6438 25.3084C16.8211 25.2012 17.032 25.0687 17.1125 25.0142C17.3696 24.8401 17.6349 24.667 17.8724 24.5187C17.9994 24.4392 18.2667 24.2702 18.4664 24.1432C18.666 24.0161 19.0224 23.7904 19.2584 23.6414C19.4943 23.4924 19.7765 23.3086 19.8854 23.2329C19.9943 23.1571 20.2319 23.0022 20.4134 22.8888C20.8957 22.5874 21.3641 22.2871 21.6906 22.0701C21.8485 21.9652 22.0564 21.8338 22.1526 21.7782C22.2487 21.7226 22.5501 21.5327 22.8224 21.356C23.0946 21.1793 23.4213 20.9694 23.5484 20.8895C24.0462 20.5765 24.5342 20.264 25.1984 19.8329C25.5795 19.5855 26.025 19.2999 26.1884 19.1983C26.3517 19.0965 26.5745 18.9513 26.6834 18.8754C26.9051 18.7209 27.6953 18.2187 28.4993 17.7212C28.7927 17.5397 29.1338 17.317 29.2572 17.2262C29.3806 17.1355 29.6065 16.987 29.759 16.8962C29.9114 16.8055 30.4025 16.4936 30.8503 16.2032C31.2979 15.9128 31.8771 15.5416 32.1371 15.3782C32.3971 15.2149 32.7316 15 32.8806 14.9009C33.2177 14.6765 33.2781 14.676 33.6097 14.8946C33.7569 14.9916 33.9813 15.1357 34.1084 15.2147C34.4153 15.4054 35.032 15.7975 35.5604 16.138C35.7963 16.2902 36.1527 16.5185 36.3524 16.6456C36.552 16.7726 37.1219 17.1409 37.6191 17.4638C38.116 17.7869 38.7643 18.1997 39.0597 18.3812C39.3552 18.5627 39.6761 18.7736 39.7731 18.85C39.87 18.9262 40.0236 19.0275 40.1144 19.0752C40.2051 19.1229 40.5318 19.3248 40.8404 19.5242C41.1489 19.7236 41.5647 19.9905 41.7644 20.1175C41.964 20.2444 42.242 20.4244 42.3823 20.5173C42.5224 20.6104 42.6894 20.7171 42.753 20.7547C42.8167 20.7924 42.9545 20.88 43.0591 20.9493C43.2489 21.075 43.4167 21.1809 44.0414 21.5697C44.2229 21.6827 44.4605 21.8378 44.5694 21.9144C44.7424 22.0363 45.2957 22.3915 46.0544 22.8681C46.1814 22.9477 46.3702 23.0698 46.474 23.1391C46.5776 23.2084 46.7586 23.3246 46.8762 23.3972C46.9939 23.4698 47.1764 23.586 47.2818 23.6553C47.3871 23.7246 47.5773 23.846 47.7044 23.9249C47.8314 24.0039 48.1581 24.212 48.4304 24.3872C48.7026 24.5624 49.0367 24.7753 49.1729 24.8601C49.309 24.9449 49.5425 25.0947 49.6918 25.1932C49.8409 25.2917 50.0154 25.4031 50.079 25.4407C50.1427 25.4784 50.2805 25.5666 50.3851 25.6369C50.6194 25.7943 51.9967 26.6862 52.3574 26.914C52.5026 27.0058 52.6973 27.1323 52.7902 27.195C53.2137 27.4818 53.5562 27.5884 53.8676 27.5301C54.0329 27.4993 54.1839 27.4899 54.2032 27.5092C54.2225 27.5285 54.2384 27.5265 54.2384 27.5049C54.2384 27.3533 54.0219 27.258 53.9341 27.3711C53.8532 27.4752 53.8326 27.4775 53.7599 27.3902C53.7145 27.3358 53.5883 27.2815 53.4794 27.2698C53.3705 27.2579 53.1923 27.1808 53.0834 27.0985C52.9745 27.0162 52.8557 26.9366 52.8194 26.9219C52.7831 26.9073 52.5306 26.7497 52.2584 26.572C51.9861 26.3941 51.6594 26.1832 51.5324 26.1032C51.4053 26.0232 51.0786 25.8123 50.8064 25.6344C50.5341 25.4567 50.2531 25.2876 50.182 25.2587C50.1109 25.2299 50.0069 25.1619 49.951 25.1078C49.8951 25.0536 49.7157 24.9261 49.5524 24.8245C49.389 24.723 49.0326 24.4938 48.7604 24.3154C48.4881 24.1371 48.2357 23.9795 48.1994 23.9651C48.1631 23.9508 48.0146 23.8584 47.8694 23.7599C47.6146 23.587 47.3676 23.4284 46.4504 22.8494C46.2144 22.7004 45.9323 22.5166 45.8234 22.4409C45.7145 22.3651 45.4769 22.2105 45.2954 22.0973C44.9436 21.8782 44.2321 21.4223 43.9158 21.2136C43.8104 21.1441 43.6279 21.0278 43.5102 20.9552C43.3926 20.8826 43.2116 20.7664 43.108 20.6971C42.9304 20.5785 42.7723 20.4785 42.1769 20.1084C42.0407 20.0238 41.6964 19.801 41.4118 19.6134C41.127 19.4257 40.8707 19.2722 40.8423 19.2722C40.8138 19.2722 40.7518 19.2255 40.7044 19.1684C40.657 19.1113 40.5122 19.0054 40.3828 18.933C40.098 18.7739 39.7345 18.5541 39.4974 18.3977C39.4012 18.3342 39.2435 18.2302 39.1473 18.1667C39.0509 18.1032 38.8759 17.9918 38.7582 17.9192C38.6406 17.8466 38.4596 17.7303 38.356 17.6608C38.2522 17.5912 37.9743 17.4107 37.7384 17.2595C36.9698 16.7672 36.1897 16.2695 36.0811 16.2027C36.0227 16.1667 35.889 16.0803 35.7841 16.0108C35.6792 15.9412 35.4003 15.7608 35.1644 15.6099C34.9284 15.4589 34.6017 15.2488 34.4384 15.1432C34.275 15.0376 34.0945 14.9212 34.0371 14.8842C33.9797 14.8474 33.8312 14.7505 33.7071 14.6689C33.4929 14.5283 33.1972 14.4864 32.992 14.5676ZM41.5419 16.0697C41.5631 16.125 41.6218 16.1702 41.6725 16.1702C41.8013 16.1702 41.7868 16.1209 41.6338 16.039C41.5274 15.9819 41.5104 15.9877 41.5419 16.0697ZM32.9195 16.8548C32.793 16.9411 32.3478 17.2331 31.9304 17.5041C31.0643 18.0661 31.0354 18.085 29.9911 18.7822C29.8865 18.8521 29.7517 18.9389 29.6916 18.9752C29.6316 19.0115 29.4202 19.1527 29.2219 19.2892C28.7556 19.61 28.7015 19.6459 27.6074 20.3609C27.0992 20.693 26.5977 21.022 26.4931 21.092C26.3885 21.162 26.2542 21.2489 26.1948 21.2852C26.0034 21.402 23.2558 23.2248 22.7234 23.5883C22.6508 23.6378 22.1607 23.9582 21.6344 24.3003C21.108 24.6421 20.5921 24.9799 20.4876 25.0507C20.3833 25.1213 20.1858 25.2535 20.0487 25.3442C19.9116 25.435 19.6256 25.6257 19.4135 25.7681C19.2011 25.9105 18.7007 26.2397 18.3014 26.4994C17.9021 26.7591 17.5011 27.0201 17.4104 27.0795C17.3196 27.1387 17.0716 27.3072 16.8593 27.4537C16.6467 27.6003 16.4509 27.7202 16.424 27.7202C16.3969 27.7202 16.3235 27.777 16.2608 27.8461C16.1981 27.9154 16.0654 28.0058 15.9661 28.0469C15.7798 28.1241 15.5332 28.4611 15.6081 28.536C15.6813 28.6092 50.86 28.5856 50.9054 28.5124C50.986 28.3815 50.7394 28.1636 49.8358 27.5676C49.3303 27.2341 48.5472 26.7155 48.0959 26.4154C47.0972 25.7509 47.1175 25.7643 46.2194 25.181C45.5978 24.7773 42.3204 22.6169 41.8304 22.2881C41.2708 21.9124 40.8489 21.634 40.1474 21.1775C39.7118 20.894 39.2663 20.6018 39.1574 20.528C38.9483 20.3865 36.9739 19.0879 36.7965 18.9752C36.7393 18.9389 36.4007 18.7129 36.044 18.4729C33.2875 16.6188 33.2756 16.6126 32.9195 16.8548ZM33.8947 18.3647C33.9311 18.4101 33.9815 18.5421 34.0062 18.6582C34.0443 18.8366 34.128 18.9112 34.5476 19.1415C35.9217 19.8957 36.4372 21.2692 35.382 21.3649C34.7679 21.4205 34.6659 21.373 34.3628 20.8895C33.7252 19.8726 32.2622 20.0462 32.0815 21.1603C31.9893 21.7279 32.5765 22.1953 33.4776 22.2716C33.814 22.3001 34.1282 22.3737 34.354 22.4772C34.5478 22.5658 34.7299 22.6382 34.7586 22.6382C34.8931 22.6382 35.5831 23.4132 35.7593 23.762C36.3086 24.8504 35.7529 26.1753 34.488 26.7921C34.1557 26.9543 34.0867 27.0364 33.9176 27.4727C33.8485 27.6507 33.8364 27.6542 33.2929 27.6542C32.6837 27.6542 32.6474 27.6347 32.5103 27.2325C32.4257 26.9843 32.3311 26.9076 31.8408 26.6896C31.4756 26.5273 30.9522 25.9696 30.733 25.5092C30.4026 24.8152 30.497 24.6072 31.1616 24.5647C31.7913 24.5247 31.8922 24.5667 32.133 24.9693C32.6686 25.8648 33.8765 25.9184 34.313 25.0663C34.6697 24.3697 34.2036 23.7607 33.2426 23.6683C30.3797 23.3931 29.5395 20.3759 31.9813 19.1387C32.481 18.8856 32.5219 18.8455 32.5234 18.6089C32.5239 18.5163 32.56 18.405 32.6036 18.3614C32.7136 18.2514 33.8056 18.2542 33.8947 18.3647ZM16.6111 21.3347C16.5335 21.4824 16.5339 21.4825 16.6748 21.3575C16.832 21.2177 16.8464 21.1862 16.7527 21.1862C16.7177 21.1862 16.654 21.253 16.6111 21.3347ZM55.5171 26.1692C55.5173 26.5685 55.528 26.7233 55.5412 26.5132C55.5544 26.3032 55.5542 25.9765 55.5409 25.7872C55.5277 25.598 55.5169 25.7699 55.5171 26.1692ZM55.5128 29.2052C55.5131 29.423 55.5255 29.5042 55.5402 29.3856C55.5549 29.2669 55.5546 29.0887 55.5395 28.9896C55.5245 28.8904 55.5125 28.9874 55.5128 29.2052ZM13.4393 29.9763C13.3061 30.0117 13.1428 30.1046 13.0763 30.1828C12.9583 30.3214 12.9585 30.3226 13.0809 30.2271C13.2543 30.0921 53.3188 30.0767 53.3639 30.2117C53.379 30.2571 53.4375 30.2942 53.4937 30.2942C53.6661 30.2942 53.3091 30.0533 53.0164 29.972C52.6704 29.8759 13.8003 29.8802 13.4393 29.9763ZM13.1116 30.9945C13.1397 31.0994 13.2347 31.2218 13.323 31.2667C13.5299 31.3718 52.9855 31.3895 53.1817 31.2845C53.3087 31.2166 53.5401 30.8222 53.4528 30.8222C53.4256 30.8222 53.3338 30.8963 53.2489 30.9867L53.0942 31.1514L33.2583 31.1507L13.4223 31.1501L13.2416 30.9768L13.0608 30.8037L13.1116 30.9945ZM55.5135 31.8782C55.5135 32.1142 55.5255 32.2107 55.54 32.0927C55.5547 31.9747 55.5547 31.7817 55.54 31.6637C55.5255 31.5457 55.5135 31.6423 55.5135 31.8782ZM16.7834 32.5984C13.8954 32.6408 13.844 32.6479 13.7188 33.0258L13.6507 33.2312L13.8135 33.0332L13.9765 32.8352L16.6999 32.7969C18.434 32.7725 19.5192 32.7311 19.6874 32.6829C20.0665 32.5743 46.4357 32.5747 46.8134 32.6832C46.9823 32.7319 48.0601 32.7728 49.8084 32.7973L52.5394 32.8352L52.6379 32.9837C52.7319 33.1253 52.9043 33.2038 52.8194 33.0662C52.793 33.0233 53.1797 32.9951 53.9209 32.9854L55.0634 32.9707L53.9447 32.9507C53.1317 32.9364 52.7981 32.9068 52.7237 32.843C52.4187 32.5808 52.7982 32.5867 35.7914 32.573C26.789 32.5658 18.2354 32.5772 16.7834 32.5984ZM11.9489 32.9834C12.2665 32.9954 12.7862 32.9954 13.1039 32.9834C13.4215 32.9713 13.1616 32.9614 12.5264 32.9614C11.8911 32.9614 11.6312 32.9713 11.9489 32.9834ZM14.6384 34.0093C14.5441 34.0569 14.4636 34.1626 14.4506 34.2559C14.438 34.3458 14.3947 34.4638 14.3544 34.5182C14.3141 34.5727 14.3932 34.5133 14.5301 34.3862L14.7791 34.1552L16.7711 34.178C18.1839 34.194 18.7774 34.2229 18.8119 34.277C18.8764 34.3783 18.8747 50.3686 18.8102 50.4701C18.7544 50.5579 14.8316 50.6085 14.6243 50.524C14.5623 50.4988 14.4958 50.4288 14.4767 50.3686C14.4255 50.2079 14.1104 50.2051 14.1104 50.3651C14.1104 50.4339 14.0807 50.4902 14.0444 50.4902C14.0081 50.4902 13.9784 50.4615 13.9784 50.4264C13.9784 50.391 13.934 50.3793 13.8797 50.4001C13.6878 50.4739 13.8662 50.5709 14.1288 50.5358C14.3473 50.5064 14.4148 50.5255 14.5103 50.6437C14.6633 50.8324 18.5852 50.9115 18.8294 50.7306C19.0089 50.5976 19.0414 34.1019 18.8624 33.9889C18.7045 33.8889 14.8398 33.9077 14.6384 34.0093ZM47.6299 34.0334C47.4587 34.2399 47.4993 50.6032 47.6714 50.7306C47.7827 50.8131 48.1215 50.8252 49.8383 50.8078L51.8734 50.7872L52.0607 50.5775C52.1879 50.4351 52.2585 50.3955 52.2811 50.4542C52.2993 50.5018 52.4171 50.5526 52.5428 50.5673C52.7143 50.5872 52.7629 50.5719 52.7374 50.5052C52.7187 50.4566 52.6585 50.4338 52.6035 50.4549C52.5174 50.4879 52.5161 50.4772 52.5945 50.3762C52.6707 50.2779 52.6616 50.2792 52.5377 50.3849C52.396 50.5059 52.3493 50.4711 52.3843 50.2708C52.3894 50.2407 52.329 50.2368 52.2501 50.2618C52.1339 50.2986 52.1145 50.2863 52.1486 50.1973C52.1734 50.1327 52.164 50.1039 52.1255 50.1277C52.0897 50.1498 52.0604 50.2246 52.0604 50.2939C52.0604 50.5557 51.8617 50.5788 49.7518 50.5628C48.6452 50.5544 47.7243 50.5321 47.7055 50.5133C47.6393 50.4473 47.6347 34.4502 47.7007 34.3268C47.7593 34.2176 47.9251 34.2032 49.6321 34.1598C51.6144 34.1095 51.7733 34.1262 52.0274 34.41C52.1 34.4911 52.1399 34.5263 52.1161 34.4883C52.0924 34.4504 52.0627 34.3458 52.0501 34.2559C52.0072 33.9486 51.8492 33.9262 49.7089 33.9252C47.9387 33.9244 47.7106 33.9363 47.6299 34.0334ZM22.4759 37.4275C22.326 37.5148 22.2945 44.2382 22.4429 44.4382C22.6387 44.7022 23.5432 44.6599 23.6703 44.3811C23.8018 44.0922 23.7759 37.5932 23.6426 37.46C23.522 37.3392 22.6681 37.3156 22.4759 37.4275ZM24.6869 37.3999C24.5423 37.4582 24.5694 44.3738 24.7147 44.5192C24.8598 44.6642 25.7641 44.6355 25.8607 44.4827C25.9585 44.328 25.9437 37.5339 25.8452 37.4354C25.7673 37.3575 24.8609 37.3296 24.6869 37.3999ZM40.643 37.4871C40.5955 37.5758 40.5788 38.7142 40.591 41.0235C40.6122 44.938 40.5513 44.6162 41.2694 44.6162C41.9874 44.6162 41.9266 44.938 41.9477 41.0235C41.969 37.0374 42.0279 37.3562 41.2694 37.3562C40.7821 37.3562 40.7042 37.3725 40.643 37.4871ZM42.853 37.5123C42.7634 37.6491 42.753 38.083 42.769 41.0162L42.7874 44.3639L42.9524 44.4977C43.1388 44.6489 43.8541 44.6396 44.042 44.4837C44.2154 44.3397 44.1872 37.5179 44.0126 37.4245C43.7437 37.2806 42.9664 37.3394 42.853 37.5123ZM23.484 37.6575C23.5733 37.8925 23.5703 44.056 23.4807 44.2233C23.4056 44.3636 22.8197 44.376 22.6841 44.2403C22.5782 44.1344 22.6027 37.6088 22.7092 37.5412C22.9187 37.408 23.4177 37.4829 23.484 37.6575ZM25.731 37.6248C25.7656 37.6791 25.7843 39.1049 25.7752 40.9862L25.7594 44.2532H25.2644H24.7694L24.7522 40.9245C24.7388 38.3069 24.7529 37.5836 24.8182 37.539C24.9497 37.4496 25.662 37.5164 25.731 37.6248ZM41.7485 40.9037L41.7655 44.2862H41.27H40.7744V40.925C40.7744 37.1142 40.7085 37.4923 41.3684 37.511L41.7314 37.5212L41.7485 40.9037ZM43.8104 37.5527C43.9636 37.6496 43.9963 44.0908 43.8442 44.243C43.7552 44.3319 43.4269 44.3537 43.0679 44.2945C43.0066 44.2842 43.0012 37.5933 43.0624 37.5323C43.1287 37.4658 43.6973 37.4814 43.8104 37.5527ZM35.4944 42.5042C35.2401 42.7585 35.3503 43.4406 35.6363 43.3833C35.7692 43.3568 35.8679 43.3812 35.9585 43.4632C36.1263 43.615 36.1441 43.5919 36.2341 43.1084C36.3601 42.4308 35.924 42.0746 35.4944 42.5042ZM36.0506 42.608C36.1712 42.7284 36.1819 42.8575 36.086 43.0365C36.0097 43.1792 35.7608 43.2063 35.6396 43.085C35.4663 42.9118 35.6193 42.5042 35.8574 42.5042C35.9067 42.5042 35.9936 42.5509 36.0506 42.608ZM29.0264 48.1134C28.9653 48.1533 27.7514 48.1789 25.8584 48.1802C24.1704 48.1814 22.754 48.2046 22.711 48.232C22.5887 48.3097 22.4924 48.6226 22.4924 48.9418C22.4924 49.3923 22.3607 49.4342 20.9432 49.4342C19.5481 49.4342 19.678 49.2996 19.6065 50.8202L19.5554 51.9092L16.7233 51.9264C13.7856 51.9444 13.7144 51.9513 13.7144 52.2224C13.7144 52.323 13.7347 52.3376 13.7998 52.2834C13.847 52.2443 13.9435 52.2133 14.0143 52.2146C14.0853 52.2158 15.4502 52.1986 17.0474 52.1765C23.9543 52.0805 51.6825 52.1361 52.4471 52.2475C52.7466 52.291 52.9217 52.1831 52.7804 52.0417C52.7387 52.0001 51.6353 51.9628 49.8296 51.9422L46.9454 51.9092L46.9366 51.3482C46.9237 50.5212 46.8376 49.6109 46.7634 49.5167C46.7155 49.4563 46.3853 49.4342 45.5272 49.4342C44.1027 49.4342 44.0084 49.3958 44.0084 48.815C44.0084 48.1703 44.2643 48.2203 40.6643 48.1632C34.7497 48.0697 29.13 48.0456 29.0264 48.1134ZM44.1176 49.4672C44.295 49.5413 44.6223 49.5662 45.4208 49.5662C46.7452 49.5662 46.7804 49.5822 46.7804 50.1838C46.7804 50.4163 46.7459 50.6303 46.7012 50.675C46.5433 50.8329 19.8735 50.7849 19.7887 50.6265C19.6892 50.4407 19.705 49.8764 19.8139 49.7272C19.8991 49.6109 20.0174 49.5962 21.1174 49.5662C21.8979 49.5449 22.3742 49.5047 22.4594 49.4527C22.6781 49.3192 43.7973 49.3334 44.1176 49.4672ZM11.1432 53.2551C10.941 53.5066 10.9575 55.0759 11.1636 55.194C11.4235 55.3429 55.2612 55.3412 55.4112 55.1922C55.5552 55.0492 55.6252 53.8562 55.4896 53.8562C55.4349 53.8562 55.4306 53.8305 55.4762 53.7737C55.5123 53.7283 55.5201 53.6318 55.4933 53.5592C55.4666 53.4866 55.4603 53.3851 55.4797 53.3338C55.5004 53.2789 55.4859 53.2584 55.4445 53.284C55.4059 53.3079 55.358 53.2855 55.3384 53.2342C55.3095 53.1589 55.0668 53.1395 54.0763 53.1332L52.8501 53.1254L52.5578 53.3266L52.2656 53.5275H33.2504H14.2351L13.9506 53.3318L13.6662 53.1362L12.4681 53.1167C11.2733 53.0972 11.2697 53.0977 11.1432 53.2551Z" fill="#ACB9BC"/>
<path d="M11.006 25.08C11.006 25.08 10.6952 26.1284 10.9972 27.4152C11.2071 27.6394 11.6552 27.6336 11.9168 27.4727C12.1653 27.3197 12.2616 26.668 12.2616 26.668L32.7215 13.4478C33.2568 12.8857 33.6851 13.3771 33.6851 13.3771L54.1747 26.6393L54.3184 27.1997L54.5626 27.5014C54.5626 27.5014 55.2474 27.6867 55.4535 27.4727C55.6743 26.0828 55.5484 25.0574 55.4391 24.8217L33.6564 10.8051C33.1475 10.5678 32.8302 10.8231 32.8302 10.8231C32.8302 10.8231 11.5349 24.2949 11.0547 24.951C11.0275 24.9881 11.006 25.08 11.006 25.08Z" fill="#D4DEE6"/>
</svg>