<svg width="32" height="33" viewBox="0 0 32 33" fill="none" xmlns="http://www.w3.org/2000/svg">
<path fill-rule="evenodd" clip-rule="evenodd" d="M17.3751 32.9997H17.3736C17.0472 32.9997 16.7124 32.9241 16.3844 32.9321L16.2549 27.5691C16.4739 27.5637 16.6964 27.5842 16.9144 27.5842H16.9153C18.0355 27.5842 19.1148 27.1103 20.1367 26.6787L22.2453 31.7335C20.6984 32.3866 19.0641 32.9997 17.3751 32.9997Z" fill="black" fill-opacity="0.36"/>
<path fill-rule="evenodd" clip-rule="evenodd" d="M15.7108 32.8125C13.6824 32.7768 11.7062 32.3619 9.83691 31.5796L11.9281 26.584C13.1618 27.1004 14.4665 27.3742 15.8061 27.3977L15.7108 32.8125Z" fill="black" fill-opacity="0.44"/>
<path fill-rule="evenodd" clip-rule="evenodd" d="M22.8521 31.2814L20.5371 26.3856C21.7445 25.8148 22.8224 25.0275 23.7408 24.0459L27.6952 27.7459C26.3085 29.2281 24.6791 30.4175 22.8521 31.2814Z" fill="black" fill-opacity="0.28"/>
<path fill-rule="evenodd" clip-rule="evenodd" d="M9.22378 31.3081C7.39314 30.4497 5.75939 29.2682 4.36816 27.7959L8.30406 24.0762C9.22687 25.0525 10.3097 25.836 11.5227 26.4047L9.22378 31.3081Z" fill="black" fill-opacity="0.52"/>
<path fill-rule="evenodd" clip-rule="evenodd" d="M28.1428 27.2479L24.0381 23.7155C24.9148 22.6966 25.5819 21.5395 26.0208 20.2764L31.1364 22.0534C30.473 23.9629 29.4659 25.7106 28.1428 27.2479Z" fill="black" fill-opacity="0.2"/>
<path fill-rule="evenodd" clip-rule="evenodd" d="M3.91841 27.3C2.58659 25.7676 1.57181 24.0226 0.902344 22.1132L6.01285 20.3213C6.45465 21.5816 7.1253 22.7343 8.00581 23.7475L3.91841 27.3Z" fill="black" fill-opacity="0.6"/>
<path fill-rule="evenodd" clip-rule="evenodd" d="M31.3335 21.4155L26.1426 19.856C26.5264 18.5799 26.6582 17.2524 26.5439 15.9099L26.541 15.876L31.9336 15.377L31.9399 15.4505C32.1123 17.4763 31.9148 19.4827 31.3335 21.4155Z" fill="black" fill-opacity="0.12"/>
<path fill-rule="evenodd" clip-rule="evenodd" d="M0.693831 21.4752C0.368008 20.4033 0.15412 19.2893 0.0583455 18.1639C-0.0166342 17.2835 -0.0193672 16.394 0.0502653 15.5195L5.44881 15.9496C5.4027 16.5287 5.40448 17.1192 5.45439 17.7046C5.51796 18.4522 5.65948 19.1907 5.87516 19.9L0.693831 21.4752Z" fill="black" fill-opacity="0.68"/>
<path fill-rule="evenodd" clip-rule="evenodd" d="M26.5115 15.4216C26.3373 14.0898 25.9198 12.8234 25.2705 11.6574L30.0018 9.02246C30.9856 10.7891 31.618 12.7057 31.8813 14.7194L26.5115 15.4216Z" fill="black" fill-opacity="0.04"/>
<path fill-rule="evenodd" clip-rule="evenodd" d="M5.49268 15.5092L0.117188 14.853C0.362446 12.843 0.980464 10.9207 1.95401 9.13965L6.70602 11.737C6.06292 12.9137 5.65464 14.1829 5.49268 15.5092Z" fill="black" fill-opacity="0.76"/>
<path fill-rule="evenodd" clip-rule="evenodd" d="M6.92744 11.351L2.28809 8.55785C3.33222 6.8231 4.67603 5.31994 6.28174 4.08984L9.5749 8.38912C8.51081 9.20439 7.62008 10.2009 6.92744 11.351Z" fill="black" fill-opacity="0.84"/>
<path fill-rule="evenodd" clip-rule="evenodd" d="M9.93229 8.12652L6.82129 3.69368C8.4813 2.5287 10.3229 1.70048 12.2946 1.23242L13.5453 6.50168C12.2441 6.81051 11.0284 7.35711 9.93229 8.12652Z" fill="black" fill-opacity="0.92"/>
<path fill-rule="evenodd" clip-rule="evenodd" d="M17.951 6.3896C17.0206 6.21659 16.0646 6.17025 15.1101 6.25153C14.7228 6.27327 14.3498 6.33637 13.9787 6.40826L12.9619 1.07365C14.5471 0.554614 17.3902 0.554614 18.9345 0.973835L17.951 6.3896Z" fill="white"/>
</svg>
