<svg width="32" height="33" viewBox="0 0 32 33" fill="none" xmlns="http://www.w3.org/2000/svg">
<circle cx="16" cy="16.5" r="16" fill="#191C1F"/>
<path d="M20.1222 10.9873V9.85449C20.1222 9.1084 19.5043 8.4873 18.652 8.4873H14.3438C13.4957 8.4873 12.8778 9.1084 12.8778 9.85449V10.9873H9V12.2373H9.39205C9.39205 12.2373 9.62216 12.2607 9.74148 12.3701C9.8608 12.4795 9.90767 12.7217 9.90767 12.7217L10.7173 22.1631C10.7813 23.3115 10.7813 23.4873 12.2514 23.4873H20.7486C22.2188 23.4873 22.2188 23.3154 22.2827 22.167L23.0923 12.7295C23.0923 12.7295 23.1392 12.4834 23.2585 12.374C23.3778 12.2646 23.608 12.2412 23.608 12.2412H24V10.9912H20.1222V10.9873ZM13.7727 9.85449C13.7727 9.47949 14.1051 9.26855 14.527 9.26855H18.4347C18.8565 9.26855 19.2273 9.4834 19.2273 9.85449V10.9873H13.7727V9.85449ZM13.4105 20.9873L12.9716 13.4873H13.8366L14.2841 20.9873H13.4105ZM16.973 20.9873H16.0355V13.4873H16.973V20.9873ZM19.598 20.9873H18.7287L19.1761 13.4873H20.0412L19.598 20.9873Z" fill="white"/>
</svg>
