<svg width="30" height="31" viewBox="0 0 30 31" fill="none" xmlns="http://www.w3.org/2000/svg">
<path d="M22.2443 5.5V3.23438C22.2443 1.74219 21.0085 0.5 19.304 0.5H10.6875C8.99148 0.5 7.75568 1.74219 7.75568 3.23438V5.5H0V8H0.784091C0.784091 8 1.24432 8.04687 1.48295 8.26562C1.72159 8.48437 1.81534 8.96875 1.81534 8.96875L3.43466 27.8516C3.5625 30.1484 3.5625 30.5 6.50284 30.5H23.4972C26.4375 30.5 26.4375 30.1562 26.5653 27.8594L28.1847 8.98438C28.1847 8.98438 28.2784 8.49219 28.517 8.27344C28.7557 8.05469 29.2159 8.00781 29.2159 8.00781H30V5.50781H22.2443V5.5ZM9.54545 3.23438C9.54545 2.48438 10.2102 2.0625 11.054 2.0625H18.8693C19.7131 2.0625 20.4545 2.49219 20.4545 3.23438V5.5H9.54545V3.23438ZM8.82102 25.5L7.94318 10.5H9.6733L10.5682 25.5H8.82102ZM15.946 25.5H14.071V10.5H15.946V25.5ZM21.196 25.5H19.4574L20.3523 10.5H22.0824L21.196 25.5Z" fill="white"/>
</svg>
