<svg width="31" height="30" viewBox="0 0 31 30" fill="none" xmlns="http://www.w3.org/2000/svg">
<g clip-path="url(#clip0_5666_28625)">
<path fill-rule="evenodd" clip-rule="evenodd" d="M25 22.6C25 23.7 24.1 24.5 23.1 24.5H7.9C6.8 24.5 6 23.7 6 22.6V7.4C6 6.4 6.9 5.5 7.9 5.5H15.7L18.1 3H7.9C5.5 3 3.5 5 3.5 7.4V22.7C3.5 25 5.5 27 7.9 27H23.1C25.5 27 27.5 25 27.5 22.6V12.4L25 14.9V22.6Z" fill="white"/>
<path fill-rule="evenodd" clip-rule="evenodd" d="M26.2 7.2L23.4 4.4L25 2.8L27.8 5.6L26.2 7.2ZM15.1 18.3L12.1 18.5L12.3 15.5L13.1 14.7L15.9 17.5L15.1 18.3ZM21.5 6.2L24.4 9L17.8 15.6L15 12.8L21.5 6.2ZM29.9 4.2L26.3 0.7C26 0.2 25.5 0 24.9 0C24.3 0 23.8 0.2 23.5 0.6L10.3 13.7C9.9 14.1 9.7 14.5 9.7 15L9.5 18.8C9.5 19.4 9.7 20 10.1 20.4C10.5 20.8 11 21 11.5 21H11.6L15.4 20.8C15.9 20.8 16.4 20.6 16.7 20.2L29.9 7C30.3 6.7 30.5 6.1 30.5 5.6C30.5 5.1 30.3 4.5 29.9 4.2Z" fill="white"/>
</g>
<defs>
<clipPath id="clip0_5666_28625">
<rect width="30" height="30" fill="white" transform="translate(0.5)"/>
</clipPath>
</defs>
</svg>
