<svg width="16" height="23" viewBox="0 0 16 23" fill="none" xmlns="http://www.w3.org/2000/svg">
<path d="M14.1891 10.5266C13.8415 10.019 13.0261 9.08034 12.0169 7.98173C13.5541 6.37554 14.8775 4.98491 14.9042 4.96405C15.2651 4.58857 15.2584 3.98365 14.8975 3.60817C14.5366 3.2327 13.9551 3.23965 13.5942 3.61513C13.5675 3.64294 12.2575 5.01967 10.7336 6.605C10.2658 6.11132 9.78457 5.60374 9.31004 5.11006C10.4663 3.92107 11.529 2.83637 12.2174 2.148C12.585 1.77948 12.5917 1.17456 12.2375 0.792131C11.8832 0.409705 11.3018 0.402752 10.9342 0.771271C10.8072 0.896429 9.55065 2.16191 8.00673 3.76114C6.45614 2.16191 5.2063 0.903382 5.07931 0.771271C4.71172 0.402752 4.13024 0.409705 3.77601 0.792131C3.42178 1.17456 3.42847 1.77948 3.79606 2.148C4.48447 2.84332 5.54717 3.92107 6.70343 5.11006C6.22889 5.60374 5.74767 6.11132 5.27982 6.605C3.74928 5.01967 2.43929 3.64294 2.41256 3.61513C2.05164 3.23965 1.47017 3.2327 1.10925 3.60817C0.74834 3.98365 0.741657 4.58857 1.10257 4.96405C1.12931 4.99186 2.45266 6.3825 3.98989 7.98173C2.97398 9.08729 2.15858 10.026 1.81103 10.5266C0.480996 12.4596 0.494363 14.4134 0.501047 14.7124C0.507731 19.0025 3.8629 22.493 7.98668 22.5H8.01342C12.1372 22.493 15.4924 19.0025 15.4991 14.7124C15.5057 14.4134 15.5124 12.4596 14.1891 10.5266ZM8.00005 6.46594C8.48127 6.97352 8.96249 7.47415 9.43034 7.96783C8.93575 8.48236 8.44785 8.98995 8.00005 9.44886C7.55893 8.98995 7.07103 8.48236 6.56976 7.96783C7.03093 7.47415 7.51215 6.96657 8.00005 6.46594ZM8.19387 12.3414C9.51723 13.6764 9.59075 14.6916 9.59075 14.6916C9.59075 15.6024 8.8756 16.3464 8.00005 16.3534C7.1245 16.3464 6.40935 15.6024 6.40935 14.7124C6.40935 14.6985 6.47619 13.6834 7.80623 12.3414C7.86638 12.2788 7.93321 12.2162 8.00005 12.1467C8.06688 12.2162 8.13372 12.2788 8.19387 12.3414ZM13.6544 14.6359V14.6916C13.6544 17.9387 11.1213 20.574 8.00005 20.5809C4.87881 20.574 2.34572 17.9387 2.34572 14.6916V14.6429C2.34572 14.629 2.29894 13.1271 3.31484 11.6461C3.60892 11.215 4.3508 10.3736 5.29319 9.34456C5.78109 9.85214 6.25563 10.3458 6.69675 10.7978C6.63659 10.8604 6.58313 10.916 6.52966 10.9647C4.61815 12.8907 4.57136 14.5177 4.57136 14.6916C4.57136 16.6524 6.10191 18.2516 7.98668 18.2725H8.02678C9.91156 18.2586 11.4421 16.6593 11.4421 14.6985C11.4421 14.5177 11.3953 12.8976 9.48381 10.9716C9.43034 10.9229 9.37687 10.8604 9.31672 10.8047C9.75115 10.3528 10.2324 9.85909 10.7203 9.35151C11.6627 10.3806 12.3979 11.2219 12.6986 11.653C13.7078 13.1271 13.6544 14.629 13.6544 14.6359Z" fill="#B9E5FB"/>
<path opacity="0.8" d="M7.79242 17.7876H7.80542H7.78592H7.79242ZM7.79242 21.8996C7.79892 21.8996 7.79892 21.8996 7.79242 21.8996H7.78592H7.79242ZM7.77941 17.7876C7.78591 17.7876 7.78591 17.7876 7.77941 17.7876H7.76641H7.77941ZM7.78592 11.8292C8.12397 11.491 8.56604 11.0311 9.06011 10.5171C8.72856 10.179 8.28649 9.72585 7.78592 9.20508C7.28534 9.71908 6.84327 10.179 6.51172 10.5171C7.0123 11.0311 7.45436 11.4843 7.78592 11.8292ZM8.68955 16.8543C8.68955 16.3403 8.28649 15.921 7.79242 15.921H7.78592H7.77941C7.28534 15.921 6.88228 16.3403 6.88228 16.8543C6.88228 17.3683 7.27884 17.7808 7.76641 17.7876H7.80542C8.29949 17.7741 8.68955 17.3615 8.68955 16.8543Z" fill="#00ACE4"/>
<path opacity="0.9" d="M9.22219 10.6789C9.17018 10.6316 9.11818 10.5707 9.05967 10.5166C8.55909 11.0306 8.12352 11.4837 7.78547 11.8287C7.85048 11.8963 7.91549 11.9639 7.974 12.018C9.2612 13.3166 9.33271 14.304 9.33271 14.304C9.33271 15.19 8.6371 15.9137 7.78547 15.9204H7.77897C7.2849 15.9204 6.88184 16.3397 6.88184 16.8537C6.88184 17.3677 7.2784 17.7803 7.76597 17.7871H7.80498C9.63825 17.7735 11.127 16.218 11.127 14.3108C11.127 14.1349 11.0815 12.5591 9.22219 10.6789Z" fill="#00ACE4"/>
<path opacity="0.8" d="M6.3998 7.76342C5.95774 8.23008 5.53517 8.68322 5.15161 9.10253C5.62618 9.59625 6.08776 10.0764 6.51682 10.516C6.84837 10.1779 7.29044 9.72475 7.79102 9.20398C7.35545 8.75761 6.88088 8.2639 6.3998 7.76342ZM1.08199 3.52288C0.730939 3.88809 0.724438 4.47649 1.07549 4.84171C1.1015 4.86876 2.38869 6.2214 3.88392 7.78371C4.27398 7.35762 4.69654 6.90449 5.13211 6.44459C3.64988 4.89581 2.37569 3.5567 2.34969 3.52964C2.00513 3.16443 1.43305 3.16443 1.08199 3.52288Z" fill="#00ACE4"/>
<path opacity="0.8" d="M6.40065 7.76316L5.13296 6.44434C4.69739 6.90423 4.27482 7.35737 3.88477 7.78345L5.15246 9.10228C5.53602 8.68296 5.95858 8.22983 6.40065 7.76316ZM7.77886 21.8983C7.78536 21.8983 7.78536 21.8983 7.77886 21.8983C7.78536 21.8983 7.77886 21.8983 7.77886 21.8983Z" fill="#00ACE4"/>
<g opacity="0.95">
<path opacity="0.95" d="M4.93831 0.763859C4.58076 0.405409 4.01517 0.412172 3.67062 0.784149C3.32607 1.15613 3.33257 1.74453 3.69012 2.10298C4.35973 2.7793 5.39338 3.8276 6.51806 4.98411C6.95362 4.53097 7.38269 4.09136 7.78575 3.66528C6.28402 2.1165 5.06183 0.885597 4.93831 0.763859ZM10.4447 6.44496C9.98959 5.96477 9.52152 5.47106 9.05995 4.99087C8.64388 5.41695 8.21482 5.86333 7.79225 6.3097C8.26032 6.80341 8.72839 7.29036 9.18346 7.77055C9.59953 7.32418 10.0286 6.87104 10.4447 6.44496Z" fill="#00ACE4"/>
</g>
<path opacity="0.8" d="M10.4259 9.10228L11.6936 7.78345C11.3036 7.35737 10.881 6.90424 10.4454 6.44434L9.17773 7.76316C9.6198 8.22983 10.0424 8.68296 10.4259 9.10228Z" fill="#00ACE4"/>
<path opacity="0.8" d="M14.489 3.52348C14.138 3.15827 13.5724 3.16503 13.2213 3.53025C13.1953 3.5573 11.9211 4.89642 10.4389 6.43843L9.1712 7.75726C8.69013 8.25774 8.21555 8.75145 7.77999 9.19783C7.27941 9.71183 6.83734 10.1717 6.50579 10.5099C6.44728 10.5708 6.39528 10.6249 6.34327 10.6722C4.48398 12.5456 4.43848 14.1282 4.43848 14.2973C4.43848 16.2045 5.9272 17.7601 7.76048 17.7804C7.27291 17.7736 6.87635 17.361 6.87635 16.847C6.87635 16.333 7.27941 15.9137 7.77349 15.9137H7.77999C6.92836 15.9069 6.23275 15.1833 6.23275 14.3176C6.23275 14.3041 6.29776 13.3166 7.59146 12.0113C7.64997 11.9505 7.71498 11.8896 7.77999 11.822C8.11804 11.4838 8.56011 11.0239 9.05418 10.5099C9.47675 10.0703 9.94482 9.59009 10.4194 9.09638L11.6871 7.77755C13.1823 6.21525 14.4695 4.8626 14.4955 4.84231C14.8466 4.4771 14.8466 3.8887 14.489 3.52348ZM7.78649 6.30317L9.05418 4.98434C8.61861 4.5312 8.18955 4.09159 7.78649 3.66551C7.37692 4.08483 6.94786 4.5312 6.51879 4.98434C6.93486 5.41719 7.36392 5.85679 7.78649 6.30317Z" fill="#00ACE4"/>
<path opacity="0.8" d="M11.9076 0.784149C11.563 0.412172 10.9974 0.405409 10.6399 0.763859C10.5164 0.885597 9.29417 2.1165 7.79244 3.67204C7.38288 4.09136 6.95381 4.53773 6.52475 4.99087C6.06318 5.47106 5.59511 5.96477 5.14004 6.44496C4.70447 6.90486 4.2819 7.358 3.89185 7.78408C2.9102 8.85267 2.11707 9.7657 1.77902 10.2594C0.491826 12.1396 0.498327 14.0401 0.504828 14.3241C0.511329 18.497 3.77483 21.8922 7.78594 21.8989H7.81194C8.30602 21.8989 8.70258 21.4796 8.70258 20.9656C8.70258 20.4516 8.29952 20.0323 7.80544 20.0323H7.79894C4.76298 20.0255 2.2991 17.4622 2.2991 14.3038V14.2565C2.2991 14.243 2.25359 12.7821 3.24175 11.3415C3.52779 10.9222 4.2494 10.1039 5.16604 9.10291C5.5496 8.68359 5.97216 8.23045 6.41423 7.76379C6.8628 7.2836 7.33087 6.79665 7.80544 6.30293L9.07314 4.98411C10.1978 3.8276 11.2315 2.77254 11.9011 2.10298C12.2391 1.74453 12.2521 1.15613 11.9076 0.784149Z" fill="#00ACE4"/>
<path opacity="0.95" d="M13.8057 10.2527C13.4677 9.75897 12.6746 8.84593 11.6929 7.77734L10.4252 9.09617C11.3419 10.0971 12.0635 10.9155 12.3495 11.3348C13.3377 12.7754 13.2922 14.2362 13.2922 14.243V14.2971C13.2922 17.4555 10.8283 20.0188 7.79231 20.0255H7.78581C7.29173 20.0255 6.88867 20.4448 6.88867 20.9589C6.88867 21.4729 7.28523 21.8854 7.77931 21.8922H7.80531C11.8164 21.8854 15.0799 18.4903 15.0864 14.3174C15.0929 14.0333 15.0994 12.1329 13.8057 10.2527Z" fill="#00ACE4"/>
</svg>
