<svg width="77" height="89" viewBox="0 0 77 89" fill="none" xmlns="http://www.w3.org/2000/svg">
<path fill-rule="evenodd" clip-rule="evenodd" d="M45.8948 80.3623C45.8714 84.9055 42.1133 88.6518 37.547 88.684C32.7791 88.7178 29.1054 85.0925 29.0532 80.3027C29.0018 75.5806 32.6177 71.9512 37.4795 71.844C42.049 71.7433 45.9179 75.6596 45.8948 80.3623ZM37.6961 75.0013L37.4773 75.0012C34.4387 75.0682 32.1787 77.3366 32.2109 80.2879C32.2435 83.2815 34.5396 85.5473 37.5195 85.5262C40.3734 85.506 42.7222 83.1646 42.7369 80.3251C42.7514 77.3859 40.3333 74.9382 37.4773 75.0012L37.6961 75.0013ZM37.4766 60.2641C39.7614 60.2138 41.6958 62.1719 41.6842 64.5233C41.6725 66.7949 39.7935 68.668 37.5104 68.6841C35.1264 68.701 33.2896 66.8883 33.2635 64.4935C33.2377 62.1324 35.0457 60.3177 37.4766 60.2641ZM37.4057 48.6851C39.6856 48.6371 41.6356 50.5372 41.6834 52.8541C41.73 55.1194 39.7912 57.0924 37.5053 57.1053C35.1262 57.1188 33.3035 55.3384 33.2638 52.9614C33.2252 50.6481 35.0788 48.734 37.4057 48.6851ZM46.5387 5.06329C48.6236 6.71632 50.3171 8.71408 51.682 11.0049C51.9405 11.4384 52.1508 11.6016 52.6994 11.5246C58.9992 10.6421 64.511 13.7251 67.1889 19.6335C67.5738 20.4827 67.8179 21.4123 68.0189 22.3296C68.2146 23.2235 68.2711 24.149 68.4 25.1465C70.5682 25.6043 72.4053 26.6049 73.9302 28.2545C77.9534 32.6062 76.9693 39.9562 71.9427 43.0291C70.3455 44.0059 68.6389 44.4666 66.7969 44.467C49.248 44.4685 31.6991 44.4856 14.1501 44.4584C7.65304 44.4483 2.22263 39.8539 0.899975 33.3758C-0.300602 27.4959 2.61527 21.2206 7.87637 18.5204C9.01265 17.9374 10.2589 17.5657 11.4753 17.1617C11.9425 17.0068 12.1873 16.7992 12.3376 16.3062C14.7717 8.31231 19.9526 3.06363 27.874 1.00281C34.6432 -0.757945 40.9548 0.63652 46.5387 5.06329Z" fill="url(#paint0_linear_6443_11387)"/>
<defs>
<linearGradient id="paint0_linear_6443_11387" x1="38.5263" y1="0.263184" x2="38.5263" y2="88.6842" gradientUnits="userSpaceOnUse">
<stop stop-color="#7CC4ED"/>
<stop offset="1" stop-color="#43E6D3"/>
</linearGradient>
</defs>
</svg>
