<svg width="90" height="81" viewBox="0 0 90 81" fill="none" xmlns="http://www.w3.org/2000/svg">
<g clip-path="url(#clip0_6443_25486)">
<path fill-rule="evenodd" clip-rule="evenodd" d="M51.2845 66.5692C51.2845 68.3455 49.8372 69.7857 48.0517 69.7857H41.907C40.1214 69.7857 38.6741 68.3455 38.6741 66.5692V60.4675C38.6741 58.6913 40.1214 57.2519 41.907 57.2519H48.0517C49.8372 57.2519 51.2845 58.6913 51.2845 60.4675V66.5692ZM38.6879 19.9244C38.6879 18.2591 40.1357 16.9089 41.9212 16.9089L48.0288 16.9089C49.8144 16.9089 51.2617 18.2591 51.2617 19.9244L51.2617 47.7954C51.2617 49.4606 49.8144 50.8108 48.0288 50.8108H41.9212C40.1357 50.8108 38.6879 49.4606 38.6879 47.7954L38.6879 19.9244ZM87.4446 59.2141C77.9924 43.1687 68.6743 27.0459 59.2735 10.9706C58.0743 8.9195 56.9016 6.8064 55.389 4.99246C50.2659 -1.15103 40.055 -1.30021 34.8275 4.75613C32.9837 6.89273 31.5901 9.43996 30.153 11.8935C20.8992 27.6917 11.6944 43.5178 2.46393 59.3297C0.365031 62.9255 -0.315875 66.7083 1.03938 70.6965C3.18758 77.0155 8.27042 80.585 14.9937 80.5895C24.9781 80.5951 34.9624 80.5907 44.9471 80.5907C54.9946 80.5907 65.0421 80.5923 75.0896 80.5895C77.9183 80.5887 80.6003 79.9883 82.997 78.4476C88.6479 74.8149 91.957 66.8744 87.4446 59.2141Z" fill="#E86A45"/>
</g>
<defs>
<clipPath id="clip0_6443_25486">
<rect width="89.2157" height="80.2941" fill="white" transform="translate(0.338135 0.298218)"/>
</clipPath>
</defs>
</svg>
