<svg width="70" height="71" viewBox="0 0 70 71" fill="none" xmlns="http://www.w3.org/2000/svg">
<path fill-rule="evenodd" clip-rule="evenodd" d="M37.8732 5.23956L37.8758 5.24003C38.4786 5.34631 39.0723 5.59489 39.6805 5.68697L38.1735 15.6324C37.7673 15.5709 37.363 15.4607 36.9606 15.3898L36.9588 15.3895C34.8903 15.0247 32.743 15.5484 30.7154 16.0126L28.4676 5.99197C31.5367 5.28969 34.7543 4.68962 37.8732 5.23956Z" fill="#20C9A7" fill-opacity="0.36"/>
<path fill-rule="evenodd" clip-rule="evenodd" d="M40.8768 6.1248C44.6107 6.85129 48.1249 8.26075 51.3219 10.3141L45.8337 18.8579C43.7238 17.5026 41.4037 16.5722 38.9378 16.0926L40.8768 6.1248Z" fill="#20C9A7" fill-opacity="0.44"/>
<path fill-rule="evenodd" clip-rule="evenodd" d="M27.1997 6.6223L29.8805 16.4165C27.465 17.0775 25.2183 18.1802 23.2028 19.6938L17.1054 11.5739C20.1486 9.28851 23.5448 7.62264 27.1997 6.6223Z" fill="#20C9A7" fill-opacity="0.28"/>
<path fill-rule="evenodd" clip-rule="evenodd" d="M52.367 11.0082C55.4679 13.1894 58.1 15.903 60.1897 19.0747L51.7106 24.6619C50.3244 22.5587 48.5799 20.7592 46.5252 19.3141L52.367 11.0082Z" fill="#20C9A7" fill-opacity="0.52"/>
<path fill-rule="evenodd" clip-rule="evenodd" d="M16.1162 12.3566L22.5458 20.2161C20.5952 21.812 18.9866 23.7315 17.7647 25.9211L8.89698 20.9739C10.7437 17.6641 13.1726 14.7647 16.1162 12.3566Z" fill="#20C9A7" fill-opacity="0.2"/>
<path fill-rule="evenodd" clip-rule="evenodd" d="M60.8611 20.1329C62.8214 23.3962 64.1271 26.9488 64.7417 30.6927L54.7213 32.3376C54.3158 29.8666 53.4527 27.5196 52.1567 25.3619L60.8611 20.1329Z" fill="#20C9A7" fill-opacity="0.6"/>
<path fill-rule="evenodd" clip-rule="evenodd" d="M8.3272 22.0675L17.4049 26.6374C16.2807 28.8688 15.6051 31.2773 15.3791 33.7936L15.3733 33.857L5.25296 33.0228L5.26528 32.8849C5.60649 29.088 6.62445 25.4474 8.3272 22.0675Z" fill="#20C9A7" fill-opacity="0.12"/>
<path fill-rule="evenodd" clip-rule="evenodd" d="M64.9207 31.948C65.1733 34.0335 65.2055 36.1603 65.016 38.2696C64.8678 39.9197 64.5832 41.5632 64.1699 43.1553L54.3411 40.6034C54.6148 39.5489 54.8037 38.4581 54.9022 37.3607C55.0282 35.9596 55.0074 34.5498 54.84 33.1699L64.9207 31.948Z" fill="#20C9A7" fill-opacity="0.68"/>
<path fill-rule="evenodd" clip-rule="evenodd" d="M15.2778 34.7227C15.1658 37.2387 15.5245 39.7133 16.3438 42.0777L6.74908 45.4028C5.50768 41.8204 4.96399 38.0752 5.13339 34.2711L15.2778 34.7227Z" fill="#20C9A7" fill-opacity="0.04"/>
<path fill-rule="evenodd" clip-rule="evenodd" d="M54.1106 41.3964L63.8232 44.3585C62.7158 47.9902 60.9487 51.3386 58.5711 54.3105L50.6418 47.9671C52.2125 46.0035 53.3797 43.7928 54.1106 41.3964Z" fill="#20C9A7" fill-opacity="0.76"/>
<path fill-rule="evenodd" clip-rule="evenodd" d="M50.1184 48.6205L57.7758 55.2888C55.2829 58.1522 52.312 60.4903 48.9465 62.239L44.2652 53.2278C46.4956 52.0688 48.4649 50.5187 50.1184 48.6205Z" fill="#20C9A7" fill-opacity="0.84"/>
<path fill-rule="evenodd" clip-rule="evenodd" d="M43.5105 53.5826L47.8119 62.7811C44.3672 64.3919 40.6969 65.3216 36.9037 65.5439L36.3097 55.4066C38.8131 55.26 41.236 54.6465 43.5105 53.5826Z" fill="#20C9A7" fill-opacity="0.92"/>
<path fill-rule="evenodd" clip-rule="evenodd" d="M28.1376 54.1798C29.7994 54.8022 31.5495 55.199 33.3386 55.3598C34.0608 55.4457 34.7701 55.4506 35.4788 55.4387L35.6194 65.6205C32.5233 66.0629 27.2732 65.1371 24.5581 63.8602L28.1376 54.1798Z" fill="#20C9A7"/>
</svg>
