<svg width="84" height="85" viewBox="0 0 84 85" fill="none" xmlns="http://www.w3.org/2000/svg">
<g clip-path="url(#clip0_6443_23398)">
<path fill-rule="evenodd" clip-rule="evenodd" d="M35.7991 49.6313C32.1047 45.9722 28.4928 42.394 24.8797 38.8171C23.9161 37.8637 23.3136 37.8496 22.3702 38.7821C20.4198 40.7093 18.4754 42.643 16.5346 44.5801C15.614 45.4989 15.612 46.1814 16.5292 47.1012C22.4879 53.0773 28.4493 59.0508 34.4122 65.0224C35.3719 65.9838 35.9585 65.9899 36.906 65.0436C47.0988 54.8681 57.2896 44.6911 67.4785 34.5118C68.3941 33.5969 68.3854 32.9171 67.4577 31.9913C65.5172 30.0542 63.5726 28.1209 61.6241 26.1918C60.6922 25.2692 60.1216 25.2711 59.1949 26.195C55.9891 29.3898 52.7824 32.5833 49.5859 35.7867C44.9791 40.4037 40.3813 45.0291 35.7991 49.6313ZM41.9854 84.5071C18.8037 84.4914 -0.0153413 65.6597 9.38442e-06 42.4932C0.015059 19.3107 18.846 0.492375 42.0136 0.507089C65.1956 0.521817 84.0154 19.3545 84 42.5213C83.9846 65.7034 65.1524 84.5228 41.9854 84.5071Z" fill="url(#paint0_linear_6443_23398)"/>
</g>
<defs>
<linearGradient id="paint0_linear_6443_23398" x1="42" y1="0.50708" x2="42" y2="84.5071" gradientUnits="userSpaceOnUse">
<stop stop-color="#7CEDD6"/>
<stop offset="1" stop-color="#43E6D3"/>
</linearGradient>
<clipPath id="clip0_6443_23398">
<rect width="84" height="84" fill="white" transform="translate(0 0.50708)"/>
</clipPath>
</defs>
</svg>
