<svg width="32" height="31" viewBox="0 0 32 31" fill="none" xmlns="http://www.w3.org/2000/svg">
<path d="M31 0.5H1V30.5H31V0.5Z" stroke="white"/>
<mask id="mask0_2938_18601" style="mask-type:alpha" maskUnits="userSpaceOnUse" x="3" y="0" width="26" height="31">
<path d="M3.72726 0.5H28.0001V30.3775H3.72726V0.5Z" fill="white"/>
</mask>
<g mask="url(#mask0_2938_18601)">
<path fill-rule="evenodd" clip-rule="evenodd" d="M24.0303 7.63266H7.45451C7.08632 7.63266 6.78784 7.33144 6.78754 6.9595C6.78754 6.58756 7.08572 6.28603 7.4539 6.28573H7.45451H24.0303C24.3984 6.28603 24.6966 6.58756 24.6966 6.9595C24.6963 7.33113 24.3981 7.63266 24.0303 7.63266ZM6.79087 11.0031C6.75572 10.6311 7.02602 10.3008 7.39451 10.2656C7.39511 10.2656 7.39602 10.2656 7.39693 10.2653H22.7272C23.0772 10.2852 23.3469 10.5849 23.3333 10.9388C23.3336 11.2991 23.0533 11.596 22.6969 11.6123H7.3939C7.07451 11.5813 6.82148 11.3257 6.79087 11.0031ZM16.7272 15.6225H7.45451C7.08632 15.6225 6.78784 15.3209 6.78784 14.949C6.78784 14.5771 7.08632 14.2755 7.45451 14.2755H16.7272C17.0954 14.2755 17.3939 14.5771 17.3939 14.949C17.3939 15.3209 17.0954 15.6225 16.7272 15.6225ZM24.7606 0.500006H7.12117C5.24996 0.496644 3.73057 2.02634 3.72723 3.91634V26.9493C3.75299 28.82 5.23905 30.335 7.09087 30.3776H24.606C26.4769 30.3812 27.9966 28.8512 28.0001 26.9615V26.9612V3.83981C28.0184 2.01409 26.5684 0.518685 24.7609 0.500006H24.7606Z" fill="#20C9A7"/>
</g>
</svg>
