<?xml version="1.0" encoding="UTF-8"?>
<svg width="34px" height="34px" viewBox="0 0 34 34" version="1.1" xmlns="http://www.w3.org/2000/svg" xmlns:xlink="http://www.w3.org/1999/xlink">
    <title>ic_bar_contacts</title>
    <g id="version_4" stroke="none" stroke-width="1" fill="none" fill-rule="evenodd">
        <g id="ic_bar_contacts" transform="translate(1.000000, 1.000000)">
            <rect id="Rectangle-Copy-5" stroke-opacity="0.01" stroke="#393939" x="0" y="0" width="32" height="32"></rect>
            <path d="M28,1 C30.209139,1 32,2.790861 32,5 L32,27 C32,29.209139 30.209139,31 28,31 L10,31 C7.790861,31 6,29.209139 6,27 L3.5,27 C2.11928813,27 1,25.8807119 1,24.5 C1,23.1192881 2.11928813,22 3.5,22 L6,22 L6,19 L3.5,19 C2.11928813,19 1,17.8807119 1,16.5 C1,15.1192881 2.11928813,14 3.5,14 L6,14 L6,10 L3.5,10 C2.11928813,10 1,8.88071187 1,7.5 C1,6.11928813 2.11928813,5 3.5,5 L6,5 C6,2.790861 7.790861,1 10,1 L28,1 Z M21.8285651,16.4545455 C20.3573743,17.2735955 18.5391774,17.2735955 17.0679866,16.4545455 L14.4468006,17.2157121 C13.4401963,17.5861659 12.829351,18.2199891 12.6945636,19.1692768 L12.2758621,20.9462971 C13.8703691,23.1574428 16.4399344,24.6045278 19.3479022,24.6363636 L19.5486495,24.6363636 C22.4566174,24.6016336 25.0261826,23.1574428 26.6206897,20.9462971 L26.2019882,19.1692768 C26.0672007,18.2199891 25.4563554,17.5861659 24.4497511,17.2157121 L21.8285651,16.4545455 Z M19.4482759,8.27272727 C17.4669461,8.27272727 15.862069,9.90005023 15.862069,11.9090909 C15.862069,13.9181316 17.4669461,15.5454545 19.4482759,15.5454545 C21.4296056,15.5454545 23.0344828,13.9181316 23.0344828,11.9090909 C23.0344828,9.90005023 21.4296056,8.27272727 19.4482759,8.27272727 Z" id="Combined-Shape" fill="#FFFFFF"></path>
        </g>
    </g>
</svg>