<?xml version="1.0" encoding="UTF-8"?>
<svg width="21px" height="20px" viewBox="0 0 21 20" version="1.1" xmlns="http://www.w3.org/2000/svg" xmlns:xlink="http://www.w3.org/1999/xlink">
    <title>ic_from_my_contact_w</title>
    <g id="version_4" stroke="none" stroke-width="1" fill="none" fill-rule="evenodd">
        <g id="ic_from_my_contact_w" fill="#FFFFFF" fill-rule="nonzero">
            <path d="M17,0 C19.209139,0 21,1.790861 21,4 L21,16 C21,18.209139 19.209139,20 17,20 L8,20 C5.790861,20 4,18.209139 4,16 L4,17 L2,17 C0.8954305,17 0,16.1045695 0,15 C0,13.8954305 0.8954305,13 2,13 L4,13 L4,12 L2,12 C0.8954305,12 0,11.1045695 0,10 C0,8.8954305 0.8954305,8 2,8 L4,8 L4,7 L2,7 C0.8954305,7 0,6.1045695 0,5 C0,3.8954305 0.8954305,3 2,3 L4,3 L4,4 C4,1.790861 5.790861,0 8,0 L17,0 Z M14.3494464,10.3030303 C13.387514,10.8490637 12.1986929,10.8490637 11.2367605,10.3030303 L9.5229081,10.8104748 C8.8647438,11.0574439 8.4653449,11.4799927 8.3772146,12.1128512 L8.1034483,13.2975314 C9.1460106,14.7716286 10.8261109,15.7363518 12.7274745,15.7575758 L12.8587324,15.7575758 C14.760096,15.7344224 16.4401963,14.7716286 17.4827586,13.2975314 L17.2089923,12.1128512 C17.120862,11.4799927 16.7214631,11.0574439 16.0632988,10.8104748 L14.3494464,10.3030303 Z M12.7931034,4.8484848 C11.4976186,4.8484848 10.4482759,5.9333668 10.4482759,7.2727273 C10.4482759,8.6120877 11.4976186,9.6969697 12.7931034,9.6969697 C14.0885883,9.6969697 15.137931,8.6120877 15.137931,7.2727273 C15.137931,5.9333668 14.0885883,4.8484848 12.7931034,4.8484848 Z"></path>
        </g>
    </g>
</svg>