<?xml version="1.0" encoding="utf-8"?>
<!-- Generator: Adobe Illustrator 23.0.2, SVG Export Plug-In . SVG Version: 6.00 Build 0)  -->
<svg version="1.1" id="Layer_1" xmlns="http://www.w3.org/2000/svg" xmlns:xlink="http://www.w3.org/1999/xlink" x="0px" y="0px"
	 viewBox="0 0 34 34" style="enable-background:new 0 0 34 34;" xml:space="preserve">
<style type="text/css">
	.st0{fill:none;stroke:#393939;stroke-opacity:1.000000e-02;}
	.st1{fill-rule:evenodd;clip-rule:evenodd;fill:#20C9A7;}
</style>
<title>ic_bar_history</title>
<g id="version_4">
	<g id="ic_bar_history" transform="translate(1.000000, 1.000000)">
		<rect id="Rectangle" class="st0" width="32" height="32"/>
		<g id="Group-2" transform="translate(-0.000000, 1.000000)">
			<path id="Path" class="st1" d="M17.1,7.5c-0.9,0-1.5,0.8-1.5,1.6v6.5c0,0.5,0.2,1,0.6,1.3l3.9,3.2c0.7,0.6,1.7,0.4,2.2-0.3
				c0.5-0.7,0.4-1.7-0.2-2.3l-3.3-2.8V9.1C18.7,8.2,18,7.5,17.1,7.5C17.1,7.5,17.1,7.5,17.1,7.5"/>
			<path class="st1" d="M17.2,0C11.4,0,6.3,3.4,3.9,8.3l-0.5-1c-0.3-0.6-0.9-1-1.6-1C0.8,6.4,0,7.3,0,8.3c0,0.3,0.1,0.6,0.2,0.9
				l2.4,4.5c0.5,0.9,1.5,1.2,2.4,0.7l4.3-2.3c0.9-0.4,1.3-1.5,0.9-2.4S8.8,8.3,7.9,8.8c0,0-0.1,0-0.1,0.1L7.6,8.9
				c2-3.2,5.5-5.3,9.5-5.3c6.3,0,11.3,5.1,11.3,11.4c0,6.2-4.9,11.3-11.1,11.4c-1,0-1.8,0.8-1.7,1.8c0,1,0.8,1.8,1.8,1.8h0
				C25.4,29.9,32,23.2,32,15C32,6.7,25.3,0,17.2,0"/>
		</g>
	</g>
</g>
</svg>
