<?xml version="1.0" encoding="UTF-8"?>
<svg width="34px" height="34px" viewBox="0 0 34 34" version="1.1" xmlns="http://www.w3.org/2000/svg" xmlns:xlink="http://www.w3.org/1999/xlink">
    <title>ic_bar_history</title>
    <g id="version_4" stroke="none" stroke-width="1" fill="none" fill-rule="evenodd">
        <g id="ic_bar_history" transform="translate(1.000000, 1.000000)">
            <rect id="Rectangle" stroke-opacity="0.01" stroke="#393939" x="0" y="0" width="32" height="32"></rect>
            <g id="Group-2" transform="translate(-0.000000, 1.000000)" fill="#FFFFFF">
                <path d="M17.0947524,7.45525375 C16.2358216,7.46944387 15.5499211,8.2065191 15.5635303,9.10211821 L15.5635303,15.5890289 C15.5635303,16.0820341 15.7777769,16.5482808 16.1467789,16.8560036 L20.0351033,20.099459 C20.7062281,20.6593605 21.6856971,20.546245 22.2226747,19.846064 C22.7588746,19.1462886 22.6503903,18.125411 21.9796544,17.5655095 L18.6741898,14.8037073 L18.6741898,9.10211821 C18.6877989,8.20692453 18.0022873,7.46944387 17.1433565,7.45525375 C17.1270255,7.45525375 17.1106945,7.45525375 17.0947524,7.45525375" id="Path"></path>
                <path d="M17.1600714,0 C11.3554991,0 6.30476162,3.38856021 3.87534355,8.33799442 L3.34761478,7.37210704 C3.02866759,6.77030238 2.40632078,6.40212884 1.73733127,6.42031025 C0.756057817,6.44303701 -0.0213204275,7.2748365 0.000446163314,8.27890484 C0.00710940541,8.58435252 0.0888451751,8.88298217 0.238101798,9.14752168 L2.68129057,13.607876 C3.14505222,14.4637658 4.18851593,14.7905767 5.04141092,14.3464957 L9.38628898,12.0738195 C10.2787192,11.6556471 10.6700736,10.5765805 10.2613948,9.66341918 C9.85271592,8.75025788 8.79814681,8.3493578 7.90571658,8.76798476 C7.86173919,8.78843884 7.81820601,8.81116561 7.77600547,8.83525597 L7.63696582,8.90616347 C9.63238472,5.74668902 13.1376943,3.63673645 17.1600714,3.63673645 C23.4226306,3.63673645 28.4458267,8.71616774 28.4458267,14.9996629 C28.4458267,21.2327046 23.5021452,26.280773 17.3128818,26.3634984 C16.3316083,26.3784981 15.5480111,27.2057522 15.5631144,28.2098205 C15.5782177,29.2134343 16.3862469,30.0152345 17.3675204,30 L17.3684088,30 C25.4371508,29.89251 32,23.2090238 32,14.9996629 C32,6.72393979 25.3181008,0 17.1600714,0" id="Path"></path>
            </g>
        </g>
    </g>
</svg>