<?xml version="1.0" encoding="utf-8"?>
<!-- Generator: Adobe Illustrator 23.0.2, SVG Export Plug-In . SVG Version: 6.00 Build 0)  -->
<svg version="1.1" id="Layer_1" xmlns="http://www.w3.org/2000/svg" xmlns:xlink="http://www.w3.org/1999/xlink" x="0px" y="0px"
	 viewBox="0 0 34 34" style="enable-background:new 0 0 34 34;" xml:space="preserve">
<style type="text/css">
	.st0{fill:none;stroke:#393939;stroke-opacity:1.000000e-02;}
	.st1{fill-rule:evenodd;clip-rule:evenodd;fill:#20C9A7;}
</style>
<title>ic_bar_contacts</title>
<g id="version_4">
	<g id="ic_bar_contacts" transform="translate(1.000000, 1.000000)">
		<rect id="Rectangle-Copy-5" class="st0" width="32" height="32"/>
		<path id="Combined-Shape" class="st1" d="M28,1c2.2,0,4,1.8,4,4v22c0,2.2-1.8,4-4,4H10c-2.2,0-4-1.8-4-4H3.5C2.1,27,1,25.9,1,24.5
			S2.1,22,3.5,22H6v-3H3.5C2.1,19,1,17.9,1,16.5S2.1,14,3.5,14H6v-4H3.5C2.1,10,1,8.9,1,7.5S2.1,5,3.5,5H6c0-2.2,1.8-4,4-4H28z
			 M21.8,16.5c-1.5,0.8-3.3,0.8-4.8,0l-2.6,0.8c-1,0.4-1.6,1-1.8,2l-0.4,1.8c1.6,2.2,4.2,3.7,7.1,3.7h0.2c2.9,0,5.5-1.5,7.1-3.7
			l-0.4-1.8c-0.1-0.9-0.7-1.6-1.8-2L21.8,16.5z M19.4,8.3c-2,0-3.6,1.6-3.6,3.6s1.6,3.6,3.6,3.6s3.6-1.6,3.6-3.6S21.4,8.3,19.4,8.3z
			"/>
	</g>
</g>
</svg>
