<?xml version="1.0" encoding="UTF-8"?>
<svg width="22px" height="22px" viewBox="0 0 22 22" version="1.1" xmlns="http://www.w3.org/2000/svg" xmlns:xlink="http://www.w3.org/1999/xlink">
    <title>ic_settings_disconnect</title>
    <defs>
        <polygon id="path-1" points="0 0.054883008 21.0434436 0.054883008 21.0434436 19.6405797 0 19.6405797"></polygon>
    </defs>
    <g id="version_4" stroke="none" stroke-width="1" fill="none" fill-rule="evenodd">
        <g id="ic_settings_disconnect">
            <path d="M9.39938522,1.07111304 C9.39938522,0.479791304 9.9044287,0 10.5217041,0 C11.1390496,0 11.6440229,0.479791304 11.6440229,1.07111304 L11.6440229,12.1996058 C11.6440229,12.7909275 11.1390496,13.2707188 10.5217041,13.2707188 C9.9044287,13.2707188 9.39938522,12.7909275 9.39938522,12.1996058 L9.39938522,1.07111304 Z" id="Fill-1" fill="#20C9A7"></path>
            <g id="Group-5" transform="translate(0.000000, 1.402899)">
                <mask id="mask-2" fill="white">
                    <use xlink:href="#path-1"></use>
                </mask>
                <g id="Clip-4"></g>
                <path d="M10.5217041,19.6406148 C4.7200171,19.6406148 -3.57369557e-05,15.1183012 -3.57369557e-05,9.5607887 C-0.000806666667,7.47243391 0.670410145,5.43935333 1.91422,3.76190754 C3.14919159,2.08923159 4.85483565,0.822905217 6.81321188,0.124822899 C7.39113594,-0.0856118841 8.03583797,0.194967826 8.2532171,0.749814203 C8.46112667,1.29624319 8.18664957,1.90762638 7.64029072,2.1154658 C7.62724377,2.12044609 7.61412667,2.1251458 7.60086928,2.12956493 C4.39110754,3.28765768 2.23478232,6.2744287 2.23478232,9.5607887 C2.23478232,13.937762 5.95246348,17.4990901 10.5210026,17.4990901 C15.0895417,17.4990901 18.8079945,13.937762 18.8079945,9.5607887 C18.8079945,6.27940899 16.655878,3.29474232 13.4538322,2.13384377 C12.8998977,1.94683739 12.6025533,1.34618638 12.7895597,0.792322029 C12.7939788,0.779204928 12.7986084,0.766298261 12.8035186,0.753321449 C13.0223707,0.199948116 13.6670728,-0.0785272464 14.2449968,0.130434493 C16.1996554,0.830621159 17.9014414,2.09701768 19.133467,3.76822058 C20.374471,5.44440377 21.0440745,7.47509942 21.0434436,9.5607887 C21.0434436,15.1183012 16.3234612,19.6406148 10.5217041,19.6406148" id="Fill-3" fill="#20C9A7" mask="url(#mask-2)"></path>
            </g>
        </g>
    </g>
</svg>