<?xml version="1.0" encoding="UTF-8"?>
<svg width="25px" height="29px" viewBox="0 0 25 29" version="1.1" xmlns="http://www.w3.org/2000/svg" xmlns:xlink="http://www.w3.org/1999/xlink">
    <title>31475CC3-2D43-45C0-9830-AA3CBED833B7</title>
    <g id="Page-1" stroke="none" stroke-width="1" fill="none" fill-rule="evenodd">
        <g id="settings_unverified" transform="translate(-44.000000, -211.000000)" fill="#20C9A7">
            <path d="M56.5,240 L56.67493,240 C61.7429028,239.936328 66.2211116,237.288645 69,233.234878 L68.2702919,229.977007 C68.0353858,228.236647 66.9708117,227.074637 65.2165134,226.395472 L60.6483407,225 C58.0843663,226.501592 54.9156337,226.501592 52.3516593,225 L47.7834866,226.395472 C46.0291883,227.074637 44.9646142,228.236647 44.7297081,229.977007 L44,233.234878 C46.7788884,237.288645 51.2570972,239.941634 56.32507,240 L56.5,240 Z M56.5,211 C60.0911602,211 63,213.90884 63,217.5 C63,221.09116 60.0911602,224 56.5,224 C52.9088398,224 50,221.09116 50,217.5 C50,213.90884 52.9088398,211 56.5,211 L56.5,211 Z" id="ic_account_settings"></path>
        </g>
    </g>
</svg>