<?xml version="1.0" encoding="UTF-8"?>
<svg width="14px" height="14px" viewBox="0 0 14 14" version="1.1" xmlns="http://www.w3.org/2000/svg" xmlns:xlink="http://www.w3.org/1999/xlink">
    <title>ic_change_picture</title>
    <g id="version_4" stroke="none" stroke-width="1" fill="none" fill-rule="evenodd">
        <g id="ic_change_picture">
            <polygon id="Path" points="0 0 14 0 14 14 0 14"></polygon>
            <path d="M5.25,1.75 L8.75,1.75 L9.91666667,2.91666667 L12.25,2.91666667 C12.5721661,2.91666667 12.8333333,3.1778339 12.8333333,3.5 L12.8333333,11.6666667 C12.8333333,11.9888328 12.5721661,12.25 12.25,12.25 L1.75,12.25 C1.4278339,12.25 1.16666667,11.9888328 1.16666667,11.6666667 L1.16666667,3.5 C1.16666667,3.1778339 1.4278339,2.91666667 1.75,2.91666667 L4.08333333,2.91666667 L5.25,1.75 Z M7,11.0833333 C8.93299662,11.0833333 10.5,9.51632996 10.5,7.58333333 C10.5,5.65033671 8.93299662,4.08333333 7,4.08333333 C5.06700338,4.08333333 3.5,5.65033671 3.5,7.58333333 C3.5,9.51632996 5.06700338,11.0833333 7,11.0833333 Z M7,9.91666667 C5.71133558,9.91666667 4.66666667,8.87199775 4.66666667,7.58333333 C4.66666667,6.29466892 5.71133558,5.25 7,5.25 C8.28866442,5.25 9.33333333,6.29466892 9.33333333,7.58333333 C9.33333333,8.87199775 8.28866442,9.91666667 7,9.91666667 Z" id="Shape" fill="#FFFFFF" fill-rule="nonzero"></path>
        </g>
    </g>
</svg>