<?xml version="1.0" encoding="UTF-8"?>
<svg width="24px" height="24px" viewBox="0 0 24 24" version="1.1" xmlns="http://www.w3.org/2000/svg" xmlns:xlink="http://www.w3.org/1999/xlink">
    <title>ic_settings_help_support</title>
    <g id="version_4" stroke="none" stroke-width="1" fill="none" fill-rule="evenodd">
        <g id="ic_settings_help_support" transform="translate(1.000000, 1.000000)">
            <rect id="Rectangle" stroke-opacity="0.01" stroke="#FFFFFF" x="0" y="0" width="22" height="22"></rect>
            <path d="M14.3685415,5.34473247 C14.2850435,5.57973198 14.1778734,5.7962242 14.0474616,5.99593074 C13.918341,6.19563729 13.7685611,6.38415338 13.5994131,6.56449183 C13.4289739,6.74310868 13.2649907,6.91397828 13.1053116,7.07322704 C12.9860902,7.1924484 12.8604128,7.3189866 12.7312922,7.45370244 C12.6017412,7.58927908 12.4846718,7.73045094 12.3800841,7.88023085 C12.2754964,8.02958036 12.1876944,8.1871075 12.1179693,8.35109068 C12.0486746,8.51550426 12.0133816,8.68336105 12.0133816,8.85250905 L12.0133816,9.03112589 C12.0133816,9.11204148 12.0185464,9.1813362 12.0284457,9.24073168 L10.0541915,9.24073168 C10.034393,9.14216962 10.0219114,9.02940428 10.0176074,8.90458769 C10.0111513,8.78063191 10.0085689,8.6721706 10.0085689,8.58350778 C10.0085689,8.30374645 10.0438619,8.05153086 10.1131566,7.8277218 C10.1837425,7.60391275 10.2767094,7.39430695 10.3911963,7.19976524 C10.5052529,7.00479311 10.6382471,6.82359386 10.7867358,6.65444586 C10.9360853,6.48357625 11.09103,6.31959307 11.2502788,6.16034432 C11.4805439,5.93137044 11.6897193,5.70368776 11.8782354,5.4794483 C12.0680426,5.25563924 12.1631615,4.99868923 12.1631615,4.70902866 C12.1631615,4.46972513 12.0706251,4.26614497 11.8868434,4.09613616 C11.7022009,3.92655776 11.4306172,3.84133816 11.0716619,3.84133816 C10.7122762,3.84133816 10.372689,3.88653037 10.0541915,3.9764844 C9.73483322,4.06643842 9.38061234,4.21148391 8.99238971,4.40989925 L8.36443314,2.72014086 C8.75265578,2.47093808 9.21189475,2.27854837 9.73956764,2.14469334 C10.2681013,2.0095471 10.7867358,1.94283478 11.2950406,1.94283478 C11.9333268,1.94283478 12.4601389,2.02805439 12.8737553,2.19720239 C13.2865108,2.36635039 13.6140468,2.5802602 13.8529199,2.83979262 C14.0922234,3.09889465 14.2592194,3.3838208 14.3543383,3.69284946 C14.4490267,4.00230852 14.4963709,4.29541231 14.4963709,4.57431282 C14.4963709,4.85407415 14.4537611,5.11102416 14.3685415,5.34473247 L14.3685415,5.34473247 Z M12.0353321,12.3826665 C11.7516972,12.6206789 11.4306172,12.7416218 11.0716619,12.7416218 C10.7122762,12.7416218 10.3911963,12.6206789 10.1062702,12.3826665 C9.82220483,12.1425022 9.68017216,11.8042062 9.68017216,11.3647657 C9.68017216,10.9266165 9.82220483,10.5870292 10.1062702,10.3485865 C10.3911963,10.1084222 10.7122762,9.98920082 11.0716619,9.98920082 C11.4306172,9.98920082 11.7516972,10.1084222 12.0353321,10.3485865 C12.3202582,10.5870292 12.4622909,10.9266165 12.4622909,11.3647657 C12.4622909,11.8042062 12.3202582,12.1425022 12.0353321,12.3826665 L12.0353321,12.3826665 Z M0,1.41042733e-12 L0,14.6840262 L2.91468258,14.6840262 L2.91468258,20.2284652 L8.45912159,14.6840262 L22,14.6840262 L22,1.41042733e-12 L0,1.41042733e-12 Z" id="Page-1" fill="#20C9A7"></path>
        </g>
    </g>
</svg>