<?xml version="1.0" encoding="UTF-8"?>
<svg width="66px" height="82px" viewBox="0 0 66 82" version="1.1" xmlns="http://www.w3.org/2000/svg" xmlns:xlink="http://www.w3.org/1999/xlink">
    <title>A58786A5-FE35-4132-94AD-1F52947426DB</title>
    <defs>
        <linearGradient x1="50%" y1="0%" x2="50%" y2="100%" id="linearGradient-1">
            <stop stop-color="#FFA429" offset="0%"></stop>
            <stop stop-color="#FDE844" offset="100%"></stop>
        </linearGradient>
    </defs>
    <g id="Page-1" stroke="none" stroke-width="1" fill="none" fill-rule="evenodd">
        <g id="home_get_more" transform="translate(-30.000000, -372.000000)">
            <g id="get_more" transform="translate(16.000000, 358.000000)">
                <g id="ic_statuts_premium" transform="translate(14.000000, 14.763158)">
                    <circle id="Oval" fill="#FFFFFF" cx="33" cy="34.2368421" r="21"></circle>
                    <polygon id="Fill-1" fill="#FEBF34" points="32.9991091 44.5769391 20.8971009 40.2368421 9 73.9179339 20.2609971 70.1434681 26.6238168 80.2368421 32.9991091 62.1815359 39.3761832 80.2368421 45.7407847 70.1434681 57 73.9179339 45.1046809 40.2368421"></polygon>
                    <polygon id="Fill-2" fill="url(#linearGradient-1)" points="33.0008911 6.31963537 26.4349329 0.236842105 22.699252 8.36743187 14.3082282 5.25920115 13.9678108 14.2024934 5.02427696 14.5429017 8.13259161 22.9354811 0 26.6710612 6.08295752 33.2368421 0 39.7990586 8.13259161 43.5364208 5.02427696 51.9290002 13.9678108 52.2676263 14.3082282 61.2109186 22.699252 58.1044701 26.4349329 66.2368421 33.0008911 60.1522666 39.5650671 66.2368421 43.3025303 58.1044701 51.693554 61.2109186 52.0321892 52.2676263 60.9775053 51.9290002 57.8691907 43.5364208 66 39.7990586 59.9188248 33.2368421 66 26.6710612 57.8691907 22.9354811 60.9775053 14.5429017 52.0321892 14.2024934 51.693554 5.25920115 43.3025303 8.36743187 39.5650671 0.236842105"></polygon>
                    <polygon id="Path" fill="#FFFFFF" points="44.9564959 23.4095576 48.7349518 27.1914759 30.9744268 44.9515213 21.1504415 35.126019 24.9306797 31.3458829 30.9744268 37.3912491"></polygon>
                </g>
            </g>
        </g>
    </g>
</svg>