<?xml version="1.0" encoding="UTF-8"?>
<svg width="60px" height="77px" viewBox="0 0 60 77" version="1.1" xmlns="http://www.w3.org/2000/svg" xmlns:xlink="http://www.w3.org/1999/xlink">
    <title>8C293852-7F6C-483C-A7DC-FE4C14EE3625</title>
    <defs>
        <linearGradient x1="50%" y1="0%" x2="50%" y2="100%" id="linearGradient-1">
            <stop stop-color="#7CEDD6" offset="0%"></stop>
            <stop stop-color="#43E6D3" offset="100%"></stop>
        </linearGradient>
    </defs>
    <g id="Page-1" stroke="none" stroke-width="1" fill="none" fill-rule="evenodd">
        <g id="2-consent" transform="translate(-158.000000, -149.000000)" fill="url(#linearGradient-1)">
            <path d="M184.791937,213.139242 C184.82112,214.462878 185.398004,215.530272 186.587735,216.207037 C189.08216,217.626053 192.080954,215.961044 192.13313,213.121305 C192.172926,210.96858 192.162313,208.813863 192.128709,206.660569 C192.119865,206.089148 192.28789,205.721581 192.752168,205.346043 C194.960362,203.559746 195.549037,200.427605 194.217518,197.84724 C192.95645,195.402399 189.938495,193.992209 187.183484,194.597796 C184.656338,195.152989 182.936004,196.607025 182.256831,199.048449 C181.555845,201.567601 182.307533,203.720325 184.294643,205.45395 C184.663413,205.775108 184.806676,206.075197 184.794,206.536149 C184.765112,207.600695 184.784862,208.666096 184.786631,209.731212 C184.786631,210.866937 184.76688,212.003516 184.791937,213.139242 Z M202.254288,185.180717 C202.27207,185.000022 202.29945,184.851726 202.29945,184.70312 C202.301143,181.178929 202.319208,177.654427 202.29578,174.130236 C202.264731,169.456447 200.698173,165.523821 197.558566,162.363203 C192.354206,157.124583 184.430529,156.89186 178.992456,161.845728 C175.954745,164.612865 174.073182,168.166964 173.825638,172.497743 C173.592489,176.576795 173.73983,180.682639 173.722047,184.776333 C173.721765,184.899393 173.749427,185.022764 173.768056,185.180717 L202.254288,185.180717 Z M164.166687,174.275833 C164.19021,172.746906 164.250977,171.199246 164.501605,169.696834 C165.738785,162.286798 169.48449,156.541433 175.712957,152.638562 C181.670073,148.905733 188.129565,147.985495 194.77836,150.154236 C204.222711,153.235147 209.759499,160.016319 211.563464,170.011841 C211.808211,171.368134 211.815212,172.779473 211.833414,174.166891 C211.871779,177.115516 211.845176,180.065004 211.845176,183.013917 L211.845176,183.942801 C212.697312,183.942801 213.483081,183.940496 214.268851,183.943089 C216.479421,183.949718 217.844016,185.26595 217.989913,187.532681 C218,187.69984 217.996073,187.868152 217.996073,188.035887 C217.996353,199.328908 217.993553,210.621928 218,221.914948 C218.000834,223.273546 217.744045,224.524644 216.55559,225.297897 C216.046772,225.628757 215.41334,225.768824 214.823594,225.950105 C214.586687,226.022733 214.314216,225.979214 214.058267,225.979502 C196.678655,225.980367 179.298764,225.964803 161.919432,225.999988 C159.797631,226.004288 158.505845,224.830141 158.177928,223.441281 C158.063955,222.959115 158.008228,222.449857 158.007668,221.952991 C157.998707,210.63605 157.998707,199.319109 158.002068,188.002167 C158.002628,185.326473 159.364142,183.943378 161.971798,183.942801 C162.666557,183.942513 163.361316,183.942801 164.151845,183.942801 C164.151845,180.650349 164.117402,177.462514 164.166687,174.275833 Z" id="ic_cadena"></path>
        </g>
    </g>
</svg>