<?xml version="1.0" encoding="UTF-8"?>
<svg width="30px" height="30px" viewBox="0 0 30 30" version="1.1" xmlns="http://www.w3.org/2000/svg" xmlns:xlink="http://www.w3.org/1999/xlink">
    <title>30619B7B-663C-44DC-9B2B-8904B27D80A9</title>
    <defs>
        <linearGradient x1="73.508403%" y1="0%" x2="26.86077%" y2="100%" id="linearGradient-1">
            <stop stop-color="#E86A45" offset="0%"></stop>
            <stop stop-color="#FF9B6A" offset="100%"></stop>
        </linearGradient>
    </defs>
    <g id="Page-1" stroke="none" stroke-width="1" fill="none" fill-rule="evenodd">
        <g id="settings_unverified" transform="translate(-310.000000, -205.000000)">
            <g id="ic_status_unverified" transform="translate(310.000000, 205.000000)">
                <path d="M15.0004051,0 C6.71599471,0 0,6.71599471 0,15.0004051 C0,23.2840053 6.71599471,30 15.0004051,30 C23.2848154,30 30,23.2840053 30,15.0004051 C30,6.71599471 23.2848154,0 15.0004051,0 L15.0004051,0 Z" id="Path" fill="url(#linearGradient-1)"></path>
                <path d="M16.6579352,24.1054792 C16.1686155,24.515406 15.6169156,24.7219897 15.0004051,24.7219897 C14.3830844,24.7219897 13.8313845,24.515406 13.3444952,24.1054792 C12.8551754,23.693122 12.6105155,23.1122573 12.6105155,22.3580244 C12.6105155,21.6054117 12.8551754,21.0213065 13.3444952,20.6121898 C13.8313845,20.2006427 14.3830844,19.9956793 15.0004051,19.9956793 C15.6169156,19.9956793 16.1686155,20.2006427 16.6579352,20.6121898 C17.1456347,21.0213065 17.3894845,21.6054117 17.3894845,22.3580244 C17.3894845,23.1122573 17.1456347,23.693122 16.6579352,24.1054792 L16.6579352,24.1054792 Z" id="Path" fill="#FFFFFF"></path>
                <path d="M12.9702141,6.58475331 L17.0548999,6.58475331 L17.0548999,11.1846831 C17.0548999,12.5724393 17.0054819,13.8637898 16.9001647,15.0619751 C16.7980881,16.2617807 16.6619859,17.478599 16.491048,18.7099997 L13.5624207,18.7099997 C13.3906727,17.478599 13.2480894,16.2617807 13.1371013,15.0619751 C13.0269234,13.8637898 12.9702141,12.5724393 12.9702141,11.1846831 L12.9702141,6.58475331 Z" id="Path" fill="#FFFFFF"></path>
            </g>
        </g>
    </g>
</svg>