<?xml version="1.0" encoding="UTF-8"?>
<svg width="34px" height="34px" viewBox="0 0 34 34" version="1.1" xmlns="http://www.w3.org/2000/svg" xmlns:xlink="http://www.w3.org/1999/xlink">
    <title>ic_bar_home_color</title>
    <g id="version_4" stroke="none" stroke-width="1" fill="none" fill-rule="evenodd">
        <g id="ic_bar_home_color" transform="translate(1.000000, 1.000000)">
            <g id="Group-16-Copy">
                <rect id="Rectangle" stroke-opacity="0.01" stroke="#393939" x="0" y="0" width="32" height="32"></rect>
                <g id="Group-4-Copy" transform="translate(1.000000, 1.000000)">
                    <polygon id="Fill-1" fill="#F05138" points="6.61346029 15 0 15 4.84841168 19.8484117 2.59537257 27.2920385 10.1515883 25.1517458 14.9996851 30 15 30 15 23.3866972 15 15"></polygon>
                    <path d="M14.9798169,6.62157475 C17.4648635,6.62157475 19.6969904,7.70173115 21.2345342,9.41695835 C22.5667777,10.9032573 23.3777292,12.8658594 23.3777292,15.018762 C23.3777292,19.298395 20.1749204,22.8278624 16.0356463,23.3473654 L16.0356463,30 C23.8381566,29.4581087 30,22.9582506 30,15.018762 C30,11.1684483 28.5502844,7.65695456 26.1678878,4.99905402 C23.4176224,1.93091161 19.4245183,0 14.9798169,0 C7.05541948,0 0.565127353,6.13581181 0,13.9151137 L6.65632983,13.9151137 C7.19717436,9.79929367 10.7161328,6.62157475 14.9798169,6.62157475" id="Fill-2" fill="#20C9A7"></path>
                </g>
            </g>
        </g>
    </g>
</svg>