<?xml version="1.0" encoding="UTF-8"?>
<svg width="25px" height="27px" viewBox="0 0 25 27" version="1.1" xmlns="http://www.w3.org/2000/svg" xmlns:xlink="http://www.w3.org/1999/xlink">
    <title>1E086626-C866-4DD3-B2EF-04DAF1DAC91F</title>
    <g id="Page-1" stroke="none" stroke-width="1" fill="none" fill-rule="evenodd">
        <g id="settings_premium" transform="translate(-44.000000, -656.000000)" fill="#E86A45">
            <path d="M54.1382,656.0642 C55.0982,655.7762 56.0632,656.4952 56.0632,657.4972 L56.0632,657.4972 L56.0632,658.5472 L59.8132,658.5472 C60.9042,658.5472 61.7922,659.4352 61.7922,660.5272 L61.7922,660.5272 L61.7922,664.2272 L60.2922,664.2272 L60.2922,660.5272 C60.2922,660.2622 60.0772,660.0472 59.8132,660.0472 L59.8132,660.0472 L56.0632,660.0472 L56.0632,678.8442 L59.8132,678.8442 C60.0772,678.8442 60.2922,678.6292 60.2922,678.3642 L60.2922,678.3642 L60.2922,674.6642 L61.7922,674.6642 L61.7922,678.3642 C61.7922,679.4562 60.9042,680.3442 59.8132,680.3442 L59.8132,680.3442 L56.0632,680.3442 L56.0632,681.3942 C56.0632,682.3962 55.0982,683.1152 54.1382,682.8272 L54.1382,682.8272 L45.0662,680.1062 C44.4342,679.9162 44.0002,679.3342 44.0002,678.6732 L44.0002,678.6732 L44.0002,660.2182 C44.0002,659.5572 44.4342,658.9752 45.0662,658.7852 L45.0662,658.7852 Z M64.549,665.0859 L68.901,669.4379 L64.772,673.5659 L63.711,672.5059 L66.022,670.1949 L59.128,670.1949 L59.128,668.6949 L66.037,668.6949 L63.488,666.1469 L64.549,665.0859 Z" id="Combined-Shape"></path>
        </g>
    </g>
</svg>