<?xml version="1.0" encoding="utf-8"?>
<!-- Generator: Adobe Illustrator 23.0.2, SVG Export Plug-In . SVG Version: 6.00 Build 0)  -->
<svg version="1.1" id="Layer_1" xmlns="http://www.w3.org/2000/svg" xmlns:xlink="http://www.w3.org/1999/xlink" x="0px" y="0px"
	 viewBox="0 0 30 30" style="enable-background:new 0 0 30 30;" xml:space="preserve">
<style type="text/css">
	.st0{fill-rule:evenodd;clip-rule:evenodd;fill:#FFFFFF;}
</style>
<title>btn_edit</title>
<g id="version_4">
	<g id="Group">
		<path id="Fill-1" class="st0" d="M24.5,22.6c0,1.1-0.9,1.9-1.9,1.9H7.4c-1.1,0-1.9-0.8-1.9-1.9V7.4c0-1,0.9-1.9,1.9-1.9h7.8
			L17.6,3H7.4C5,3,3,5,3,7.4v15.3C3,25,5,27,7.4,27h15.2c2.4,0,4.4-2,4.4-4.4V12.4l-2.5,2.5L24.5,22.6L24.5,22.6z"/>
		<path id="Fill-4" class="st0" d="M25.7,7.2l-2.8-2.8l1.6-1.6l2.8,2.8L25.7,7.2z M14.6,18.3l-3,0.2l0.2-3l0.8-0.8l2.8,2.8
			L14.6,18.3z M21,6.2L23.9,9l-6.6,6.6l-2.8-2.8L21,6.2z M29.4,4.2l-3.6-3.5C25.5,0.2,25,0,24.4,0c-0.6,0-1.1,0.2-1.4,0.6L9.8,13.7
			c-0.4,0.4-0.6,0.8-0.6,1.3L9,18.8c0,0.6,0.2,1.2,0.6,1.6C10,20.8,10.5,21,11,21h0.1l3.8-0.2c0.5,0,1-0.2,1.3-0.6L29.4,7
			C29.8,6.7,30,6.1,30,5.6C30,5.1,29.8,4.5,29.4,4.2L29.4,4.2z"/>
	</g>
</g>
</svg>
