<?xml version="1.0" encoding="utf-8"?>
<!-- Generator: Adobe Illustrator 23.0.2, SVG Export Plug-In . SVG Version: 6.00 Build 0)  -->
<svg version="1.1" id="Layer_1" xmlns="http://www.w3.org/2000/svg" xmlns:xlink="http://www.w3.org/1999/xlink" x="0px" y="0px"
	 viewBox="0 0 34 34" style="enable-background:new 0 0 34 34;" xml:space="preserve">
<style type="text/css">
	.st0{fill:none;stroke:#393939;stroke-opacity:1.000000e-02;}
	.st1{fill-rule:evenodd;clip-rule:evenodd;fill:#20C9A7;}
</style>
<title>ic_bar_settings</title>
<g id="version_4">
	<g id="ic_bar_settings" transform="translate(1.000000, 1.000000)">
		<rect id="Rectangle-Copy-6" class="st0" width="32" height="32"/>
		<path id="Fill-1" class="st1" d="M16,21.5c-3.1,0-5.5-2.5-5.5-5.5s2.5-5.5,5.5-5.5s5.5,2.5,5.5,5.5S19.1,21.5,16,21.5 M29.6,12.8
			H28c-0.6,0-1.1-0.4-1.3-0.9c-0.1-0.2-0.2-0.4-0.2-0.5c-0.3-0.5-0.2-1.2,0.3-1.6l1.1-1.1c0.6-0.6,0.6-1.5,0-2l-2.5-2.5
			c-0.6-0.6-1.5-0.6-2,0l-1.1,1.1c-0.4,0.4-1.1,0.5-1.6,0.3c-0.2-0.1-0.3-0.2-0.5-0.2c-0.6-0.2-0.9-0.7-0.9-1.3V2.4
			c0-0.8-0.6-1.4-1.4-1.4h-3.5c-0.8,0-1.4,0.6-1.4,1.4V4c0,0.6-0.4,1.1-0.9,1.3c-0.2,0.1-0.3,0.1-0.5,0.2c-0.5,0.3-1.2,0.1-1.6-0.3
			L8.6,4.2c-0.6-0.6-1.5-0.6-2,0L4.1,6.6c-0.6,0.6-0.6,1.5,0,2l1.1,1.1c0.4,0.4,0.5,1.1,0.3,1.6c-0.1,0.2-0.2,0.3-0.2,0.5
			c-0.2,0.6-0.7,0.9-1.3,0.9H2.4c-0.8,0-1.4,0.6-1.4,1.4v3.5c0,0.8,0.6,1.4,1.4,1.4H4c0.6,0,1.1,0.4,1.3,0.9
			c0.1,0.2,0.2,0.4,0.2,0.6c0.3,0.5,0.1,1.2-0.3,1.6l-1.1,1.1c-0.6,0.6-0.6,1.5,0,2l2.5,2.5c0.6,0.6,1.5,0.6,2,0l1.1-1.1
			c0.4-0.4,1-0.5,1.6-0.3c0.2,0.1,0.4,0.2,0.6,0.3c0.5,0.2,0.9,0.7,0.9,1.3v1.5c0,0.8,0.6,1.4,1.4,1.4h3.5c0.8,0,1.4-0.6,1.4-1.4V28
			c0-0.6,0.3-1.1,0.9-1.3c0.2-0.1,0.4-0.2,0.6-0.3c0.5-0.3,1.2-0.1,1.6,0.3l1.1,1.1c0.6,0.6,1.5,0.6,2,0l2.5-2.5
			c0.6-0.6,0.6-1.5,0-2l-1.1-1c-0.4-0.4-0.5-1-0.3-1.6c0.1-0.2,0.2-0.4,0.2-0.6c0.2-0.6,0.7-0.9,1.3-0.9h1.6c0.8,0,1.4-0.6,1.4-1.4
			v-3.5C31,13.5,30.4,12.8,29.6,12.8"/>
	</g>
</g>
</svg>
