<?xml version="1.0" encoding="UTF-8"?>
<svg width="24px" height="24px" viewBox="0 0 24 24" version="1.1" xmlns="http://www.w3.org/2000/svg" xmlns:xlink="http://www.w3.org/1999/xlink">
    <title>ic_settings_general_conditions</title>
    <defs>
        <polygon id="path-1" points="0 -1.42108547e-14 17.800106 -1.42108547e-14 17.800106 21.9101865 0 21.9101865"></polygon>
    </defs>
    <g id="version_4" stroke="none" stroke-width="1" fill="none" fill-rule="evenodd">
        <g id="ic_settings_general_conditions" transform="translate(1.000000, 1.000000)">
            <rect id="Rectangle" stroke-opacity="0.01" stroke="#FFFFFF" x="0" y="0" width="22" height="22"></rect>
            <g id="Page-1" transform="translate(2.000000, 0.000000)">
                <mask id="mask-2" fill="white">
                    <use xlink:href="#path-1"></use>
                </mask>
                <g id="Clip-2"></g>
                <path d="M14.8888667,5.2305898 L2.73331111,5.2305898 C2.46331111,5.2305898 2.24442222,5.00969184 2.2442,4.73693673 C2.2442,4.46418163 2.46286667,4.24305918 2.73286667,4.24283469 L2.73331111,4.24283469 L14.8888667,4.24283469 C15.1588667,4.24305918 15.3775333,4.46418163 15.3775333,4.73693673 C15.3773111,5.00946735 15.1586444,5.2305898 14.8888667,5.2305898 L14.8888667,5.2305898 Z M2.24664444,7.70222245 C2.22086667,7.42946735 2.41908889,7.18724286 2.68931111,7.16142653 C2.68975556,7.16142653 2.69042222,7.16142653 2.69108889,7.16120204 L13.9333111,7.16120204 C14.1899778,7.17579388 14.3877556,7.39556939 14.3777556,7.65507959 C14.3779778,7.91930408 14.1724222,8.13705918 13.9110889,8.14895714 L2.68886667,8.14895714 C2.45464444,8.12628367 2.26908889,7.93883469 2.24664444,7.70222245 L2.24664444,7.70222245 Z M9.53331111,11.0897735 L2.73331111,11.0897735 C2.46331111,11.0897735 2.24442222,10.868651 2.24442222,10.5958959 C2.24442222,10.3231408 2.46331111,10.1020184 2.73331111,10.1020184 L9.53331111,10.1020184 C9.80331111,10.1020184 10.0222,10.3231408 10.0222,10.5958959 C10.0222,10.868651 9.80331111,11.0897735 9.53331111,11.0897735 L9.53331111,11.0897735 Z M15.4244222,-2.65181005e-05 L2.48886667,-2.65181005e-05 C1.11664444,-0.00249183673 0.00242222222,1.11928367 -2.22222222e-05,2.50528367 L-2.22222222e-05,2.50528367 L-2.22222222e-05,19.3961204 C0.0188666667,20.7679776 1.10864444,21.8789776 2.46664444,21.9101865 L15.3110889,21.9101865 C16.6830889,21.9128755 17.7975333,20.7908755 17.800106,19.4051 L17.800106,19.4048755 L17.800106,2.44916122 C17.8135333,1.11030408 16.7502,0.0136714286 15.4246444,-2.65181005e-05 L15.4244222,-2.65181005e-05 Z" id="Fill-1" fill="#20C9A7" mask="url(#mask-2)"></path>
            </g>
        </g>
    </g>
</svg>