<?xml version="1.0" encoding="UTF-8"?>
<svg width="22px" height="26px" viewBox="0 0 22 26" version="1.1" xmlns="http://www.w3.org/2000/svg" xmlns:xlink="http://www.w3.org/1999/xlink">
    <title>ic_settings_privacy_policy</title>
    <g id="version_4" stroke="none" stroke-width="1" fill="none" fill-rule="evenodd">
        <g id="ic_settings_privacy_policy" fill="#20C9A7">
            <path d="M9.66505482,14.6542077 C9.56237457,14.5310998 9.48338976,14.4230922 9.39112635,14.3279948 C8.76542932,13.6823699 8.14362429,13.0325954 7.5068236,12.3981516 C7.07710046,11.9699252 6.48620254,12.058798 6.21318984,12.5711713 C6.05167163,12.8743302 6.12836702,13.2572558 6.42656328,13.5651408 C7.29161862,14.45848 8.16033702,15.3481305 9.02745283,16.2391643 C9.49872884,16.723527 9.9424174,16.7291752 10.3951492,16.2342077 C11.1310815,15.4297414 11.8562536,14.6151313 12.5865769,13.8055931 C13.6054809,12.6760666 14.6241559,11.5465401 15.644777,10.4187426 C15.8753211,10.1639968 15.971591,9.87870464 15.8462455,9.54730462 C15.6216539,8.95320525 14.9188036,8.85903001 14.4566853,9.36575505 C13.4127122,10.510843 12.3741192,11.661118 11.3336947,12.809664 C10.7889285,13.4109101 10.245078,14.0130783 9.66505482,14.6542077 M21.9943541,7.54057666 C22.0207969,9.59537203 21.9616155,11.6487842 21.6609009,13.6851364 C21.4138731,15.3587353 21.0610743,17.0066291 20.281643,18.5273805 C19.732298,19.599157 18.9465709,20.4873091 18.0862088,21.3101033 C16.1847355,23.128596 14.0151716,24.5603593 11.7068693,25.796395 C11.2476127,26.0422649 10.8626476,26.0804192 10.3838166,25.8282094 C7.86797876,24.5028398 5.54651228,22.9141946 3.5242723,20.8931732 C2.09338812,19.4631389 1.22054878,17.7442391 0.773426092,15.7788929 C0.44077414,14.3168137 0.242625299,12.8395188 0.133992573,11.3449336 C-0.0334781106,9.04288498 -0.016994325,6.73991422 0.0389818639,4.4356755 C0.0427593981,4.28259751 0.0484829348,4.12802102 0.0729796719,3.97736369 C0.121171851,3.68181251 0.304782908,3.52446954 0.600804226,3.50925396 C1.19090086,3.47893806 1.78248561,3.46960123 2.37109412,3.42222543 C5.26949311,3.18868928 7.9131947,2.25719588 10.2288232,0.459336384 C11.0162674,-0.151938151 11.0242803,-0.153206116 11.8041694,0.456108836 C13.8228608,2.03345764 16.1191437,2.95607529 18.6405906,3.29992442 C19.497404,3.41680776 20.3670382,3.44124491 21.2318646,3.49230933 C21.8133759,3.5265444 21.9857688,3.67189932 21.9913779,4.25700767 C22.0016803,5.35137697 21.9943541,6.44597682 21.9943541,7.54057666" id="Fill-1"></path>
        </g>
    </g>
</svg>