<?xml version="1.0" encoding="UTF-8" standalone="no"?>
<svg
   id="svg"
   version="1.1"
   width="400"
   height="400"
   viewBox="0, 0, 400,400"
   sodipodi:docname="Bank-icon.svg"
   inkscape:version="1.1 (c68e22c387, 2021-05-23)"
   xmlns:inkscape="http://www.inkscape.org/namespaces/inkscape"
   xmlns:sodipodi="http://sodipodi.sourceforge.net/DTD/sodipodi-0.dtd"
   xmlns="http://www.w3.org/2000/svg"
   xmlns:svg="http://www.w3.org/2000/svg">
  <defs
     id="defs11" />
  <sodipodi:namedview
     id="namedview9"
     pagecolor="#ffffff"
     bordercolor="#666666"
     borderopacity="1.0"
     inkscape:pageshadow="2"
     inkscape:pageopacity="0.0"
     inkscape:pagecheckerboard="0"
     showgrid="false"
     inkscape:zoom="1.7776836"
     inkscape:cx="236.82505"
     inkscape:cy="170.16526"
     inkscape:window-width="1920"
     inkscape:window-height="1001"
     inkscape:window-x="-9"
     inkscape:window-y="-9"
     inkscape:window-maximized="1"
     inkscape:current-layer="svgg" />
  <g
     id="svgg"
     style="display:inline;stroke:none">
    <path
       style="display:inline;fill:#d4dee6;fill-opacity:1;stroke:none;stroke-width:0;stroke-linecap:butt;stroke-linejoin:miter;stroke-miterlimit:4;stroke-dasharray:none;stroke-opacity:1"
       d="m 81.144801,159.50522 c 0,0 -7.049726,7.49899 -7.647103,9.42712 -4.250492,1.6914 -5.797992,0.45658 -8.064758,2.35677 -1.040094,4.01815 -0.240527,10.48826 0.149161,11.43586 0.404865,0.95338 14.222899,-0.031 14.222899,-0.031 l -2.166,3.994 c 0,0 -11.56704,-0.58749 -12.083163,0.31767 -0.634294,1.53242 -0.90802,11.79198 0.07598,13.66861 3.494159,0.69087 19.391221,1.29274 19.391221,1.29274 l 0.795538,107.7953 -4.276013,6.06597 L 81.256,322 l 5.457562,6.95466 229.313618,1.78996 2.75882,-8.77362 -0.27277,-11.51258 -4.17657,-5.61848 0.39777,-102.57459 L 318.6,201.216 c 0,0 14,-0.236 16.27147,-0.74061 0.79528,-3.82375 0.47616,-12.96002 -0.39777,-14.02134 -3.43197,-0.70592 -12.67888,0.44749 -12.67888,0.44749 l 0.14917,-3.72908 c 0,0 10.81867,0.53557 12.67887,-0.24861 0.98625,-4.38062 0.397,-11.15357 -0.44749,-12.33083 -1.68272,-0.98567 -3.82211,-0.42136 -6.08014,-1.20659 -2.21273,-1.05408 -4.90822,-4.56105 -4.90822,-4.56105 L 200.0279,85.520256 Z"
       id="path35436"
       sodipodi:nodetypes="ccccccccccccccccccccccccccccc" />
    <path
       id="path0"
       d="m 322.901,185 c 0.004,0.88 0.086,1.193 0.182,0.695 0.096,-0.497 0.092,-1.217 -0.008,-1.6 -0.1,-0.382 -0.179,0.025 -0.174,0.905 M 118.08,199.28 c -0.281,0.281 -0.48,1.628 -0.48,3.247 0,2.504 -0.114,2.897 -1.2,4.134 l -1.2,1.367 0.028,48.286 c 0.016,26.557 0.176,48.646 0.357,49.086 0.468,1.137 0.728,0.237 0.911,-3.148 0.21,-3.896 0.108,-3.852 8.973,-3.852 8.402,0 7.638,0.428 7.829,-4.39 0.15,-3.81 -1.069,-3.597 20.625,-3.604 l 18.524,-0.006 1.676,-1.296 c 0.923,-0.713 1.767,-1.357 1.877,-1.433 0.11,-0.075 0.304,-10.697 0.432,-23.604 0.257,-26.038 0.229,-25.753 3.093,-30.854 4.917,-8.759 18.639,-13.742 28.097,-10.203 0.868,0.324 2.31,0.863 3.205,1.197 3.557,1.328 7.783,5.32 10.103,9.546 2.408,4.385 2.404,4.332 2.647,29.968 l 0.223,23.522 1.78,1.478 1.78,1.479 19.3,0.2 c 22.124,0.229 20.22,-0.189 20.526,4.506 l 0.214,3.294 7.533,0.2 c 8.673,0.23 8.667,0.227 8.667,3.844 0,2.333 0.304,3.463 0.842,3.13 0.208,-0.128 0.358,-20.687 0.358,-48.923 V 207.75 l -1.2,-1.15 c -1.113,-1.066 -1.2,-1.356 -1.2,-3.995 0,-1.679 -0.197,-3.042 -0.48,-3.325 -0.699,-0.699 -163.141,-0.699 -163.84,0 m -47.18,2.218 c 1.925,0.073 5.075,0.073 7,0 1.925,-0.073 0.35,-0.133 -3.5,-0.133 -3.85,0 -5.425,0.06 -3.5,0.133 m 250.78,0 c 1.914,0.073 5.154,0.073 7.2,0 2.046,-0.072 0.48,-0.132 -3.48,-0.133 -3.96,0 -5.634,0.059 -3.72,0.133 M 82.2,208.8 c 0.398,0.44 0.876,0.8 1.062,0.8 0.186,0 -0.022,-0.36 -0.462,-0.8 -0.44,-0.44 -0.918,-0.8 -1.062,-0.8 -0.144,0 0.064,0.36 0.462,0.8 m 77.171,13.829 c 0.828,0.827 0.971,50.469 0.149,51.291 -0.822,0.822 -29.359,0.675 -29.677,-0.153 -0.35,-0.911 -0.288,-50.281 0.063,-50.807 0.559,-0.836 1.55,-0.897 15.165,-0.928 11.924,-0.028 13.752,0.048 14.3,0.597 m 110.006,-0.238 1.029,0.391 -0.103,25.709 -0.103,25.709 -14.708,0.105 -14.708,0.105 -0.392,-1.031 c -0.728,-1.916 -0.511,-49.431 0.231,-50.49 0.686,-0.98 26.318,-1.424 28.754,-0.498"
       stroke="none"
       fill="#4d4c4c"
       fill-rule="evenodd"
       style="display:inline;stroke:none" />
    <path
       id="path2"
       d="m 117.9,198.832 c -0.561,0.327 -0.7,0.963 -0.7,3.21 0,2.581 -0.092,2.888 -1.163,3.881 -1.481,1.371 -1.354,-3.806 -1.291,52.59 0.049,43.531 0.113,47.935 0.694,48.158 0.969,0.372 1.347,-0.6 1.354,-3.482 0.01,-4.436 -0.082,-4.389 8.605,-4.389 8.451,0 7.917,0.26 8.201,-3.99 0.286,-4.279 -1.177,-3.997 20.774,-4.004 18.317,-0.006 18.587,-0.018 19.469,-0.846 2.379,-2.236 49.92,-2.249 52.298,-0.015 0.859,0.807 1.312,0.828 20.149,0.94 21.915,0.131 20.071,-0.246 20.396,4.162 0.292,3.958 -0.184,3.74 8.185,3.747 8.378,0.007 8.326,-0.016 8.334,3.735 0.007,3.029 0.313,4.271 1.052,4.271 1.302,0 1.355,-2.159 1.249,-50.88 l -0.106,-48.796 -1.1,-0.877 c -1.016,-0.81 -1.1,-1.096 -1.1,-3.739 0,-4.602 9.991,-4.11 -83.189,-4.096 -54.554,0.008 -81.642,0.147 -82.111,0.42 m 164.02,0.448 c 0.283,0.283 0.48,1.646 0.48,3.325 0,2.639 0.087,2.929 1.2,3.995 l 1.2,1.15 v 48.701 c 0,28.236 -0.15,48.795 -0.358,48.923 -0.538,0.333 -0.842,-0.797 -0.842,-3.13 0,-3.617 0.006,-3.614 -8.667,-3.844 l -7.533,-0.2 -0.214,-3.294 c -0.306,-4.695 1.598,-4.277 -20.526,-4.506 l -19.3,-0.2 -1.78,-1.479 -1.78,-1.478 -0.223,-23.522 c -0.243,-25.636 -0.239,-25.583 -2.647,-29.968 -2.32,-4.226 -6.546,-8.218 -10.103,-9.546 -0.895,-0.334 -2.337,-0.873 -3.205,-1.197 -9.458,-3.539 -23.18,1.444 -28.097,10.203 -2.864,5.101 -2.836,4.816 -3.093,30.854 -0.128,12.907 -0.322,23.529 -0.432,23.604 -0.11,0.076 -0.954,0.72 -1.877,1.433 l -1.676,1.296 -18.524,0.006 c -21.694,0.007 -20.475,-0.206 -20.625,3.604 -0.191,4.818 0.573,4.39 -7.829,4.39 -8.865,0 -8.763,-0.044 -8.973,3.852 -0.183,3.385 -0.443,4.285 -0.911,3.148 -0.181,-0.44 -0.341,-22.529 -0.357,-49.086 l -0.028,-48.286 1.2,-1.367 c 1.086,-1.237 1.2,-1.63 1.2,-4.134 0,-1.619 0.199,-2.966 0.48,-3.247 0.699,-0.699 163.141,-0.699 163.84,0 M 130.8,222.292 c -0.33,0.125 -0.732,0.426 -0.894,0.668 -0.351,0.526 -0.413,49.896 -0.063,50.807 0.318,0.828 28.855,0.975 29.677,0.153 0.822,-0.822 0.679,-50.464 -0.149,-51.291 -0.633,-0.634 -26.975,-0.945 -28.571,-0.337 m 109.823,0.597 c -0.742,1.059 -0.959,48.574 -0.231,50.49 l 0.392,1.031 14.708,-0.105 14.708,-0.105 0.103,-25.709 0.103,-25.709 -1.029,-0.391 c -2.436,-0.926 -28.068,-0.482 -28.754,0.498 m -97.813,3.521 c 1.185,1.185 1.067,42.685 -0.124,43.876 -0.923,0.922 -7.758,1.05 -8.825,0.165 -1.047,-0.869 -1.01,-43.808 0.039,-44.419 1.392,-0.811 8.002,-0.53 8.91,0.378 m 12.961,-0.181 c 1.1,1.099 0.937,43.063 -0.171,44.171 -1.293,1.293 -6.867,1.169 -8.218,-0.182 l -0.982,-0.982 v -20.929 c 0,-24.902 -0.483,-22.707 4.994,-22.707 2.875,0 3.895,0.147 4.377,0.629 m 97.098,0.033 c 0.994,0.9 1.149,42.613 0.163,43.962 -0.704,0.963 -7.796,1.172 -8.712,0.256 -0.899,-0.898 -0.964,-43.147 -0.068,-44.137 0.935,-1.034 7.496,-1.095 8.617,-0.081 m 13.735,0.289 c 1.013,1.546 0.713,42.704 -0.318,43.735 -0.923,0.922 -7.758,1.05 -8.825,0.165 -0.6,-0.498 -0.661,-2.54 -0.661,-22.077 v -21.529 l 0.889,-0.622 c 1.594,-1.117 8.127,-0.876 8.915,0.328 m -48.764,29.355 c 1.223,0.817 1.455,2.221 1.167,7.057 -0.375,6.301 -0.414,6.368 -3.603,6.165 -3.796,-0.242 -3.827,-0.297 -3.539,-6.268 0.297,-6.144 0.364,-6.295 3.033,-6.782 1.156,-0.21 2.192,-0.402 2.302,-0.424 0.11,-0.023 0.398,0.09 0.64,0.252"
       stroke="none"
       fill="#8f6b53"
       fill-rule="evenodd"
       style="stroke:none" />
    <path
       id="path3"
       d="m 198,82.36 c -0.55,0.394 -1.72,1.168 -2.6,1.719 -0.88,0.552 -2.95,1.884 -4.6,2.962 -1.65,1.077 -3.18,2.03 -3.4,2.117 -0.22,0.087 -1.12,0.645 -2,1.239 -0.88,0.595 -2.86,1.891 -4.4,2.88 -1.54,0.989 -4.42,2.846 -6.4,4.127 -1.98,1.28 -4.23,2.719 -5,3.198 -1.459,0.907 -3.098,1.975 -4.6,2.998 -1.997,1.361 -2.892,1.94 -4.697,3.042 -1.044,0.637 -3.909,2.463 -6.368,4.058 -2.459,1.595 -4.535,2.9 -4.612,2.9 -0.078,0 -2.252,1.376 -4.832,3.058 -8.696,5.67 -12.309,8 -17.791,11.472 -1.155,0.732 -2.614,1.677 -3.243,2.1 -0.628,0.424 -1.725,1.13 -2.438,1.57 -0.713,0.44 -1.819,1.144 -2.458,1.564 -0.638,0.42 -1.791,1.156 -2.561,1.634 -1.857,1.155 -6.709,4.275 -8.143,5.236 -0.628,0.421 -1.725,1.126 -2.438,1.566 -0.713,0.44 -1.819,1.144 -2.458,1.564 -0.638,0.42 -1.791,1.155 -2.561,1.632 -0.77,0.478 -2.812,1.799 -4.537,2.936 -1.726,1.138 -3.279,2.068 -3.451,2.068 -0.173,0 -0.549,0.283 -0.836,0.629 -0.287,0.346 -1.165,0.988 -1.949,1.427 -0.785,0.438 -2.062,1.19 -2.838,1.671 -0.776,0.48 -2.014,1.233 -2.75,1.673 -0.737,0.44 -1.838,1.205 -2.447,1.7 -0.609,0.495 -1.221,0.9 -1.359,0.9 -0.404,0 -4.313,2.757 -5.738,4.047 -1.366,1.237 -1.748,3.553 -0.586,3.553 0.296,0 0.427,0.18 0.291,0.4 -0.136,0.22 0.123,0.4 0.576,0.4 0.453,0 0.824,-0.156 0.824,-0.348 0,-0.191 0.655,-0.454 1.455,-0.583 0.8,-0.13 2.105,-0.668 2.9,-1.196 4.03,-2.676 7.451,-4.894 7.826,-5.073 0.23,-0.11 1.769,-1.082 3.419,-2.159 1.65,-1.078 3.63,-2.355 4.4,-2.839 2.907,-1.828 6.215,-3.981 6.6,-4.296 0.22,-0.18 1.3,-0.889 2.4,-1.577 1.1,-0.687 2.675,-1.672 3.5,-2.189 0.825,-0.517 2.175,-1.361 3,-1.876 0.825,-0.515 2.02,-1.28 2.656,-1.7 0.636,-0.42 1.442,-0.944 1.791,-1.164 0.348,-0.22 1.718,-1.127 3.043,-2.017 1.326,-0.889 3.289,-2.149 4.364,-2.8 1.075,-0.65 2.353,-1.453 2.841,-1.783 0.487,-0.33 1.408,-0.944 2.045,-1.364 1.084,-0.714 1.818,-1.177 5.66,-3.57 1.672,-1.042 5.388,-3.43 10.5,-6.749 1.87,-1.214 4.811,-3.087 6.536,-4.162 1.725,-1.075 4.583,-2.9 6.353,-4.055 1.769,-1.155 3.302,-2.1 3.406,-2.1 0.104,0 0.688,-0.405 1.297,-0.9 0.609,-0.495 1.71,-1.26 2.447,-1.7 1.692,-1.011 3.551,-2.183 5.018,-3.164 0.629,-0.42 1.773,-1.156 2.543,-1.634 1.857,-1.155 6.709,-4.275 8.143,-5.236 0.628,-0.421 1.725,-1.126 2.438,-1.566 0.713,-0.44 1.729,-1.09 2.258,-1.445 0.528,-0.355 2.364,-1.525 4.079,-2.6 1.715,-1.075 4.595,-2.926 6.4,-4.113 3.954,-2.601 5.774,-2.963 7.85,-1.564 0.752,0.507 1.652,1.105 2,1.328 0.348,0.224 1.442,0.93 2.432,1.57 0.99,0.64 2.97,1.913 4.4,2.828 1.43,0.915 3.12,2.008 3.756,2.43 0.636,0.421 1.446,0.945 1.8,1.163 0.658,0.405 5.386,3.421 10.044,6.405 1.43,0.916 3.114,2.01 3.743,2.432 0.628,0.421 1.725,1.126 2.438,1.566 0.713,0.44 1.774,1.115 2.358,1.5 0.583,0.385 1.539,1.015 2.122,1.4 1.437,0.948 3.64,2.28 5.366,3.244 0.784,0.439 1.662,1.081 1.949,1.427 0.287,0.346 0.663,0.629 0.836,0.629 0.172,0 1.725,0.93 3.451,2.068 1.725,1.137 3.812,2.487 4.637,3 3.609,2.243 4.567,2.849 5.643,3.568 0.628,0.42 1.725,1.124 2.438,1.564 0.713,0.44 1.819,1.145 2.458,1.566 1.917,1.265 6.229,4.028 8.361,5.356 1.1,0.686 2.54,1.623 3.2,2.082 0.66,0.459 2.37,1.573 3.8,2.476 5.559,3.509 7.056,4.47 8.6,5.518 0.88,0.597 1.78,1.157 2,1.244 0.22,0.087 1.75,1.042 3.4,2.123 1.65,1.081 3.81,2.47 4.8,3.085 0.99,0.616 2.077,1.389 2.416,1.717 0.339,0.328 0.969,0.74 1.4,0.915 0.431,0.175 2.134,1.2 3.784,2.277 1.65,1.078 3.63,2.356 4.4,2.841 0.77,0.485 2.75,1.763 4.4,2.841 1.65,1.077 3.18,2.032 3.4,2.121 0.22,0.089 0.94,0.571 1.6,1.07 0.66,0.499 1.74,0.966 2.4,1.038 0.66,0.071 1.425,0.4 1.7,0.73 0.441,0.53 0.563,0.519 1.04,-0.094 0.296,-0.381 0.666,-0.567 0.821,-0.411 0.156,0.155 0.434,0.036 0.62,-0.264 0.54,-0.874 -0.306,-2.539 -1.904,-3.748 -2.947,-2.229 -4.489,-3.305 -6.365,-4.441 -1.84,-1.115 -2.827,-1.753 -4.705,-3.042 -0.742,-0.51 -3.68,-2.332 -6.133,-3.805 -0.371,-0.223 -2.024,-1.287 -3.674,-2.365 -1.65,-1.079 -3.81,-2.458 -4.8,-3.066 -0.99,-0.607 -2.101,-1.374 -2.47,-1.704 -0.368,-0.33 -1.088,-0.813 -1.6,-1.075 -0.511,-0.261 -2.19,-1.295 -3.73,-2.296 -1.54,-1.001 -3.43,-2.211 -4.2,-2.689 -2.022,-1.254 -7.816,-5.008 -10.546,-6.832 -1.291,-0.862 -2.641,-1.743 -3,-1.956 -0.36,-0.214 -1.374,-0.841 -2.254,-1.394 -0.88,-0.553 -1.891,-1.188 -2.247,-1.412 -0.356,-0.223 -1.166,-0.75 -1.8,-1.17 -0.634,-0.42 -1.828,-1.185 -2.653,-1.7 -3.301,-2.06 -4.633,-2.901 -7.7,-4.864 -1.76,-1.126 -3.74,-2.42 -4.4,-2.875 -0.66,-0.456 -2.1,-1.388 -3.2,-2.073 -1.1,-0.684 -2.63,-1.636 -3.4,-2.115 -3.049,-1.896 -4.698,-2.953 -6.94,-4.448 -4.271,-2.85 -5.647,-3.727 -7.087,-4.518 -0.784,-0.432 -1.662,-1.068 -1.949,-1.414 -0.287,-0.346 -0.698,-0.629 -0.914,-0.629 -0.216,0 -2.219,-1.201 -4.451,-2.669 -2.232,-1.468 -5.049,-3.296 -6.259,-4.061 -1.21,-0.765 -2.895,-1.853 -3.745,-2.416 -0.849,-0.564 -1.861,-1.211 -2.247,-1.439 -0.386,-0.228 -1.221,-0.761 -1.855,-1.185 -1.109,-0.74 -2.475,-1.613 -7.461,-4.769 C 200.535,81.442 199.485,81.297 198,82.36 M 79.805,182.694 c -2.063,0.214 -2.605,0.702 -2.605,2.343 v 1.338 l -4.9,0.126 -4.9,0.126 5.23,0.087 c 4.999,0.082 5.272,0.13 6.164,1.079 l 0.933,0.994 120.269,0.004 120.27,0.004 0.937,-0.998 c 0.896,-0.954 1.162,-1.001 6.167,-1.083 l 5.23,-0.087 -4.9,-0.126 -4.9,-0.126 v -1.216 c 0,-2.81 11.933,-2.555 -121.371,-2.595 -66.016,-0.02 -120.747,0.039 -121.624,0.13 m 37.795,15.409 c -0.821,0.247 -8.241,0.52 -17.932,0.659 L 83.135,199 l -0.727,1 -0.727,1 -7.203,-0.2 c -3.962,-0.11 -7.12,-0.065 -7.017,0.1 0.102,0.165 3.225,0.3 6.939,0.3 3.714,0 6.835,0.135 6.936,0.3 0.101,0.165 0.239,1.56 0.307,3.1 0.133,2.999 0.889,4.788 1.867,4.413 0.325,-0.125 0.815,-0.041 1.088,0.185 0.62,0.515 1.268,-0.188 1.464,-1.588 0.26,-1.863 1.219,-1.998 14.138,-1.998 6.874,0 12.256,0.162 12.6,0.38 1.085,0.685 0.888,100.659 -0.2,101.465 -1.422,1.053 -25.244,0.623 -26.136,-0.473 -0.611,-0.75 -4.344,-1.233 -4.514,-0.584 -0.466,1.78 -0.818,9.2 -0.437,9.2 0.18,0 0.505,-0.178 0.723,-0.396 0.245,-0.245 6.928,-0.435 17.58,-0.5 L 117,314.6 117.31,308 c 0.433,-9.216 -0.354,-8.4 8.101,-8.4 8.566,0 9.389,-0.259 9.389,-2.951 0,-1.359 0.51,-3.713 0.939,-4.338 0.424,-0.616 78.311,-0.919 108.994,-0.423 22.045,0.356 20.467,0.051 20.467,3.959 0,3.52 0.572,3.753 9.205,3.753 5.201,0 7.202,0.134 7.492,0.5 0.45,0.571 0.972,6.088 1.05,11.1 l 0.053,3.4 17.4,0.2 c 9.57,0.11 17.625,0.346 17.9,0.524 0.388,0.251 0.5,-0.576 0.5,-3.7 0,-2.253 -0.166,-4.024 -0.377,-4.024 -0.207,0 -0.315,-0.322 -0.239,-0.715 0.115,-0.596 -0.088,-0.689 -1.219,-0.557 -0.958,0.112 -1.426,-0.022 -1.593,-0.456 -0.186,-0.485 -0.473,-0.348 -1.37,0.657 l -1.135,1.271 -12.334,0.125 c -10.405,0.105 -12.458,0.032 -13.133,-0.468 -1.043,-0.772 -1.289,-99.944 -0.251,-101.195 0.489,-0.589 1.871,-0.661 12.6,-0.656 12.971,0.006 13.929,0.142 14.189,2.004 0.237,1.695 0.794,2.053 1.983,1.275 0.577,-0.377 0.909,-0.46 0.74,-0.185 -0.178,0.289 -0.114,0.5 0.153,0.5 0.253,0 0.555,-0.358 0.669,-0.796 0.114,-0.437 0.365,-0.698 0.558,-0.579 0.192,0.119 0.242,-0.065 0.11,-0.409 -0.132,-0.345 -0.023,-0.888 0.242,-1.208 0.291,-0.351 0.428,-1.455 0.345,-2.786 l -0.138,-2.206 7,-0.118 7,-0.118 -7.251,-0.09 c -7.028,-0.087 -7.27,-0.118 -7.849,-0.99 l -0.597,-0.9 -16.551,-0.23 c -10.596,-0.148 -17.128,-0.396 -18.152,-0.691 -2.173,-0.625 -162.522,-0.601 -164.6,0.024 m 164.711,0.92 c 0.778,0.544 0.889,0.98 0.889,3.485 0,2.643 0.084,2.929 1.1,3.739 l 1.1,0.877 0.106,48.796 c 0.106,48.721 0.053,50.88 -1.249,50.88 -0.739,0 -1.045,-1.242 -1.052,-4.271 -0.008,-3.751 0.044,-3.728 -8.334,-3.735 -8.369,-0.007 -7.893,0.211 -8.185,-3.747 -0.325,-4.408 1.519,-4.031 -20.396,-4.162 -18.837,-0.112 -19.29,-0.133 -20.149,-0.94 -2.378,-2.234 -49.919,-2.221 -52.298,0.015 -0.882,0.828 -1.152,0.84 -19.469,0.846 -21.951,0.007 -20.488,-0.275 -20.774,4.004 -0.284,4.25 0.25,3.99 -8.201,3.99 -8.687,0 -8.595,-0.047 -8.605,4.389 -0.007,2.882 -0.385,3.854 -1.354,3.482 -0.581,-0.223 -0.645,-4.627 -0.694,-48.158 -0.063,-56.396 -0.19,-51.219 1.291,-52.59 1.071,-0.993 1.163,-1.3 1.163,-3.881 0,-2.247 0.139,-2.883 0.7,-3.21 1.301,-0.758 163.325,-0.57 164.411,0.191 M 133.9,226.032 c -1.049,0.611 -1.086,43.55 -0.039,44.419 1.067,0.885 7.902,0.757 8.825,-0.165 1.191,-1.191 1.309,-42.691 0.124,-43.876 -0.908,-0.908 -7.518,-1.189 -8.91,-0.378 m 13.123,0.457 c -0.545,0.777 -0.623,3.523 -0.623,21.818 v 20.929 l 0.982,0.982 c 1.351,1.351 6.925,1.475 8.218,0.182 1.108,-1.108 1.271,-43.072 0.171,-44.171 -1.096,-1.097 -7.941,-0.893 -8.748,0.26 m 97.229,-0.146 c -0.896,0.99 -0.831,43.239 0.068,44.137 0.916,0.916 8.008,0.707 8.712,-0.256 0.986,-1.349 0.831,-43.062 -0.163,-43.962 -1.121,-1.014 -7.682,-0.953 -8.617,0.081 m 13.437,-0.12 -0.889,0.622 v 21.529 c 0,25.096 -0.551,22.626 5.047,22.626 5.678,0 5.133,2.324 5.267,-22.463 0.135,-25.107 0.593,-22.937 -4.834,-22.937 -2.703,0 -3.942,0.168 -4.591,0.623 m -115.918,0.806 c 0.808,0.807 0.965,40.195 0.168,41.946 -0.77,1.69 -6.252,1.946 -7.439,0.346 -0.899,-1.212 -0.708,-41.96 0.2,-42.489 1.165,-0.678 6.34,-0.535 7.071,0.197 m 13.349,-0.149 c 0.597,0.597 0.687,41.773 0.094,42.711 -0.585,0.926 -6.066,1.1 -6.945,0.221 -0.881,-0.881 -1.045,-42.794 -0.169,-43.147 1.055,-0.426 6.548,-0.257 7.02,0.215 m 97.276,0.313 c 0.288,0.538 0.389,7.437 0.315,21.433 -0.128,23.724 0.241,21.774 -4.111,21.774 -4.352,0 -3.983,1.95 -4.111,-21.774 -0.129,-24.158 -0.486,-22.226 4.111,-22.226 2.953,0 3.425,0.099 3.796,0.793 m 12.83,-0.379 c 1.058,0.566 1.229,41.91 0.178,42.783 -1.139,0.945 -5.474,1.001 -6.604,0.085 l -1,-0.811 -0.111,-20.289 c -0.13,-23.861 -0.429,-22.182 3.947,-22.182 1.549,0 3.165,0.186 3.59,0.414 m -50.328,29.264 c -2.669,0.487 -2.736,0.638 -3.033,6.782 -0.288,5.971 -0.257,6.026 3.539,6.268 3.189,0.203 3.228,0.136 3.603,-6.165 0.309,-5.188 -0.293,-7.623 -1.807,-7.309 -0.11,0.022 -1.146,0.214 -2.302,0.424 m 3.179,1.732 c 0.346,0.758 0.347,1.619 0.006,3.452 -0.545,2.93 -0.653,3.07 -1.67,2.15 -0.549,-0.497 -1.147,-0.645 -1.953,-0.484 -1.21,0.242 -1.641,-0.703 -1.656,-3.628 -0.011,-2.383 4.31,-3.604 5.273,-1.49 m -133.51,46.845 c 0.042,0.287 0.231,0.662 0.419,0.833 0.188,0.172 0.213,0.087 0.055,-0.188 -0.159,-0.275 -0.098,-0.5 0.135,-0.5 0.233,0 0.424,-0.15 0.424,-0.333 0,-0.184 -0.25,-0.334 -0.555,-0.334 -0.305,0 -0.52,0.235 -0.478,0.522"
       stroke="none"
       fill="#92969a"
       fill-rule="evenodd"
       style="stroke:none" />
    <path
       id="path4"
       d="m 196.8,81.502 c -3.339,2.166 -7.388,4.737 -9.325,5.921 -1.058,0.647 -2.408,1.546 -3,1.996 -0.591,0.451 -2.335,1.586 -3.875,2.522 -1.54,0.937 -4.15,2.598 -5.8,3.691 -1.65,1.093 -3.515,2.298 -4.145,2.678 -0.629,0.379 -2.429,1.515 -4,2.523 -1.57,1.008 -3.935,2.52 -5.255,3.36 -1.32,0.841 -3.456,2.221 -4.746,3.068 -1.29,0.846 -2.419,1.539 -2.509,1.539 -0.09,0 -1.465,0.874 -3.054,1.942 -1.59,1.068 -3.791,2.502 -4.891,3.185 -1.1,0.683 -2.54,1.618 -3.2,2.077 -0.66,0.459 -2.37,1.573 -3.8,2.476 -3.342,2.11 -6.166,3.917 -10.4,6.654 -1.87,1.209 -4.03,2.591 -4.8,3.071 -2.087,1.302 -5.365,3.391 -9.4,5.989 -1.98,1.275 -4.5,2.892 -5.6,3.593 -1.1,0.7 -2.519,1.62 -3.153,2.043 -0.634,0.424 -1.469,0.957 -1.855,1.185 -0.386,0.228 -1.398,0.875 -2.247,1.439 -0.85,0.563 -2.535,1.651 -3.745,2.416 -1.21,0.765 -4.027,2.593 -6.259,4.061 -2.232,1.468 -4.184,2.669 -4.337,2.669 -0.153,0 -0.756,0.372 -1.341,0.827 -0.585,0.455 -2.593,1.8 -4.463,2.988 -7.623,4.845 -8.931,6.001 -9.017,7.972 -0.02,0.469 -0.147,1.031 -0.281,1.247 -0.134,0.217 0.071,0.395 0.456,0.395 0.501,0 0.651,-0.246 0.532,-0.87 -0.116,-0.607 0.238,-1.236 1.172,-2.082 1.451,-1.313 5.362,-4.077 5.771,-4.077 0.138,0 0.75,-0.405 1.359,-0.9 0.609,-0.495 1.71,-1.26 2.447,-1.7 0.736,-0.44 1.974,-1.193 2.75,-1.673 0.776,-0.481 2.053,-1.233 2.838,-1.671 0.784,-0.439 1.662,-1.081 1.949,-1.427 0.287,-0.346 0.663,-0.629 0.836,-0.629 0.172,0 1.725,-0.93 3.451,-2.068 1.725,-1.137 3.767,-2.458 4.537,-2.936 0.77,-0.477 1.923,-1.212 2.561,-1.632 0.639,-0.42 1.745,-1.124 2.458,-1.564 0.713,-0.44 1.81,-1.145 2.438,-1.566 1.434,-0.961 6.286,-4.081 8.143,-5.236 0.77,-0.478 1.923,-1.214 2.561,-1.634 0.639,-0.42 1.745,-1.124 2.458,-1.564 0.713,-0.44 1.81,-1.146 2.438,-1.57 0.629,-0.423 2.043,-1.338 3.143,-2.033 4.727,-2.988 9.192,-5.867 17.891,-11.539 2.58,-1.682 4.754,-3.058 4.832,-3.058 0.077,0 2.153,-1.305 4.612,-2.9 2.459,-1.595 5.324,-3.421 6.368,-4.058 1.805,-1.102 2.7,-1.681 4.697,-3.042 1.502,-1.023 3.141,-2.091 4.6,-2.998 0.77,-0.479 3.02,-1.918 5,-3.198 1.98,-1.281 4.86,-3.138 6.4,-4.127 1.54,-0.989 3.52,-2.285 4.4,-2.88 0.88,-0.594 1.78,-1.152 2,-1.239 0.22,-0.087 1.75,-1.04 3.4,-2.117 1.65,-1.078 3.72,-2.411 4.6,-2.963 0.88,-0.552 2.088,-1.335 2.684,-1.741 1.546,-1.051 2.398,-0.928 5.008,0.724 4.986,3.156 6.352,4.029 7.461,4.769 0.634,0.424 1.469,0.957 1.855,1.185 0.386,0.228 1.398,0.875 2.247,1.439 0.85,0.563 2.535,1.651 3.745,2.416 1.21,0.765 4.027,2.593 6.259,4.061 2.232,1.468 4.235,2.669 4.451,2.669 0.216,0 0.627,0.283 0.914,0.629 0.287,0.346 1.165,0.982 1.949,1.414 1.44,0.791 2.816,1.668 7.087,4.518 1.287,0.858 2.97,1.952 3.74,2.43 0.77,0.479 2.12,1.325 3,1.88 0.88,0.555 2.5,1.569 3.6,2.253 1.1,0.685 2.54,1.617 3.2,2.073 1.606,1.108 8.391,5.45 12.2,7.808 0.77,0.477 1.919,1.211 2.553,1.631 0.634,0.42 1.444,0.947 1.8,1.17 0.356,0.224 1.367,0.859 2.247,1.412 0.88,0.553 1.894,1.18 2.254,1.394 0.359,0.213 1.709,1.094 3,1.956 2.73,1.824 8.524,5.578 10.546,6.832 0.77,0.478 2.66,1.688 4.2,2.689 1.54,1.001 3.219,2.035 3.73,2.296 0.512,0.262 1.232,0.745 1.6,1.075 0.369,0.33 1.48,1.097 2.47,1.704 0.99,0.608 3.15,1.987 4.8,3.066 1.65,1.078 3.303,2.142 3.674,2.365 2.453,1.473 5.391,3.295 6.133,3.805 1.878,1.289 2.865,1.927 4.705,3.042 1.876,1.136 3.418,2.212 6.365,4.441 1.294,0.979 2.533,2.974 2.109,3.397 -0.081,0.082 0.338,0.167 0.933,0.19 0.595,0.022 0.766,-0.042 0.381,-0.144 -0.385,-0.102 -0.7,-0.54 -0.7,-0.975 0,-2.047 -2.301,-4.425 -7.077,-7.315 -1.058,-0.64 -3.363,-2.097 -5.123,-3.238 -4.584,-2.971 -7.211,-4.642 -10.4,-6.617 -1.54,-0.953 -3.284,-2.104 -3.875,-2.557 -0.592,-0.453 -1.942,-1.344 -3,-1.98 -2.297,-1.38 -4.305,-2.637 -5.878,-3.68 -0.634,-0.42 -1.444,-0.946 -1.8,-1.169 -0.356,-0.223 -1.187,-0.752 -1.847,-1.176 -0.66,-0.425 -2.73,-1.755 -4.6,-2.957 -1.87,-1.201 -4.84,-3.116 -6.6,-4.255 -1.76,-1.139 -4.19,-2.702 -5.4,-3.473 -5.144,-3.277 -7.08,-4.506 -8.4,-5.331 -0.77,-0.482 -2.8,-1.805 -4.512,-2.94 -1.711,-1.134 -3.207,-2.063 -3.323,-2.063 -0.116,0 -1.326,-0.772 -2.688,-1.717 -1.362,-0.944 -3.356,-2.249 -4.431,-2.9 -1.075,-0.65 -2.353,-1.453 -2.841,-1.783 -2.285,-1.547 -3.009,-2.018 -5.914,-3.845 -4.805,-3.021 -8.987,-5.685 -12.491,-7.957 -1.76,-1.14 -4.28,-2.76 -5.6,-3.598 -6.141,-3.899 -12.651,-8.109 -16.6,-10.735 -3.899,-2.593 -5.792,-2.855 -8.4,-1.163 m 1.634,6.785 c -0.312,0.123 -1.969,1.144 -3.683,2.268 -1.713,1.125 -4.518,2.925 -6.233,4 -1.715,1.075 -3.551,2.245 -4.079,2.6 -0.529,0.355 -1.545,1.005 -2.258,1.445 -0.713,0.44 -1.81,1.145 -2.438,1.566 -1.434,0.961 -6.286,4.081 -8.143,5.236 -0.77,0.478 -1.914,1.214 -2.543,1.634 -1.467,0.981 -3.326,2.153 -5.018,3.164 -0.737,0.44 -1.838,1.205 -2.447,1.7 -0.609,0.495 -1.193,0.9 -1.297,0.9 -0.104,0 -1.637,0.945 -3.406,2.1 -1.77,1.155 -4.628,2.98 -6.353,4.055 -1.725,1.075 -4.666,2.948 -6.536,4.162 -5.322,3.455 -8.877,5.738 -10.4,6.679 -3.46,2.138 -5.581,3.498 -7.805,5.004 -0.488,0.33 -1.766,1.133 -2.841,1.783 -1.075,0.651 -3.038,1.911 -4.364,2.8 -1.325,0.89 -2.695,1.797 -3.043,2.017 -0.349,0.22 -1.155,0.744 -1.791,1.164 -0.636,0.42 -1.831,1.185 -2.656,1.7 -0.825,0.515 -2.175,1.359 -3,1.876 -0.825,0.517 -2.4,1.502 -3.5,2.189 -1.1,0.688 -2.18,1.397 -2.4,1.577 -0.385,0.315 -3.693,2.468 -6.6,4.296 -0.77,0.484 -2.75,1.761 -4.4,2.839 -1.65,1.077 -3.189,2.049 -3.419,2.159 -0.375,0.179 -3.796,2.397 -7.826,5.073 -0.795,0.528 -2.1,1.066 -2.9,1.196 -0.8,0.129 -1.455,0.392 -1.455,0.583 0,0.192 -0.371,0.348 -0.824,0.348 -0.453,0 -0.712,-0.18 -0.576,-0.4 0.136,-0.22 0.076,-0.4 -0.134,-0.4 -0.56,0 -0.87,1.058 -0.328,1.119 3.932,0.445 4.613,0.209 10.662,-3.696 1.87,-1.207 4.042,-2.548 4.827,-2.979 0.784,-0.432 1.662,-1.069 1.949,-1.415 0.287,-0.346 0.69,-0.629 0.896,-0.629 0.206,0 1.489,-0.772 2.851,-1.717 1.362,-0.944 3.356,-2.249 4.431,-2.9 1.075,-0.65 2.353,-1.453 2.841,-1.783 1.558,-1.055 3.166,-2.104 4.605,-3.003 0.77,-0.482 2.39,-1.506 3.6,-2.276 1.21,-0.77 3.37,-2.138 4.8,-3.041 1.43,-0.903 3.14,-2.017 3.8,-2.476 0.66,-0.459 2.1,-1.398 3.2,-2.085 2.923,-1.827 5.762,-3.647 7.741,-4.962 0.957,-0.636 2.217,-1.432 2.8,-1.769 0.582,-0.337 2.409,-1.488 4.059,-2.559 1.65,-1.071 3.63,-2.343 4.4,-2.827 3.017,-1.897 5.975,-3.791 10,-6.404 2.31,-1.499 5.01,-3.23 6,-3.846 0.99,-0.617 2.34,-1.497 3,-1.957 1.344,-0.936 6.133,-3.98 11.006,-6.995 1.778,-1.1 3.845,-2.45 4.593,-3 0.748,-0.55 2.117,-1.45 3.041,-2 0.924,-0.55 3.9,-2.44 6.614,-4.2 2.713,-1.76 6.223,-4.01 7.799,-5 1.576,-0.99 3.603,-2.292 4.506,-2.893 2.043,-1.36 2.409,-1.363 4.419,-0.038 0.892,0.588 2.252,1.461 3.022,1.94 1.86,1.156 5.598,3.532 8.8,5.596 1.43,0.922 3.59,2.306 4.8,3.076 1.21,0.77 4.664,3.002 7.677,4.959 3.012,1.958 6.941,4.46 8.731,5.56 1.791,1.1 3.736,2.378 4.324,2.841 0.587,0.462 1.518,1.076 2.068,1.365 0.55,0.289 2.53,1.513 4.4,2.721 1.87,1.209 4.39,2.826 5.6,3.596 1.21,0.769 2.895,1.86 3.745,2.423 0.849,0.564 1.861,1.211 2.247,1.439 0.386,0.228 1.221,0.759 1.855,1.179 1.15,0.762 2.167,1.404 5.953,3.76 1.1,0.685 2.54,1.625 3.2,2.089 1.049,0.739 4.402,2.892 9,5.78 0.77,0.483 1.914,1.223 2.543,1.643 0.628,0.42 1.725,1.124 2.438,1.564 0.713,0.44 1.819,1.144 2.458,1.564 0.638,0.42 1.791,1.156 2.561,1.634 0.77,0.479 2.75,1.74 4.4,2.802 1.65,1.062 3.675,2.352 4.5,2.866 0.825,0.514 2.24,1.422 3.145,2.019 0.904,0.597 1.961,1.272 2.347,1.5 0.386,0.228 1.221,0.763 1.855,1.189 1.42,0.954 9.767,6.359 11.953,7.74 0.88,0.556 2.06,1.323 2.623,1.703 2.567,1.738 4.643,2.384 6.53,2.031 1.002,-0.187 1.917,-0.244 2.034,-0.127 0.117,0.117 0.213,0.105 0.213,-0.026 0,-0.919 -1.312,-1.496 -1.844,-0.811 -0.49,0.631 -0.615,0.645 -1.056,0.116 -0.275,-0.33 -1.04,-0.659 -1.7,-0.73 -0.66,-0.072 -1.74,-0.539 -2.4,-1.038 -0.66,-0.499 -1.38,-0.981 -1.6,-1.07 -0.22,-0.089 -1.75,-1.044 -3.4,-2.121 -1.65,-1.078 -3.63,-2.356 -4.4,-2.841 -0.77,-0.485 -2.75,-1.763 -4.4,-2.841 -1.65,-1.077 -3.353,-2.102 -3.784,-2.277 -0.431,-0.175 -1.061,-0.587 -1.4,-0.915 -0.339,-0.328 -1.426,-1.101 -2.416,-1.717 -0.99,-0.615 -3.15,-2.004 -4.8,-3.085 -1.65,-1.081 -3.18,-2.036 -3.4,-2.123 -0.22,-0.087 -1.12,-0.647 -2,-1.244 -1.544,-1.048 -3.041,-2.009 -8.6,-5.518 -1.43,-0.903 -3.14,-2.017 -3.8,-2.476 -0.66,-0.459 -2.1,-1.396 -3.2,-2.082 -2.132,-1.328 -6.444,-4.091 -8.361,-5.356 -0.639,-0.421 -1.745,-1.126 -2.458,-1.566 -0.713,-0.44 -1.81,-1.144 -2.438,-1.564 -1.076,-0.719 -2.034,-1.325 -5.643,-3.568 -0.825,-0.513 -2.912,-1.863 -4.637,-3 -1.726,-1.138 -3.279,-2.068 -3.451,-2.068 -0.173,0 -0.549,-0.283 -0.836,-0.629 -0.287,-0.346 -1.165,-0.988 -1.949,-1.427 -1.726,-0.964 -3.929,-2.296 -5.366,-3.244 -0.583,-0.385 -1.539,-1.015 -2.122,-1.4 -0.584,-0.385 -1.645,-1.06 -2.358,-1.5 -0.713,-0.44 -1.81,-1.145 -2.438,-1.566 -0.629,-0.422 -2.313,-1.516 -3.743,-2.432 -4.658,-2.984 -9.386,-6 -10.044,-6.405 -0.354,-0.218 -1.164,-0.742 -1.8,-1.163 -0.636,-0.422 -2.326,-1.515 -3.756,-2.43 -1.43,-0.915 -3.41,-2.188 -4.4,-2.828 -0.99,-0.64 -2.084,-1.346 -2.432,-1.57 -0.348,-0.223 -1.248,-0.81 -2,-1.305 -1.298,-0.852 -3.09,-1.106 -4.334,-0.614 m 51.818,9.104 c 0.128,0.335 0.484,0.609 0.791,0.609 0.781,0 0.693,-0.299 -0.234,-0.795 -0.645,-0.346 -0.748,-0.311 -0.557,0.186 m -52.257,4.758 c -0.767,0.523 -3.465,2.293 -5.995,3.935 -5.249,3.406 -5.424,3.521 -11.753,7.746 -0.634,0.424 -1.451,0.95 -1.815,1.17 -0.364,0.22 -1.645,1.076 -2.847,1.903 -2.826,1.944 -3.154,2.162 -9.785,6.495 -3.08,2.013 -6.119,4.007 -6.753,4.431 -0.634,0.424 -1.448,0.951 -1.808,1.171 -1.16,0.708 -17.812,11.755 -21.039,13.958 -0.44,0.3 -3.41,2.242 -6.6,4.315 -3.19,2.072 -6.317,4.119 -6.95,4.548 -0.632,0.428 -1.829,1.229 -2.66,1.779 -0.831,0.55 -2.564,1.706 -3.85,2.569 -1.287,0.863 -4.32,2.858 -6.74,4.432 -2.42,1.574 -4.85,3.156 -5.4,3.516 -0.55,0.359 -2.053,1.38 -3.34,2.268 -1.288,0.888 -2.475,1.615 -2.638,1.615 -0.164,0 -0.609,0.344 -0.989,0.763 -0.38,0.42 -1.184,0.968 -1.786,1.217 -1.129,0.468 -2.624,2.51 -2.17,2.964 0.444,0.444 213.648,0.301 213.923,-0.143 0.489,-0.793 -1.006,-2.114 -6.482,-5.726 -3.064,-2.021 -7.81,-5.164 -10.545,-6.983 -6.053,-4.027 -5.93,-3.946 -11.373,-7.481 -3.767,-2.447 -23.63,-15.54 -26.6,-17.533 -3.391,-2.277 -5.948,-3.964 -10.2,-6.731 -2.64,-1.718 -5.34,-3.489 -6,-3.936 -1.267,-0.858 -13.233,-8.728 -14.308,-9.411 -0.347,-0.22 -2.399,-1.59 -4.561,-3.044 -16.706,-11.237 -16.778,-11.275 -18.936,-9.807 m 5.91,9.151 c 0.221,0.275 0.526,1.075 0.676,1.779 0.231,1.081 0.738,1.533 3.281,2.929 8.328,4.571 11.452,12.895 5.057,13.475 -3.722,0.337 -4.34,0.049 -6.177,-2.881 -3.864,-6.163 -12.731,-5.111 -13.826,1.641 -0.559,3.44 3,6.273 8.461,6.735 2.039,0.173 3.943,0.619 5.312,1.246 1.174,0.537 2.278,0.976 2.452,0.976 0.815,0 4.997,4.697 6.065,6.811 3.329,6.596 -0.039,14.626 -7.705,18.364 -2.014,0.983 -2.432,1.481 -3.457,4.125 -0.419,1.079 -0.492,1.1 -3.786,1.1 -3.692,0 -3.912,-0.118 -4.743,-2.556 -0.513,-1.504 -1.086,-1.969 -4.058,-3.29 -2.213,-0.984 -5.385,-4.364 -6.714,-7.154 -2.002,-4.206 -1.43,-5.467 2.598,-5.724 3.816,-0.243 4.428,0.012 5.887,2.452 3.246,5.427 10.567,5.752 13.212,0.588 2.162,-4.222 -0.663,-7.913 -6.487,-8.473 -17.351,-1.668 -22.443,-19.954 -7.644,-27.452 3.028,-1.534 3.276,-1.777 3.285,-3.211 0.003,-0.561 0.222,-1.236 0.486,-1.5 0.667,-0.667 7.285,-0.65 7.825,0.02 m -104.749,18 c -0.47,0.895 -0.468,0.896 0.386,0.138 0.953,-0.847 1.04,-1.038 0.472,-1.038 -0.212,0 -0.598,0.405 -0.858,0.9 m 235.794,29.3 c 0.001,2.42 0.066,3.358 0.146,2.085 0.08,-1.273 0.079,-3.253 -0.002,-4.4 -0.08,-1.147 -0.145,-0.105 -0.144,2.315 m -0.026,18.4 c 0.002,1.32 0.077,1.812 0.166,1.093 0.089,-0.719 0.087,-1.799 -0.004,-2.4 -0.091,-0.601 -0.164,-0.013 -0.162,1.307 m -254.991,4.673 c -0.807,0.215 -1.797,0.778 -2.2,1.252 -0.715,0.84 -0.714,0.847 0.028,0.268 1.051,-0.818 243.866,-0.911 244.139,-0.093 0.092,0.275 0.446,0.5 0.787,0.5 1.045,0 -1.119,-1.46 -2.893,-1.953 -2.097,-0.582 -237.673,-0.556 -239.861,0.026 m -1.986,6.171 c 0.17,0.636 0.746,1.378 1.281,1.65 1.254,0.637 240.379,0.744 241.568,0.108 0.77,-0.412 2.172,-2.802 1.643,-2.802 -0.165,0 -0.721,0.449 -1.236,0.997 l -0.937,0.998 -120.218,-0.004 -120.218,-0.004 -1.095,-1.05 -1.096,-1.049 0.308,1.156 m 256.981,5.356 c 0,1.43 0.073,2.015 0.161,1.3 0.089,-0.715 0.089,-1.885 0,-2.6 -0.088,-0.715 -0.161,-0.13 -0.161,1.3 M 100.2,197.565 c -17.503,0.257 -17.814,0.3 -18.573,2.59 l -0.413,1.245 0.987,-1.2 0.988,-1.2 16.505,-0.232 c 10.51,-0.148 17.087,-0.399 18.106,-0.691 2.298,-0.658 162.111,-0.656 164.4,0.002 1.024,0.295 7.556,0.543 18.152,0.691 l 16.551,0.23 0.597,0.9 c 0.57,0.858 1.615,1.334 1.1,0.5 -0.16,-0.26 2.184,-0.431 6.676,-0.49 l 6.924,-0.089 -6.78,-0.121 c -4.927,-0.087 -6.949,-0.266 -7.4,-0.653 -1.848,-1.589 0.452,-1.553 -102.62,-1.636 -54.56,-0.044 -106.4,0.025 -115.2,0.154 m -29.3,2.333 c 1.925,0.073 5.075,0.073 7,0 1.925,-0.073 0.35,-0.133 -3.5,-0.133 -3.85,0 -5.425,0.06 -3.5,0.133 m 16.3,6.218 c -0.571,0.288 -1.059,0.929 -1.138,1.494 -0.076,0.545 -0.339,1.26 -0.583,1.59 -0.244,0.33 0.235,-0.03 1.065,-0.8 l 1.509,-1.4 12.073,0.138 c 8.562,0.097 12.159,0.272 12.368,0.6 0.391,0.614 0.381,97.525 -0.01,98.14 -0.338,0.532 -24.113,0.839 -25.369,0.327 -0.376,-0.153 -0.779,-0.577 -0.895,-0.942 -0.31,-0.974 -2.22,-0.991 -2.22,-0.021 0,0.417 -0.18,0.758 -0.4,0.758 -0.22,0 -0.4,-0.174 -0.4,-0.387 0,-0.214 -0.269,-0.285 -0.598,-0.159 -1.163,0.447 -0.082,1.035 1.51,0.822 1.324,-0.178 1.733,-0.062 2.312,0.654 0.927,1.144 24.696,1.623 26.176,0.527 1.088,-0.806 1.285,-100.78 0.2,-101.465 -0.957,-0.606 -24.379,-0.492 -25.6,0.124 m 199.949,0.146 c -1.038,1.251 -0.792,100.423 0.251,101.195 0.675,0.5 2.728,0.573 13.133,0.468 l 12.334,-0.125 1.135,-1.271 c 0.771,-0.863 1.199,-1.103 1.336,-0.747 0.11,0.288 0.824,0.596 1.586,0.685 1.039,0.121 1.334,0.028 1.179,-0.376 -0.113,-0.295 -0.478,-0.433 -0.811,-0.305 -0.522,0.2 -0.53,0.135 -0.055,-0.477 0.462,-0.596 0.407,-0.588 -0.344,0.053 -0.859,0.733 -1.142,0.522 -0.93,-0.692 0.031,-0.182 -0.335,-0.206 -0.813,-0.054 -0.704,0.223 -0.822,0.148 -0.615,-0.391 0.15,-0.392 0.093,-0.566 -0.14,-0.422 -0.217,0.134 -0.395,0.587 -0.395,1.007 0,1.587 -1.204,1.727 -13.991,1.63 -6.707,-0.051 -12.288,-0.186 -12.402,-0.3 -0.401,-0.4 -0.429,-97.352 -0.029,-98.1 0.355,-0.662 1.36,-0.749 11.705,-1.012 12.014,-0.305 12.977,-0.204 14.517,1.516 0.44,0.492 0.682,0.705 0.538,0.475 -0.144,-0.23 -0.324,-0.864 -0.4,-1.409 -0.26,-1.862 -1.218,-1.998 -14.189,-2.004 -10.729,-0.005 -12.111,0.067 -12.6,0.656 M 134.7,226.832 c -0.908,0.529 -1.099,41.277 -0.2,42.489 1.187,1.6 6.669,1.344 7.439,-0.346 0.797,-1.751 0.64,-41.139 -0.168,-41.946 -0.731,-0.732 -5.906,-0.875 -7.071,-0.197 m 13.4,-0.167 c -0.876,0.353 -0.712,42.266 0.169,43.147 0.879,0.879 6.36,0.705 6.945,-0.221 0.593,-0.938 0.503,-42.114 -0.094,-42.711 -0.472,-0.472 -5.965,-0.641 -7.02,-0.215 m 96.704,0.528 c -0.288,0.538 -0.389,7.437 -0.315,21.433 0.128,23.724 -0.241,21.774 4.111,21.774 4.352,0 3.983,1.95 4.111,-21.774 0.129,-24.158 0.486,-22.226 -4.111,-22.226 -2.953,0 -3.425,0.099 -3.796,0.793 m 13.394,0.153 c -0.543,0.829 -0.606,3.459 -0.509,21.236 l 0.111,20.289 1,0.811 c 1.13,0.916 5.465,0.86 6.604,-0.085 1.051,-0.873 0.88,-42.217 -0.178,-42.783 -1.63,-0.872 -6.341,-0.516 -7.028,0.532 m -117.388,0.88 c 0.541,1.424 0.523,38.779 -0.02,39.793 -0.455,0.85 -4.006,0.925 -4.828,0.103 -0.642,-0.642 -0.493,-40.191 0.152,-40.601 1.27,-0.807 4.294,-0.353 4.696,0.705 m 13.618,-0.198 c 0.21,0.329 0.323,8.97 0.268,20.372 l -0.096,19.8 h -3 -3 l -0.104,-20.174 c -0.081,-15.864 0.004,-20.248 0.4,-20.518 0.797,-0.542 5.114,-0.137 5.532,0.52 m 97.076,19.872 0.103,20.5 h -3.003 -3.004 v -20.371 c 0,-23.096 -0.399,-20.804 3.6,-20.691 l 2.2,0.062 0.104,20.5 M 264,227.591 c 0.929,0.587 1.127,39.625 0.205,40.547 -0.539,0.539 -2.529,0.671 -4.705,0.312 -0.371,-0.062 -0.404,-40.613 -0.033,-40.983 0.402,-0.403 3.848,-0.308 4.533,0.124 M 213.6,257.6 c -1.541,1.541 -0.873,5.675 0.86,5.328 0.806,-0.161 1.404,-0.013 1.953,0.484 1.017,0.92 1.125,0.78 1.67,-2.15 0.764,-4.107 -1.879,-6.266 -4.483,-3.662 m 3.371,0.629 c 0.731,0.73 0.796,1.512 0.215,2.597 -0.463,0.865 -1.971,1.029 -2.706,0.294 -1.05,-1.05 -0.123,-3.52 1.32,-3.52 0.299,0 0.826,0.283 1.171,0.629 M 174.4,291.595 c -0.37,0.242 -7.727,0.397 -19.2,0.405 -10.23,0.007 -18.814,0.148 -19.075,0.314 -0.741,0.471 -1.325,2.367 -1.325,4.302 0,2.73 -0.798,2.984 -9.389,2.984 -8.455,0 -7.668,-0.816 -8.101,8.4 l -0.31,6.6 -17.164,0.104 c -17.804,0.109 -18.236,0.151 -18.236,1.794 0,0.61 0.123,0.698 0.518,0.37 0.286,-0.237 0.871,-0.425 1.3,-0.417 0.43,0.007 8.702,-0.097 18.382,-0.231 41.86,-0.582 209.91,-0.245 214.544,0.43 1.815,0.264 2.876,-0.39 2.02,-1.247 -0.253,-0.252 -6.94,-0.478 -17.884,-0.603 l -17.48,-0.2 -0.053,-3.4 c -0.078,-5.012 -0.6,-10.529 -1.05,-11.1 -0.29,-0.366 -2.291,-0.5 -7.492,-0.5 -8.633,0 -9.205,-0.233 -9.205,-3.753 0,-3.907 1.551,-3.604 -20.267,-3.95 -35.846,-0.567 -69.905,-0.713 -70.533,-0.302 m 91.462,8.205 c 1.075,0.449 3.059,0.6 7.898,0.6 8.027,0 8.24,0.097 8.24,3.743 0,1.409 -0.209,2.706 -0.48,2.977 -0.957,0.957 -162.592,0.666 -163.106,-0.294 -0.603,-1.126 -0.507,-4.546 0.153,-5.45 0.516,-0.705 1.233,-0.794 7.9,-0.976 4.73,-0.129 7.617,-0.373 8.133,-0.688 1.326,-0.809 129.321,-0.723 131.262,0.088 M 66.017,322.757 c -1.225,1.524 -1.125,11.035 0.124,11.751 1.575,0.902 267.258,0.892 268.167,-0.011 0.873,-0.867 1.297,-8.097 0.475,-8.097 -0.331,0 -0.357,-0.156 -0.081,-0.5 0.219,-0.275 0.266,-0.86 0.104,-1.3 -0.162,-0.44 -0.2,-1.055 -0.083,-1.366 0.126,-0.333 0.038,-0.457 -0.213,-0.302 -0.234,0.145 -0.524,0.009 -0.643,-0.302 -0.175,-0.456 -1.646,-0.574 -7.649,-0.612 l -7.432,-0.047 -1.771,1.219 -1.771,1.218 H 200 84.756 l -1.724,-1.186 -1.724,-1.186 -7.261,-0.118 c -7.241,-0.118 -7.263,-0.115 -8.03,0.839"
       stroke="none"
       fill="#acb9bc"
       fill-rule="evenodd"
       style="stroke:none" />
  </g>
  <g
     inkscape:groupmode="layer"
     id="layer2"
     inkscape:label="New">
    <path
       style="fill:#d4dee6;fill-opacity:1;stroke:none;stroke-width:0;stroke-linecap:butt;stroke-linejoin:miter;stroke-miterlimit:4;stroke-dasharray:none;stroke-opacity:1"
       d="m 65.191,152 c 0,0 -1.883878,6.35416 -0.05358,14.15268 1.27191,1.35903 3.988084,1.32401 5.573255,0.34833 1.506099,-0.92702 2.089971,-4.8766 2.089971,-4.8766 L 196.8,81.502 c 3.24402,-3.407041 5.84008,-0.42855 5.84008,-0.42855 l 124.1791,80.37679 0.87082,3.39621 1.4804,1.82872 c 0,0 4.15005,1.12283 5.39909,-0.17416 1.33841,-8.4235 0.57516,-14.63794 -0.0871,-16.06665 L 202.46592,65.485751 c -3.08456,-1.438589 -5.00722,0.108853 -5.00722,0.108853 0,0 -129.062321,81.647236 -131.972949,85.623486 C 65.321227,151.44285 65.191,152 65.191,152 Z"
       id="path30998"
       sodipodi:nodetypes="cccccccccccccsc" />
  </g>
</svg>