<?xml version="1.0" encoding="UTF-8"?>
<svg width="50px" height="45px" viewBox="0 0 50 45" version="1.1" xmlns="http://www.w3.org/2000/svg" xmlns:xlink="http://www.w3.org/1999/xlink">
    <title>EA95840A-9A39-447B-83DD-C1310BB8D620</title>
    <g id="Page-1" stroke="none" stroke-width="1" fill="none" fill-rule="evenodd">
        <g id="8-signup-flinks-7-success_check_error" transform="translate(-163.000000, -364.000000)" fill="#E86A45">
            <path d="M191.552388,401.140902 C191.552388,402.13638 190.741238,402.94353 189.740545,402.94353 L186.296811,402.94353 C185.296118,402.94353 184.484968,402.13638 184.484968,401.140902 L184.484968,397.721248 C184.484968,396.72577 185.296118,395.919074 186.296811,395.919074 L189.740545,395.919074 C190.741238,395.919074 191.552388,396.72577 191.552388,397.721248 L191.552388,401.140902 Z M184.492733,374.999257 C184.492733,374.065986 185.304111,373.309275 186.304804,373.309275 L189.727757,373.309275 C190.728449,373.309275 191.539599,374.065986 191.539599,374.999257 L191.539599,390.619293 C191.539599,391.552563 190.728449,392.309275 189.727757,392.309275 L186.304804,392.309275 C185.304111,392.309275 184.492733,391.552563 184.492733,390.619293 L184.492733,374.999257 Z M211.817896,397.018804 C206.520528,388.026337 201.298293,378.99048 196.029699,369.981202 C195.357623,368.8317 194.70039,367.64744 193.852702,366.630835 C190.981477,363.187782 185.258895,363.104182 182.329209,366.498393 C181.29586,367.695828 180.514854,369.123392 179.709413,370.498478 C174.523259,379.352368 169.364509,388.221934 164.191371,397.083548 C163.015067,399.098811 162.63347,401.218802 163.39301,403.45397 C164.596946,406.99539 167.445563,408.995886 171.213575,408.998385 C176.809186,409.001566 182.404798,408.999067 188.000637,408.999067 C193.631645,408.999067 199.262653,409 204.893661,408.998385 C206.478966,408.997931 207.98206,408.661486 209.325299,407.797996 C212.492256,405.76206 214.346803,401.311943 211.817896,397.018804 L211.817896,397.018804 Z" id="ic_check_error"></path>
        </g>
    </g>
</svg>