<?xml version="1.0" encoding="UTF-8"?>
<svg width="34px" height="34px" viewBox="0 0 34 34" version="1.1" xmlns="http://www.w3.org/2000/svg" xmlns:xlink="http://www.w3.org/1999/xlink">
    <title>ic_bar_settings</title>
    <g id="version_4" stroke="none" stroke-width="1" fill="none" fill-rule="evenodd">
        <g id="ic_bar_settings" transform="translate(1.000000, 1.000000)">
            <rect id="Rectangle-Copy-6" stroke-opacity="0.01" stroke="#393939" x="0" y="0" width="32" height="32"></rect>
            <path d="M16,21.5263158 C12.9368421,21.5263158 10.4736842,19.0631579 10.4736842,16 C10.4736842,12.9368421 12.9368421,10.4736842 16,10.4736842 C19.0631579,10.4736842 21.5263158,12.9368421 21.5263158,16 C21.5263158,19.0631579 19.0631579,21.5263158 16,21.5263158 M29.5789474,12.8421053 L28,12.8421053 C27.4,12.8421053 26.8947368,12.4631579 26.6736842,11.8947368 C26.6105263,11.7052632 26.5157895,11.5157895 26.4526316,11.3578947 C26.2,10.8210526 26.2947368,10.1578947 26.7368421,9.74736842 L27.8736842,8.61052632 C28.4421053,8.04210526 28.4421053,7.15789474 27.8736842,6.58947368 L25.4105263,4.12631579 C24.8421053,3.55789474 23.9578947,3.55789474 23.3894737,4.12631579 L22.2526316,5.26315789 C21.8421053,5.67368421 21.1789474,5.8 20.6421053,5.54736842 C20.4526316,5.48421053 20.2947368,5.38947368 20.1052632,5.32631579 C19.5368421,5.10526316 19.1578947,4.6 19.1578947,4 L19.1578947,2.42105263 C19.1578947,1.63157895 18.5263158,1 17.7368421,1 L14.2631579,1 C13.4736842,1 12.8421053,1.63157895 12.8421053,2.42105263 L12.8421053,4.03157895 C12.8421053,4.63157895 12.4631579,5.16842105 11.8947368,5.35789474 C11.7052632,5.42105263 11.5473684,5.48421053 11.3578947,5.57894737 C10.8210526,5.83157895 10.1894737,5.70526316 9.74736842,5.29473684 L8.61052632,4.15789474 C8.04210526,3.58947368 7.15789474,3.58947368 6.58947368,4.15789474 L4.12631579,6.62105263 C3.55789474,7.18947368 3.55789474,8.07368421 4.12631579,8.64210526 L5.26315789,9.77894737 C5.67368421,10.1894737 5.8,10.8526316 5.54736842,11.3894737 C5.45263158,11.5789474 5.38947368,11.7368421 5.32631579,11.9263158 C5.10526316,12.4947368 4.6,12.8736842 4,12.8736842 L2.42105263,12.8736842 C1.63157895,12.8736842 1,13.5052632 1,14.2947368 L1,17.7684211 C1,18.5263158 1.63157895,19.1578947 2.42105263,19.1578947 L3.96842105,19.1578947 C4.56842105,19.1578947 5.10526316,19.5368421 5.29473684,20.1052632 C5.35789474,20.2947368 5.45263158,20.4842105 5.51578947,20.6736842 C5.76842105,21.2105263 5.64210526,21.8421053 5.23157895,22.2838947 L4.12631579,23.3891579 C3.55789474,23.9578947 3.55789474,24.8421053 4.12631579,25.4105263 L6.58947368,27.8736842 C7.15789474,28.4417895 8.04210526,28.4417895 8.61052632,27.8736842 L9.68421053,26.8 C10.0947368,26.3891579 10.7263158,26.2631579 11.2631579,26.5157895 C11.4842105,26.6105263 11.7052632,26.7049474 11.8947368,26.8 C12.4315789,27.0207368 12.8105263,27.5263158 12.8105263,28.126 L12.8105263,29.5789474 C12.8105263,30.3684211 13.4421053,31 14.2315789,31 L17.7052632,31 C18.4947368,31 19.1263158,30.3684211 19.1263158,29.5789474 L19.1263158,28.0315789 C19.1263158,27.4631579 19.4736842,26.9263158 20.0421053,26.7049474 C20.2631579,26.6105263 20.4842105,26.5470526 20.6736842,26.4210526 C21.2105263,26.1684211 21.8421053,26.2947368 22.2526316,26.7049474 L23.3263158,27.7789474 C23.8947368,28.3473684 24.7789474,28.3473684 25.3473684,27.7789474 L27.8105263,25.3157895 C28.3789474,24.7473684 28.3789474,23.8628421 27.8105263,23.2947368 L26.7368421,22.2526316 C26.3263158,21.8421053 26.2,21.2105263 26.4526316,20.6421053 C26.5473684,20.4526316 26.6105263,20.2631579 26.6736842,20.0736842 C26.8947368,19.5052632 27.4,19.1263158 28,19.1263158 L29.5789474,19.1263158 C30.3684211,19.1263158 31,18.4947368 31,17.7052632 L31,14.2315789 C31,13.4736842 30.3684211,12.8421053 29.5789474,12.8421053" id="Fill-1" fill="#FFFFFF"></path>
        </g>
    </g>
</svg>