<?xml version="1.0" encoding="UTF-8"?>
<svg width="37px" height="22px" viewBox="0 0 37 22" version="1.1" xmlns="http://www.w3.org/2000/svg" xmlns:xlink="http://www.w3.org/1999/xlink">
    <title>BD6F36E0-9410-4248-A871-E0B7E16B1611</title>
    <defs>
        <linearGradient x1="50%" y1="0%" x2="50%" y2="100%" id="linearGradient-1">
            <stop stop-color="#7CEDD6" offset="0%"></stop>
            <stop stop-color="#43E6D3" offset="100%"></stop>
        </linearGradient>
    </defs>
    <g id="Page-1" stroke="none" stroke-width="1" fill="none" fill-rule="evenodd">
        <g id="8_signup_error_1" transform="translate(-66.000000, -117.000000)" fill="url(#linearGradient-1)">
            <g id="id_info" transform="translate(55.000000, 106.000000)">
                <path d="M46,11 C47.1045695,11 48,11.8954305 48,13 L48,31 C48,32.1045695 47.1045695,33 46,33 L13,33 C11.8954305,33 11,32.1045695 11,31 L11,13 C11,11.8954305 11.8954305,11 13,11 L46,11 Z M21.5,22 L20.5,22 C17.4624339,22 15,24.4624339 15,27.5 L15,27.5 L15,29 L27,29 L27,27.5 C27,24.4624339 24.5375661,22 21.5,22 L21.5,22 Z M43.625,26.5 L31.375,26.5 L31.2729565,26.5067277 C30.8377852,26.5644928 30.5,26.9871642 30.5,27.5 C30.5,28.0522847 30.8917508,28.5 31.375,28.5 L31.375,28.5 L43.625,28.5 L43.7270435,28.4932723 C44.1622148,28.4355072 44.5,28.0128358 44.5,27.5 C44.5,26.9477153 44.1082492,26.5 43.625,26.5 L43.625,26.5 Z M43.625,21.5 L31.375,21.5 L31.2729565,21.5067277 C30.8377852,21.5644928 30.5,21.9871642 30.5,22.5 C30.5,23.0522847 30.8917508,23.5 31.375,23.5 L31.375,23.5 L43.625,23.5 L43.7270435,23.4932723 C44.1622148,23.4355072 44.5,23.0128358 44.5,22.5 C44.5,21.9477153 44.1082492,21.5 43.625,21.5 L43.625,21.5 Z M21,15 C19.3431458,15 18,16.3431458 18,18 C18,19.6568542 19.3431458,21 21,21 C22.6568542,21 24,19.6568542 24,18 C24,16.3431458 22.6568542,15 21,15 Z M43.625,16.5 L31.375,16.5 L31.2729565,16.5067277 C30.8377852,16.5644928 30.5,16.9871642 30.5,17.5 C30.5,18.0522847 30.8917508,18.5 31.375,18.5 L31.375,18.5 L43.625,18.5 L43.7270435,18.4932723 C44.1622148,18.4355072 44.5,18.0128358 44.5,17.5 C44.5,16.9477153 44.1082492,16.5 43.625,16.5 L43.625,16.5 Z" id="ic_id_register"></path>
            </g>
        </g>
    </g>
</svg>