<?xml version="1.0" encoding="UTF-8"?>
<svg width="24px" height="24px" viewBox="0 0 24 24" version="1.1" xmlns="http://www.w3.org/2000/svg" xmlns:xlink="http://www.w3.org/1999/xlink">
    <title>F655F9D0-E186-48DA-B371-3CD6E1011C9B</title>
    <defs>
        <linearGradient x1="50%" y1="0%" x2="50%" y2="100%" id="linearGradient-1">
            <stop stop-color="#7CEDD6" offset="0%"></stop>
            <stop stop-color="#43E6D3" offset="100%"></stop>
        </linearGradient>
    </defs>
    <g id="Page-1" stroke="none" stroke-width="1" fill="none" fill-rule="evenodd">
        <g id="2-consent" transform="translate(-37.000000, -313.000000)" fill="url(#linearGradient-1)">
            <path d="M47.228323,327.035484 C46.1727683,325.990014 45.1408025,324.967678 44.1084709,323.945707 C43.8331764,323.673321 43.6610145,323.669298 43.39148,323.93574 C42.8342166,324.486363 42.2786904,325.038814 41.7241699,325.592271 C41.461127,325.854782 41.4605784,326.049813 41.7226156,326.312597 C43.4251261,328.020058 45.128368,329.726787 46.8320671,331.432967 C47.1062645,331.707638 47.2738549,331.709375 47.544578,331.439002 C50.4567935,328.531729 53.3684604,325.623999 56.2795787,322.715629 C56.5411588,322.454216 56.5386902,322.260008 56.2736358,321.995486 C55.7192067,321.442029 55.1635891,320.889669 54.6068743,320.338498 C54.3406313,320.07489 54.1776123,320.075439 53.9128322,320.339412 C52.9968905,321.252209 52.0806745,322.164641 51.1673843,323.079907 C49.8511638,324.399042 48.5375034,325.720555 47.228323,327.035484 M48.99584,337 C42.3724972,336.995517 36.9956141,331.615014 37,324.996022 C37.0042999,318.372459 42.3845659,312.995796 49.0038858,313 C55.62732,313.004208 61.0043859,318.384985 61,325.004069 C60.9956087,331.627541 55.614977,337.004478 48.99584,337" id="ic_check"></path>
        </g>
    </g>
</svg>