<svg width="33" height="34" viewBox="0 0 33 34" fill="none" xmlns="http://www.w3.org/2000/svg">
<path fill-rule="evenodd" clip-rule="evenodd" d="M17.4239 33.1647H17.4225C17.096 33.1647 16.7612 33.0892 16.4332 33.0971L16.3037 27.7341C16.5227 27.7288 16.7453 27.7492 16.9632 27.7492H16.9642C18.0843 27.7492 19.1636 27.2753 20.1855 26.8438L22.2941 31.8985C20.7472 32.5516 19.1129 33.1647 17.4239 33.1647Z" fill="#00ACE4" fill-opacity="0.36"/>
<path fill-rule="evenodd" clip-rule="evenodd" d="M15.7596 32.9776C13.7312 32.9418 11.755 32.527 9.88574 31.7446L11.977 26.749C13.2106 27.2654 14.5154 27.5392 15.8549 27.5627L15.7596 32.9776Z" fill="#00ACE4" fill-opacity="0.44"/>
<path fill-rule="evenodd" clip-rule="evenodd" d="M22.9009 31.4464L20.5859 26.5506C21.7933 25.9798 22.8712 25.1926 23.7896 24.2109L27.7441 27.911C26.3574 29.3931 24.7279 30.5826 22.9009 31.4464Z" fill="#00ACE4" fill-opacity="0.28"/>
<path fill-rule="evenodd" clip-rule="evenodd" d="M9.272 31.4731C7.44136 30.6147 5.80761 29.4332 4.41638 27.961L8.35228 24.2412C9.27509 25.2175 10.358 26.001 11.5709 26.5697L9.272 31.4731Z" fill="#00ACE4" fill-opacity="0.52"/>
<path fill-rule="evenodd" clip-rule="evenodd" d="M28.1912 27.413L24.0864 23.8805C24.9631 22.8617 25.6302 21.7045 26.0692 20.4414L31.1848 22.2185C30.5214 24.1279 29.5142 25.8756 28.1912 27.413Z" fill="#00ACE4" fill-opacity="0.2"/>
<path fill-rule="evenodd" clip-rule="evenodd" d="M3.96699 27.465C2.63518 25.9326 1.6204 24.1877 0.950928 22.2782L6.06143 20.4863C6.50323 21.7466 7.17389 22.8993 8.05439 23.9126L3.96699 27.465Z" fill="#00ACE4" fill-opacity="0.6"/>
<path fill-rule="evenodd" clip-rule="evenodd" d="M31.3821 21.5805L26.1912 20.021C26.575 18.745 26.7068 17.4174 26.5924 16.0749L26.5896 16.0411L31.9822 15.542L31.9885 15.6155C32.1609 17.6413 31.9634 19.6477 31.3821 21.5805Z" fill="#00ACE4" fill-opacity="0.12"/>
<path fill-rule="evenodd" clip-rule="evenodd" d="M0.742415 21.6403C0.416592 20.5684 0.202704 19.4544 0.106929 18.3289C0.0319498 17.4486 0.0292167 16.559 0.0988493 15.6846L5.49739 16.1146C5.45128 16.6938 5.45307 17.2842 5.50297 17.8697C5.56655 18.6172 5.70807 19.3557 5.92374 20.065L0.742415 21.6403Z" fill="#00ACE4" fill-opacity="0.68"/>
<path fill-rule="evenodd" clip-rule="evenodd" d="M26.5599 15.5867C26.3857 14.2549 25.9681 12.9884 25.3188 11.8225L30.0502 9.1875C31.0339 10.9541 31.6663 12.8708 31.9297 14.8844L26.5599 15.5867Z" fill="#00ACE4" fill-opacity="0.04"/>
<path fill-rule="evenodd" clip-rule="evenodd" d="M5.54175 15.6743L0.16626 15.018C0.411518 13.008 1.02954 11.0858 2.00308 9.30469L6.75509 11.902C6.112 13.0787 5.70371 14.3479 5.54175 15.6743Z" fill="#00ACE4" fill-opacity="0.76"/>
<path fill-rule="evenodd" clip-rule="evenodd" d="M6.97615 11.516L2.33679 8.72289C3.38092 6.98814 4.72474 5.48498 6.33044 4.25488L9.62361 8.55416C8.55951 9.36943 7.66879 10.3659 6.97615 11.516Z" fill="#00ACE4" fill-opacity="0.84"/>
<path fill-rule="evenodd" clip-rule="evenodd" d="M9.98088 8.29156L6.86987 3.85872C8.52988 2.69374 10.3715 1.86552 12.3432 1.39746L13.5939 6.66672C12.2927 6.97555 11.0769 7.52215 9.98088 8.29156Z" fill="#00ACE4" fill-opacity="0.92"/>
<path fill-rule="evenodd" clip-rule="evenodd" d="M17.9999 6.55464C17.0695 6.38163 16.1136 6.33529 15.159 6.41657C14.7718 6.43831 14.3988 6.50141 14.0277 6.5733L13.0109 1.23869C14.596 0.719653 17.4392 0.719653 18.9835 1.13887L17.9999 6.55464Z" fill="#00ACE4"/>
</svg>
