<?xml version="1.0" encoding="UTF-8"?>
<svg width="44px" height="45px" viewBox="0 0 44 45" version="1.1" xmlns="http://www.w3.org/2000/svg" xmlns:xlink="http://www.w3.org/1999/xlink">
    <title>loading_white</title>
    <g id="Page-1" stroke="none" stroke-width="1" fill="none" fill-rule="evenodd">
        <g id="loading_white" transform="translate(-0.000035, 0.000001)" fill="#FFFFFF">
            <path d="M23.8290658,44.3366641 L23.8271103,44.3366641 C23.379451,44.3366641 22.9202214,44.2330197 22.4704436,44.2439382 L22.292814,36.8889308 C22.5931547,36.8815975 22.8983843,36.9096271 23.1972584,36.9096271 L23.1985621,36.9096271 C24.734814,36.9096271 26.2150065,36.2597308 27.616488,35.6678493 L30.5082658,42.6001308 C28.386814,43.4957752 26.1454214,44.3366641 23.8290658,44.3366641" id="Fill-1" fill-opacity="0.36"></path>
            <path d="M21.5465414,44.080356 C18.7647636,44.0313041 16.0545265,43.4624004 13.4909562,42.3894523 L16.3589414,35.5383264 C18.0508228,36.2465634 19.8401562,36.6220301 21.6772377,36.6542967 L21.5465414,44.080356 Z" id="Fill-3" fill-opacity="0.44"></path>
            <path d="M31.3404851,41.9807086 L28.1656406,35.2664715 C29.8215073,34.4835975 31.2997443,33.4039678 32.5592851,32.0577308 L37.9825295,37.1320715 C36.0807517,39.1647086 33.8460406,40.7959678 31.3404851,41.9807086" id="Fill-5" fill-opacity="0.28"></path>
            <path d="M12.6493828,42.0162671 C10.1387754,40.8390226 7.89819766,39.2186819 5.99022729,37.1995708 L11.3880495,32.0981782 C12.6536199,33.4370819 14.1387014,34.5116597 15.8022273,35.2916004 L12.6493828,42.0162671 Z" id="Fill-7" fill-opacity="0.52"></path>
            <path d="M38.5955962,36.4489471 L32.9662036,31.6043841 C34.1685443,30.2071397 35.0834184,28.6202064 35.6854036,26.8879101 L42.7011221,29.3250212 C41.7912999,31.943673 40.4100258,34.3405323 38.5955962,36.4489471" id="Fill-9" fill-opacity="0.2"></path>
            <path d="M5.37381988,36.5193797 C3.54733099,34.4178093 2.15562729,32.0246982 1.23749396,29.4060464 L8.24620507,26.9485649 C8.85210136,28.6769501 9.77186433,30.2578538 10.9794199,31.6474389 L5.37381988,36.5193797 Z" id="Fill-11" fill-opacity="0.6"></path>
            <path d="M42.9717221,28.4492908 L35.8526851,26.3105649 C36.3790554,24.5605056 36.5597814,22.7398834 36.403011,20.8987278 L36.3990999,20.8522834 L43.7946851,20.1678389 L43.8033221,20.268713 C44.0397814,23.0469056 43.7689369,25.7985352 42.9717221,28.4492908" id="Fill-13" fill-opacity="0.12"></path>
            <path d="M0.951542845,28.531636 C0.5046984,27.0615471 0.211365067,25.5337693 0.0800169186,23.9903471 C-0.0228127111,22.7829545 -0.0265608592,21.5630138 0.0689354371,20.3637693 L7.47266877,20.9535323 C7.40943914,21.7478138 7.41188359,22.5575767 7.48032803,23.3604952 C7.56751321,24.3856952 7.7616021,25.3985101 8.05737988,26.371236 L0.951542845,28.531636 Z" id="Fill-15" fill-opacity="0.68"></path>
            <path d="M36.3584406,20.229993 C36.1195369,18.4035041 35.5468851,16.6666449 34.6564554,15.0676523 L41.1451517,11.4539486 C42.4943221,13.8767189 43.361611,16.5053115 43.7227369,19.2668819 L36.3584406,20.229993 Z" id="Fill-18" fill-opacity="0.04"></path>
            <path d="M7.53348655,20.3492004 L0.16136803,19.449156 C0.497723585,16.6926375 1.34529396,14.0563856 2.68044951,11.6137338 L9.19750136,15.1757782 C8.31554581,16.7896004 7.75560507,18.5302078 7.53348655,20.3492004" id="Fill-20" fill-opacity="0.76"></path>
            <path d="M34.3501991,14.5442804 C33.3908362,12.9799989 32.1576954,11.624636 30.6848362,10.5163249 L35.1501843,4.58170265 C37.3718584,6.25337672 39.2327325,8.2990508 40.6817991,10.6616878 L34.3501991,14.5442804 Z" id="Fill-22" fill-opacity="0"></path>
            <path d="M9.50066136,14.6471589 L3.1380984,10.8165515 C4.57005396,8.43745524 6.4130021,6.37597376 8.61512062,4.68898117 L13.1314762,10.5851441 C11.6721428,11.703233 10.4505725,13.0698404 9.50066136,14.6471589" id="Fill-24" fill-opacity="0.84"></path>
            <path d="M30.1904228,10.1602019 C28.6732377,9.11463154 26.9987932,8.37640932 25.213371,7.96623154 L26.876734,0.727742649 C29.5798006,1.3487945 32.112571,2.46492783 34.404971,4.0446908 L30.1904228,10.1602019 Z" id="Fill-26" fill-opacity="0"></path>
            <path d="M13.6216036,10.225436 L9.35507025,4.14610265 C11.6316628,2.54841376 14.1572628,1.41256191 16.8613073,0.770650797 L18.5766554,7.99708043 C16.792048,8.42062117 15.124774,9.1702508 13.6216036,10.225436" id="Fill-28" fill-opacity="0.92"></path>
            <path d="M24.6191265,7.84281969 C23.3431265,7.60554561 22.0320895,7.54199006 20.723008,7.65345672 C20.1919117,7.68327895 19.680371,7.76981228 19.1714377,7.86840487 L17.7769636,0.552345612 C19.9508895,-0.15947661 23.8501043,-0.15947661 25.967971,0.415456723 L24.6191265,7.84281969 Z" id="Fill-30"></path>
        </g>
    </g>
</svg>