<?xml version="1.0" encoding="utf-8"?>
<!-- Generator: Adobe Illustrator 23.0.2, SVG Export Plug-In . SVG Version: 6.00 Build 0)  -->
<svg version="1.1" id="Layer_1" xmlns="http://www.w3.org/2000/svg" xmlns:xlink="http://www.w3.org/1999/xlink" x="0px" y="0px"
	 viewBox="0 0 1217.3 1716.2" style="enable-background:new 0 0 1217.3 1716.2;" xml:space="preserve">
<style type="text/css">
	.st0{fill:#B9E5FB;}
	.st1{opacity:0.8;fill:#00ACE4;enable-background:new    ;}
	.st2{opacity:0.9;fill:#00ACE4;enable-background:new    ;}
	.st3{opacity:0.95;}
	.st4{opacity:0.95;fill:#00ACE4;enable-background:new    ;}
</style>
<path class="st0" d="M1110.9,782.2c-28.2-39.6-94.4-112.8-176.3-198.5c124.8-125.3,232.2-233.8,234.3-235.4
	c29.3-29.3,28.7-76.5-0.5-105.8c-29.3-29.3-76.5-28.7-105.8,0.5c-2.2,2.2-108.5,109.6-232.2,233.2c-38-38.5-77-78.1-115.5-116.6
	c93.8-92.8,180.1-177.4,235.9-231.1c29.8-28.7,30.4-75.9,1.6-105.8s-75.9-30.4-105.8-1.6c-10.3,9.8-112.3,108.5-237.6,233.2
	C483.4,129.6,381.9,31.5,371.6,21.2c-29.8-28.7-77-28.2-105.8,1.6s-28.2,77,1.6,105.8c55.9,54.2,142.1,138.3,235.9,231.1
	c-38.5,38.5-77.6,78.1-115.5,116.6C263.7,352.6,157.4,245.2,155.2,243c-29.3-29.3-76.5-29.8-105.8-0.5s-29.8,76.5-0.5,105.8
	c2.2,2.2,109.6,110.7,234.3,235.4c-82.4,86.2-148.6,159.5-176.8,198.5C-1.5,933-0.5,1085.4,0.1,1108.7
	c0.5,334.7,272.8,607,607.5,607.5h2.2c334.7-0.5,607-272.8,607.5-607.5C1217.8,1085.4,1218.3,933,1110.9,782.2L1110.9,782.2z
	 M608.7,465.4c39.1,39.6,78.1,78.6,116.1,117.2c-40.1,40.1-79.7,79.7-116.1,115.5c-35.8-35.8-75.4-75.4-116.1-115.5
	C530,544,569.1,504.4,608.7,465.4z M624.4,923.7c107.4,104.1,113.4,183.3,113.4,183.3c0,71.1-58,129.1-129.1,129.6
	c-71.1-0.5-129.1-58.6-129.1-128c0-1.1,5.4-80.3,113.4-185c4.9-4.9,10.3-9.8,15.7-15.2C614.1,914,619.5,918.8,624.4,923.7
	L624.4,923.7z M1067.5,1102.7v4.3c0,253.3-205.6,458.9-458.9,459.4c-253.3-0.5-458.9-206.1-458.9-459.4v-3.8
	c0-1.1-3.8-118.2,78.6-233.8c23.9-33.6,84.1-99.3,160.6-179.5c39.6,39.6,78.1,78.1,113.9,113.4c-4.9,4.9-9.2,9.2-13.6,13
	c-155.1,150.2-158.9,277.2-158.9,290.7c0,153,124.2,277.7,277.2,279.3h3.3c153-1.1,277.2-125.8,277.2-278.8
	c0-14.1-3.8-140.5-158.9-290.7c-4.3-3.8-8.7-8.7-13.6-13c35.3-35.3,74.3-73.8,113.9-113.4C905.9,770.8,965.6,836.4,990,870
	C1071.9,985,1067.5,1102.2,1067.5,1102.7L1067.5,1102.7z"/>
<g>
	<path class="st1" d="M608.1,1386.4h1.1h-1.6H608.1z M608.1,1716.2C608.7,1716.2,608.7,1716.2,608.1,1716.2h-0.5H608.1z M607,1386.4
		C607.6,1386.4,607.6,1386.4,607,1386.4H606H607z M607.6,908.5c28.2-27.1,65.1-64,106.3-105.2c-27.7-27.1-64.5-63.5-106.3-105.2
		c-41.8,41.2-78.6,78.1-106.3,105.2C543,844.5,579.9,880.9,607.6,908.5z M683,1311.6c0-41.2-33.6-74.9-74.9-74.9h-0.5H607
		c-41.2,0-74.9,33.6-74.9,74.9s33.1,74.3,73.8,74.9h3.3C650.4,1385.3,683,1352.2,683,1311.6z"/>
	<path class="st2" d="M727.5,816.3c-4.3-3.8-8.7-8.7-13.6-13c-41.8,41.2-78.1,77.6-106.3,105.2c5.4,5.4,10.8,10.8,15.7,15.2
		c107.4,104.1,113.4,183.3,113.4,183.3c0,71.1-58,129.1-129.1,129.6H607c-41.2,0-74.9,33.6-74.9,74.9s33.1,74.3,73.8,74.9h3.3
		c153-1.1,277.2-125.8,277.2-278.8C886.4,1093.5,882.6,967.1,727.5,816.3L727.5,816.3z"/>
	<path class="st1" d="M492.1,582.6C455.2,620,419.9,656.3,387.9,690c39.6,39.6,78.1,78.1,113.9,113.4
		c27.7-27.1,64.5-63.5,106.3-105.2C571.8,662.3,532.2,622.7,492.1,582.6L492.1,582.6z M48.4,242.5c-29.3,29.3-29.8,76.5-0.5,105.8
		c2.2,2.2,109.6,110.7,234.3,235.9c32.5-34.2,67.8-70.5,104.1-107.4C262.6,352.6,156.3,245.2,154.1,243
		C125.4,213.7,77.6,213.7,48.4,242.5z"/>
	<path class="st1" d="M492.1,582.6L386.3,476.8c-36.3,36.9-71.6,73.2-104.1,107.4L387.9,690C419.9,656.3,455.2,620,492.1,582.6
		L492.1,582.6z M607,1716.2C607.6,1716.2,607.6,1716.2,607,1716.2C607.6,1716.2,607,1716.2,607,1716.2z"/>
	<g class="st3">
		<path class="st4" d="M370,21.2C340.2-7.6,293-7,264.2,22.8s-28.2,77,1.6,105.8c55.9,54.2,142.1,138.3,235.9,231.1
			c36.3-36.3,72.1-71.6,105.8-105.8C482.3,129.6,380.3,30.9,370,21.2z M829.4,476.8c-38-38.5-77-78.1-115.5-116.6
			c-34.7,34.2-70.5,70-105.8,105.8c39.1,39.6,78.1,78.6,116.1,117.2C758.9,547.3,794.7,511,829.4,476.8L829.4,476.8z"/>
	</g>
	<path class="st1" d="M827.8,690l105.8-105.8C901,550,865.8,513.7,829.4,476.8L723.7,582.6C760.5,620,795.8,656.3,827.8,690z"/>
	<path class="st1" d="M1166.8,242.5c-29.3-29.3-76.5-28.7-105.8,0.5c-2.2,2.2-108.5,109.6-232.2,233.2L723.1,582
		C683,622.2,643.4,661.7,607,697.5c-41.8,41.2-78.6,78.1-106.3,105.2c-4.9,4.9-9.2,9.2-13.6,13C332,966,328.2,1093,328.2,1106.5
		c0,153,124.2,277.7,277.2,279.3c-40.7-0.5-73.8-33.6-73.8-74.9c0-41.2,33.6-74.9,74.9-74.9h0.5c-71.1-0.5-129.1-58.6-129.1-128
		c0-1.1,5.4-80.3,113.4-185c4.9-4.9,10.3-9.8,15.7-15.2c28.2-27.1,65.1-64,106.3-105.2c35.3-35.3,74.3-73.8,113.9-113.4L933,583.6
		c124.8-125.3,232.2-233.8,234.3-235.4C1196.6,318.9,1196.6,271.8,1166.8,242.5L1166.8,242.5z M607.6,465.4l105.8-105.8
		C677,323.3,641.2,288,607.6,253.9c-34.2,33.6-70,69.4-105.8,105.8C536.5,394.3,572.3,429.6,607.6,465.4z"/>
	<path class="st1" d="M951.5,22.8C922.7-7,875.5-7.6,845.7,21.2c-10.3,9.8-112.3,108.5-237.6,233.2c-34.2,33.6-70,69.4-105.8,105.8
		c-38.5,38.5-77.6,78.1-115.5,116.6c-36.3,36.9-71.6,73.2-104.1,107.4c-81.9,85.7-148.1,158.9-176.3,198.5
		C-1,933.5-0.5,1085.9,0.1,1108.7c0.5,334.7,272.8,607,607.5,607.5h2.2c41.2,0,74.3-33.6,74.3-74.9c0-41.2-33.6-74.9-74.9-74.9h-0.5
		c-253.3-0.5-458.9-206.1-458.9-459.4v-3.8c0-1.1-3.8-118.2,78.6-233.8c23.9-33.6,84.1-99.3,160.6-179.5
		c32-33.6,67.3-70,104.1-107.4c37.4-38.5,76.5-77.6,116.1-117.2L715,359.6c93.8-92.8,180.1-177.4,235.9-231.1
		C979.1,99.8,980.2,52.6,951.5,22.8L951.5,22.8z"/>
	<path class="st4" d="M1109.9,782.2c-28.2-39.6-94.4-112.8-176.3-198.5L827.8,689.4c76.5,80.3,136.7,145.9,160.6,179.5
		c82.4,115.5,78.6,232.7,78.6,233.2v4.3c0,253.3-205.6,458.9-458.9,459.4h-0.5c-41.2,0-74.9,33.6-74.9,74.9
		c0,41.2,33.1,74.3,74.3,74.9h2.2c334.7-0.5,607-272.8,607.5-607.5C1217.3,1085.4,1217.8,933,1109.9,782.2L1109.9,782.2z"/>
</g>
</svg>
