
<svg width="37" height="66" viewBox="0 0 37 66" fill="none" xmlns="http://www.w3.org/2000/svg">
<path d="M31.5559 66H5.1084C2.29812 66 0 63.7006 0 60.8916V5.1084C0 2.29812 2.29944 0 5.1084 0H31.5559C34.3662 0 36.6643 2.29944 36.6643 5.1084V60.8916C36.6643 63.7006 34.3662 66 31.5559 66Z" fill="#858585"/>
<path d="M34.2434 5.20872H2.41824V57.2564H34.2434V5.20872Z" fill="white"/>
<path d="M23.1053 3.14821H16.5911C16.298 3.14821 16.0591 2.90929 16.0591 2.61625C16.0591 2.32321 16.298 2.08429 16.5911 2.08429H23.1053C23.3983 2.08429 23.6372 2.32321 23.6372 2.61625C23.6372 2.90929 23.3983 3.14821 23.1053 3.14821Z" fill="#CCCCCC"/>
<path d="M13.559 3.14821C13.8528 3.14821 14.091 2.91004 14.091 2.61625C14.091 2.32245 13.8528 2.08429 13.559 2.08429C13.2653 2.08429 13.0271 2.32245 13.0271 2.61625C13.0271 2.91004 13.2653 3.14821 13.559 3.14821Z" fill="#CCCCCC"/>
<path d="M18.3322 64.2127C16.9052 64.2127 15.7436 63.0511 15.7436 61.6228C15.7436 60.1959 16.9052 59.0343 18.3322 59.0343C19.7591 59.0343 20.9207 60.1959 20.9207 61.6228C20.9207 63.0511 19.7591 64.2127 18.3322 64.2127ZM18.3322 59.6943C17.2682 59.6943 16.4036 60.5589 16.4036 61.6228C16.4036 62.6867 17.2682 63.5527 18.3322 63.5527C19.3961 63.5527 20.2607 62.6867 20.2607 61.6228C20.2607 60.5589 19.3961 59.6943 18.3322 59.6943Z" fill="#CCCCCC"/>
<path d="M31.3988 17.3963H5.26416V18.1553H31.3988V17.3963Z" fill="#858585"/>
<path d="M31.3988 19.3512H5.26416V20.1102H31.3988V19.3512Z" fill="#858585"/>
<path d="M31.3988 21.3154H5.26416V22.0744H31.3988V21.3154Z" fill="#858585"/>
<path d="M31.3988 23.2716H5.26416V24.0306H31.3988V23.2716Z" fill="#858585"/>
<path d="M31.3988 25.2358H5.26416V25.9948H31.3988V25.2358Z" fill="#858585"/>
<path d="M24.5203 29.6868H12.1453V30.4458H24.5203V29.6868Z" fill="#858585"/>
<path d="M17.8235 32.2378C17.143 32.9183 16.4559 33.6054 15.7754 34.2859C15.3394 34.7153 15.6631 35.4949 16.2709 35.4949C16.6145 35.4949 16.9514 35.4949 17.2949 35.4949C17.2751 35.5807 17.2619 35.6732 17.2619 35.7723C17.2619 36.4264 17.2619 37.0804 17.2619 37.7345C17.2619 39.1087 19.3892 39.1219 19.3892 37.7477C19.3892 37.0937 19.3892 36.4396 19.3892 35.7856C19.3892 35.6798 19.376 35.5874 19.3496 35.4949C19.6667 35.4949 19.9772 35.4949 20.2943 35.4949C20.3406 35.5015 20.3802 35.4949 20.4265 35.4949C20.7304 35.475 20.9286 35.2901 21.0144 35.0654C21.1268 34.8408 21.1202 34.5699 20.9153 34.3321C20.8889 34.2925 20.8559 34.2594 20.8162 34.2264C20.1556 33.5657 19.4883 32.8985 18.8277 32.2378C18.5568 31.9603 18.1009 31.9669 17.8235 32.2378Z" fill="#67AEBA"/>
<path d="M30.4024 40.2252H6.26189C6.12315 40.2252 6.01083 40.3375 6.01083 40.4763V44.7045C6.01083 44.8433 6.12315 44.9556 6.26189 44.9556H30.4024C30.5412 44.9556 30.6535 44.8433 30.6535 44.7045V40.4763C30.6535 40.3375 30.5412 40.2252 30.4024 40.2252Z" fill="#67AEBA"/>
<path d="M29.1274 41.4673H7.54357V43.7135H29.1274V41.4673Z" fill="#4B868C"/>
<path d="M28.5658 41.4673H8.09852V47.9285H28.5658V41.4673Z" fill="#B9EFBD"/>
<path d="M8.09852 41.4673L8.09852 43.4757H28.5724V41.4673H8.09852Z" fill="#A5DBA7"/>
<path d="M8.09852 41.4673L8.09852 42.2006H28.5724V41.4673H8.09852Z" fill="#91C691"/>
<path d="M28.2156 41.4673H28.0439V47.3141H8.62044V41.4673H8.44867V47.5255H28.2156V41.4673Z" fill="#71AD71"/>
<path d="M8.62704 41.4673H8.44867V43.4757H8.62704V41.4673Z" fill="#598E59"/>
<path d="M28.2223 41.4673L28.0439 41.4673L28.0439 43.4757H28.2223V41.4673Z" fill="#598E59"/>
<path d="M8.62704 42.2005H8.44867L8.44867 43.4757H8.62704V42.2005Z" fill="#598E59"/>
<path d="M8.62704 41.4673H8.44867L8.44867 42.2005H8.62704V41.4673Z" fill="#4F7F4F"/>
<path d="M28.2223 42.2006H28.0439L28.0439 43.4757H28.2223L28.2223 42.2006Z" fill="#598E59"/>
<path d="M28.2223 41.4673L28.0439 41.4673L28.0439 42.2006H28.2223L28.2223 41.4673Z" fill="#4F7F4F"/>
<path d="M18.3322 46.997C20.2613 46.997 21.8271 45.4312 21.8271 43.5021C21.8271 42.7423 21.5826 42.042 21.173 41.4673H15.4913C15.0817 42.042 14.8373 42.7423 14.8373 43.5021C14.8373 45.4312 16.403 46.997 18.3322 46.997Z" fill="#71AD71"/>
<path d="M21.1664 41.4673C21.173 41.4673 21.173 41.4673 21.1664 41.4673V41.4673Z" fill="#71AD71"/>
<path d="M15.4913 41.4673C15.0817 42.0354 14.8439 42.7291 14.8373 43.4757H21.8204C21.8138 42.7291 21.576 42.0354 21.1664 41.4673L15.4913 41.4673Z" fill="#598E59"/>
<path d="M15.4913 41.4673C15.3328 41.6919 15.194 41.9363 15.0883 42.2006H21.5694C21.4637 41.9363 21.3316 41.6919 21.1664 41.4673L15.4913 41.4673Z" fill="#4F7F4F"/>
<path d="M18.9862 45.0745C19.1051 44.9093 19.1712 44.7045 19.1712 44.4601C19.1712 44.2486 19.1316 44.0835 19.0457 43.958C18.9598 43.8324 18.788 43.7201 18.5304 43.621V45.3718C18.7087 45.3387 18.8607 45.2396 18.9862 45.0745Z" fill="#71AD71"/>
<path d="M18.8937 41.639C18.9796 41.7579 19.0391 41.9297 19.0721 42.1609L19.5676 42.0751C19.5412 41.8372 19.4751 41.6324 19.376 41.4673H18.6823C18.7616 41.5069 18.8343 41.5663 18.8937 41.639Z" fill="#86BC88"/>
<path d="M17.2883 42.8414C17.3676 43.0198 17.4865 43.1651 17.6385 43.2642C17.8433 43.403 18.0481 43.4955 18.2397 43.5351V45.3585C18.0481 45.3387 17.8895 45.2264 17.7574 45.0216C17.6649 44.8762 17.5988 44.645 17.5592 44.3411L17.0835 44.4468C17.1033 44.7441 17.1628 45.0018 17.2751 45.2066C17.3874 45.4114 17.5129 45.5567 17.6583 45.6558C17.8036 45.7483 18.0018 45.8144 18.2397 45.8474V46.4222H18.5238V45.8408C18.8541 45.821 19.1316 45.6822 19.3364 45.418C19.5478 45.1537 19.6535 44.8234 19.6535 44.4204C19.6535 44.242 19.6271 44.0768 19.5742 43.9183C19.5213 43.7663 19.4487 43.6276 19.3628 43.5153C19.2703 43.403 19.1514 43.3039 18.9994 43.2246C18.9201 43.1783 18.7616 43.1255 18.5238 43.0528V41.4606H18.2397V42.9867C18.0217 42.9075 17.8697 42.8018 17.7772 42.6696C17.6847 42.5375 17.6385 42.3723 17.6385 42.1741C17.6385 41.9759 17.6913 41.8108 17.797 41.6654C17.8631 41.5795 17.9424 41.5069 18.0349 41.4606H17.3478C17.2222 41.672 17.1628 41.9297 17.1628 42.2204C17.1628 42.4582 17.209 42.663 17.2883 42.8414ZM18.5238 43.6144C18.7814 43.7135 18.9532 43.8258 19.0391 43.9513C19.125 44.0768 19.1646 44.242 19.1646 44.4534C19.1646 44.6979 19.1051 44.9027 18.9796 45.0678C18.8607 45.233 18.7021 45.3321 18.5171 45.3585V43.6144H18.5238Z" fill="#B9EFBD"/>
<path d="M18.2397 41.4673H18.0415C18.0415 41.4673 18.0415 41.4673 18.0349 41.4673H18.2397Z" fill="#91C691"/>
<path d="M18.2397 43.5351V45.3585C18.0481 45.3387 17.8895 45.2264 17.7574 45.0216C17.6649 44.8762 17.5988 44.645 17.5592 44.3411L17.0835 44.4468C17.1033 44.7441 17.1628 45.0018 17.2751 45.2066C17.3874 45.4114 17.5129 45.5567 17.6583 45.6558C17.8036 45.7483 18.0018 45.8144 18.2397 45.8474V46.4222H18.5238V45.8408C18.8541 45.821 19.1316 45.6822 19.3364 45.418C19.5478 45.1537 19.6535 44.8234 19.6535 44.4204C19.6535 44.242 19.6271 44.0768 19.5742 43.9183C19.5213 43.7663 19.4487 43.6276 19.3628 43.5153C19.3496 43.5021 19.3364 43.4888 19.3232 43.469H18.0349C18.1075 43.5021 18.1736 43.5219 18.2397 43.5351ZM18.5238 43.6144C18.7814 43.7135 18.9532 43.8258 19.0391 43.9513C19.125 44.0768 19.1646 44.242 19.1646 44.4534C19.1646 44.6979 19.1051 44.9027 18.9796 45.0678C18.8607 45.233 18.7021 45.3321 18.5171 45.3585V43.6144H18.5238Z" fill="#B9EFBD"/>
<path d="M18.9994 43.2312C18.9201 43.185 18.7616 43.1321 18.5238 43.0594V42.2006H18.2397L18.2397 42.9867C18.0217 42.9075 17.8697 42.8018 17.7772 42.6696C17.6913 42.5441 17.6451 42.3856 17.6451 42.194H17.1694C17.1694 42.2006 17.1694 42.2138 17.1694 42.2204C17.1694 42.4516 17.209 42.6564 17.2949 42.8348C17.3742 43.0132 17.4931 43.1585 17.6451 43.2576C17.7838 43.3501 17.9159 43.4162 18.0415 43.4691L19.3232 43.469C19.2373 43.3831 19.1316 43.2973 18.9994 43.2312Z" fill="#A0D8A3"/>
<path d="M18.0349 41.4673C18.0415 41.4673 18.0415 41.4673 18.0349 41.4673V41.4673Z" fill="#B9EFBD"/>
<path d="M18.5237 41.4673H18.2397L18.2397 42.2006H18.5238L18.5237 41.4673Z" fill="#86BC88"/>
<path d="M17.8036 41.6655C17.8697 41.5796 17.9424 41.5135 18.0349 41.4673L17.3478 41.4673C17.2289 41.6721 17.1694 41.9165 17.1628 42.2006H17.6385C17.6385 42.194 17.6385 42.1874 17.6385 42.1808C17.6451 41.9826 17.6979 41.8108 17.8036 41.6655Z" fill="#86BC88"/>
</svg>
