<svg width="67" height="66" viewBox="0 0 67 66" fill="none" xmlns="http://www.w3.org/2000/svg">
<circle cx="33" cy="33" r="26" fill="#F0F0F0"/>
<path d="M46.5559 66H20.1084C17.2981 66 15 63.7006 15 60.8916V5.1084C15 2.29812 17.2994 0 20.1084 0H46.5559C49.3662 0 51.6643 2.29944 51.6643 5.1084V60.8916C51.6643 63.7006 49.3662 66 46.5559 66Z" fill="#858585"/>
<path d="M49.2434 5.20872H17.4182V57.2564H49.2434V5.20872Z" fill="white"/>
<path d="M38.1053 3.14821H31.5911C31.298 3.14821 31.0591 2.90929 31.0591 2.61625C31.0591 2.32321 31.298 2.08429 31.5911 2.08429H38.1053C38.3983 2.08429 38.6372 2.32321 38.6372 2.61625C38.6372 2.90929 38.3983 3.14821 38.1053 3.14821Z" fill="#CCCCCC"/>
<path d="M28.559 3.14821C28.8528 3.14821 29.091 2.91004 29.091 2.61625C29.091 2.32245 28.8528 2.08429 28.559 2.08429C28.2653 2.08429 28.0271 2.32245 28.0271 2.61625C28.0271 2.91004 28.2653 3.14821 28.559 3.14821Z" fill="#CCCCCC"/>
<path d="M33.3322 64.2127C31.9052 64.2127 30.7436 63.0511 30.7436 61.6228C30.7436 60.1959 31.9052 59.0343 33.3322 59.0343C34.7591 59.0343 35.9207 60.1959 35.9207 61.6228C35.9207 63.0511 34.7591 64.2127 33.3322 64.2127ZM33.3322 59.6943C32.2682 59.6943 31.4036 60.5589 31.4036 61.6228C31.4036 62.6867 32.2682 63.5527 33.3322 63.5527C34.3961 63.5527 35.2607 62.6867 35.2607 61.6228C35.2607 60.5589 34.3961 59.6943 33.3322 59.6943Z" fill="#CCCCCC"/>
<path d="M46.3988 17.3963H20.2642V18.1553H46.3988V17.3963Z" fill="#858585"/>
<path d="M46.3988 19.3512H20.2642V20.1102H46.3988V19.3512Z" fill="#858585"/>
<path d="M46.3988 21.3154H20.2642V22.0744H46.3988V21.3154Z" fill="#858585"/>
<path d="M46.3988 23.2716H20.2642V24.0306H46.3988V23.2716Z" fill="#858585"/>
<path d="M46.3988 25.2358H20.2642V25.9948H46.3988V25.2358Z" fill="#858585"/>
<path d="M39.5203 29.6868H27.1453V30.4458H39.5203V29.6868Z" fill="#858585"/>
<path d="M32.8235 32.2378C32.143 32.9183 31.4559 33.6054 30.7754 34.2859C30.3394 34.7153 30.6631 35.4949 31.2709 35.4949C31.6145 35.4949 31.9514 35.4949 32.2949 35.4949C32.2751 35.5807 32.2619 35.6732 32.2619 35.7723C32.2619 36.4264 32.2619 37.0804 32.2619 37.7345C32.2619 39.1087 34.3892 39.1219 34.3892 37.7477C34.3892 37.0937 34.3892 36.4396 34.3892 35.7856C34.3892 35.6798 34.376 35.5874 34.3496 35.4949C34.6667 35.4949 34.9772 35.4949 35.2943 35.4949C35.3406 35.5015 35.3802 35.4949 35.4265 35.4949C35.7304 35.475 35.9286 35.2901 36.0144 35.0654C36.1268 34.8408 36.1202 34.5699 35.9153 34.3321C35.8889 34.2925 35.8559 34.2594 35.8162 34.2264C35.1556 33.5657 34.4883 32.8985 33.8277 32.2378C33.5568 31.9603 33.1009 31.9669 32.8235 32.2378Z" fill="#67AEBA"/>
<path d="M45.4024 40.2252H21.2619C21.1231 40.2252 21.0108 40.3375 21.0108 40.4763V44.7045C21.0108 44.8433 21.1231 44.9556 21.2619 44.9556H45.4024C45.5412 44.9556 45.6535 44.8433 45.6535 44.7045V40.4763C45.6535 40.3375 45.5412 40.2252 45.4024 40.2252Z" fill="#67AEBA"/>
<path d="M44.1274 41.4673H22.5436V43.7135H44.1274V41.4673Z" fill="#4B868C"/>
<path d="M43.5658 41.4673H23.0985V47.9285H43.5658V41.4673Z" fill="#B9EFBD"/>
<path d="M23.0985 41.4673L23.0985 43.4757H43.5724V41.4673H23.0985Z" fill="#A5DBA7"/>
<path d="M23.0985 41.4673L23.0985 42.2006H43.5724V41.4673H23.0985Z" fill="#91C691"/>
<path d="M43.2156 41.4673H43.0439V47.3141H23.6204V41.4673H23.4487V47.5255H43.2156V41.4673Z" fill="#71AD71"/>
<path d="M23.627 41.4673H23.4487V43.4757H23.627V41.4673Z" fill="#598E59"/>
<path d="M43.2223 41.4673L43.0439 41.4673L43.0439 43.4757H43.2223V41.4673Z" fill="#598E59"/>
<path d="M23.627 42.2005H23.4487L23.4487 43.4757H23.627V42.2005Z" fill="#598E59"/>
<path d="M23.627 41.4673H23.4487L23.4487 42.2005H23.627V41.4673Z" fill="#4F7F4F"/>
<path d="M43.2223 42.2006H43.0439L43.0439 43.4757H43.2223L43.2223 42.2006Z" fill="#598E59"/>
<path d="M43.2223 41.4673L43.0439 41.4673L43.0439 42.2006H43.2223L43.2223 41.4673Z" fill="#4F7F4F"/>
<path d="M33.3322 46.997C35.2613 46.997 36.8271 45.4312 36.8271 43.5021C36.8271 42.7423 36.5826 42.042 36.173 41.4673H30.4913C30.0817 42.042 29.8373 42.7423 29.8373 43.5021C29.8373 45.4312 31.403 46.997 33.3322 46.997Z" fill="#71AD71"/>
<path d="M36.1664 41.4673C36.173 41.4673 36.173 41.4673 36.1664 41.4673V41.4673Z" fill="#71AD71"/>
<path d="M30.4913 41.4673C30.0817 42.0354 29.8439 42.7291 29.8373 43.4757H36.8204C36.8138 42.7291 36.576 42.0354 36.1664 41.4673L30.4913 41.4673Z" fill="#598E59"/>
<path d="M30.4913 41.4673C30.3328 41.6919 30.194 41.9363 30.0883 42.2006H36.5694C36.4637 41.9363 36.3316 41.6919 36.1664 41.4673L30.4913 41.4673Z" fill="#4F7F4F"/>
<path d="M33.9862 45.0745C34.1051 44.9093 34.1712 44.7045 34.1712 44.4601C34.1712 44.2486 34.1316 44.0835 34.0457 43.958C33.9598 43.8324 33.788 43.7201 33.5304 43.621V45.3718C33.7087 45.3387 33.8607 45.2396 33.9862 45.0745Z" fill="#71AD71"/>
<path d="M33.8937 41.639C33.9796 41.7579 34.0391 41.9297 34.0721 42.1609L34.5676 42.0751C34.5412 41.8372 34.4751 41.6324 34.376 41.4673H33.6823C33.7616 41.5069 33.8343 41.5663 33.8937 41.639Z" fill="#86BC88"/>
<path d="M32.2883 42.8414C32.3676 43.0198 32.4865 43.1651 32.6385 43.2642C32.8433 43.403 33.0481 43.4955 33.2397 43.5351V45.3585C33.0481 45.3387 32.8895 45.2264 32.7574 45.0216C32.6649 44.8762 32.5988 44.645 32.5592 44.3411L32.0835 44.4468C32.1033 44.7441 32.1628 45.0018 32.2751 45.2066C32.3874 45.4114 32.5129 45.5567 32.6583 45.6558C32.8036 45.7483 33.0018 45.8144 33.2397 45.8474V46.4222H33.5238V45.8408C33.8541 45.821 34.1316 45.6822 34.3364 45.418C34.5478 45.1537 34.6535 44.8234 34.6535 44.4204C34.6535 44.242 34.6271 44.0768 34.5742 43.9183C34.5213 43.7663 34.4487 43.6276 34.3628 43.5153C34.2703 43.403 34.1514 43.3039 33.9994 43.2246C33.9201 43.1783 33.7616 43.1255 33.5238 43.0528V41.4606H33.2397V42.9867C33.0217 42.9075 32.8697 42.8018 32.7772 42.6696C32.6847 42.5375 32.6385 42.3723 32.6385 42.1741C32.6385 41.9759 32.6913 41.8108 32.797 41.6654C32.8631 41.5795 32.9424 41.5069 33.0349 41.4606H32.3478C32.2222 41.672 32.1628 41.9297 32.1628 42.2204C32.1628 42.4582 32.209 42.663 32.2883 42.8414ZM33.5238 43.6144C33.7814 43.7135 33.9532 43.8258 34.0391 43.9513C34.125 44.0768 34.1646 44.242 34.1646 44.4534C34.1646 44.6979 34.1051 44.9027 33.9796 45.0678C33.8607 45.233 33.7021 45.3321 33.5171 45.3585V43.6144H33.5238Z" fill="#B9EFBD"/>
<path d="M33.2397 41.4673H33.0415C33.0415 41.4673 33.0415 41.4673 33.0349 41.4673H33.2397Z" fill="#91C691"/>
<path d="M33.2397 43.5351V45.3585C33.0481 45.3387 32.8895 45.2264 32.7574 45.0216C32.6649 44.8762 32.5988 44.645 32.5592 44.3411L32.0835 44.4468C32.1033 44.7441 32.1628 45.0018 32.2751 45.2066C32.3874 45.4114 32.5129 45.5567 32.6583 45.6558C32.8036 45.7483 33.0018 45.8144 33.2397 45.8474V46.4222H33.5238V45.8408C33.8541 45.821 34.1316 45.6822 34.3364 45.418C34.5478 45.1537 34.6535 44.8234 34.6535 44.4204C34.6535 44.242 34.6271 44.0768 34.5742 43.9183C34.5213 43.7663 34.4487 43.6276 34.3628 43.5153C34.3496 43.5021 34.3364 43.4888 34.3232 43.469H33.0349C33.1075 43.5021 33.1736 43.5219 33.2397 43.5351ZM33.5238 43.6144C33.7814 43.7135 33.9532 43.8258 34.0391 43.9513C34.125 44.0768 34.1646 44.242 34.1646 44.4534C34.1646 44.6979 34.1051 44.9027 33.9796 45.0678C33.8607 45.233 33.7021 45.3321 33.5171 45.3585V43.6144H33.5238Z" fill="#B9EFBD"/>
<path d="M33.9994 43.2312C33.9201 43.185 33.7616 43.1321 33.5238 43.0594V42.2006H33.2397L33.2397 42.9867C33.0217 42.9075 32.8697 42.8018 32.7772 42.6696C32.6913 42.5441 32.6451 42.3856 32.6451 42.194H32.1694C32.1694 42.2006 32.1694 42.2138 32.1694 42.2204C32.1694 42.4516 32.209 42.6564 32.2949 42.8348C32.3742 43.0132 32.4931 43.1585 32.6451 43.2576C32.7838 43.3501 32.9159 43.4162 33.0415 43.4691L34.3232 43.469C34.2373 43.3831 34.1316 43.2973 33.9994 43.2312Z" fill="#A0D8A3"/>
<path d="M33.0349 41.4673C33.0415 41.4673 33.0415 41.4673 33.0349 41.4673V41.4673Z" fill="#B9EFBD"/>
<path d="M33.5237 41.4673H33.2397L33.2397 42.2006H33.5238L33.5237 41.4673Z" fill="#86BC88"/>
<path d="M32.8036 41.6655C32.8697 41.5796 32.9424 41.5135 33.0349 41.4673L32.3478 41.4673C32.2289 41.6721 32.1694 41.9165 32.1628 42.2006H32.6385C32.6385 42.194 32.6385 42.1874 32.6385 42.1808C32.6451 41.9826 32.6979 41.8108 32.8036 41.6655Z" fill="#86BC88"/>
</svg>