<svg width="32" height="33" viewBox="0 0 32 33" fill="none" xmlns="http://www.w3.org/2000/svg">
<g clip-path="url(#clip0_4417_27646)">
<path d="M31.5625 28.1688L25.3312 21.9375C25.05 21.6563 24.6687 21.5 24.2687 21.5H23.25C24.975 19.2938 26 16.5188 26 13.5C26 6.31875 20.1812 0.5 13 0.5C5.81875 0.5 0 6.31875 0 13.5C0 20.6813 5.81875 26.5 13 26.5C16.0187 26.5 18.7938 25.475 21 23.75V24.7688C21 25.1688 21.1562 25.55 21.4375 25.8313L27.6688 32.0625C28.2563 32.65 29.2063 32.65 29.7875 32.0625L31.5562 30.2938C32.1437 29.7063 32.1437 28.7563 31.5625 28.1688ZM13 21.5C8.58125 21.5 5 17.925 5 13.5C5 9.08125 8.575 5.5 13 5.5C17.4187 5.5 21 9.075 21 13.5C21 17.9188 17.425 21.5 13 21.5Z" fill="black" fill-opacity="0.6"/>
</g>
<defs>
<clipPath id="clip0_4417_27646">
<rect width="32" height="32" fill="white" transform="translate(0 0.5)"/>
</clipPath>
</defs>
</svg>
