<svg width="33" height="33" viewBox="0 0 33 33" fill="none" xmlns="http://www.w3.org/2000/svg">
<path fill-rule="evenodd" clip-rule="evenodd" d="M17.8751 32.6647H17.8736C17.5472 32.6647 17.2124 32.5892 16.8844 32.5971L16.7549 27.2341C16.9739 27.2288 17.1964 27.2492 17.4144 27.2492H17.4153C18.5355 27.2492 19.6148 26.7753 20.6367 26.3438L22.7453 31.3985C21.1984 32.0516 19.5641 32.6647 17.8751 32.6647Z" fill="white" fill-opacity="0.36"/>
<path fill-rule="evenodd" clip-rule="evenodd" d="M16.2108 32.4776C14.1824 32.4418 12.2062 32.027 10.3369 31.2446L12.4281 26.249C13.6618 26.7654 14.9665 27.0392 16.3061 27.0627L16.2108 32.4776Z" fill="white" fill-opacity="0.44"/>
<path fill-rule="evenodd" clip-rule="evenodd" d="M23.3521 30.9464L21.0371 26.0506C22.2445 25.4798 23.3224 24.6926 24.2408 23.7109L28.1952 27.411C26.8085 28.8931 25.1791 30.0826 23.3521 30.9464Z" fill="white" fill-opacity="0.28"/>
<path fill-rule="evenodd" clip-rule="evenodd" d="M9.72378 30.9731C7.89314 30.1147 6.25939 28.9332 4.86816 27.461L8.80406 23.7412C9.72687 24.7175 10.8097 25.501 12.0227 26.0697L9.72378 30.9731Z" fill="white" fill-opacity="0.52"/>
<path fill-rule="evenodd" clip-rule="evenodd" d="M28.6428 26.913L24.5381 23.3805C25.4148 22.3617 26.0819 21.2045 26.5208 19.9414L31.6364 21.7185C30.973 23.6279 29.9659 25.3756 28.6428 26.913Z" fill="white" fill-opacity="0.2"/>
<path fill-rule="evenodd" clip-rule="evenodd" d="M4.41841 26.965C3.08659 25.4326 2.07181 23.6877 1.40234 21.7782L6.51285 19.9863C6.95465 21.2466 7.6253 22.3993 8.50581 23.4126L4.41841 26.965Z" fill="white" fill-opacity="0.6"/>
<path fill-rule="evenodd" clip-rule="evenodd" d="M31.8335 21.0805L26.6426 19.521C27.0264 18.245 27.1582 16.9174 27.0439 15.5749L27.041 15.5411L32.4336 15.042L32.4399 15.1155C32.6123 17.1413 32.4148 19.1477 31.8335 21.0805Z" fill="white" fill-opacity="0.12"/>
<path fill-rule="evenodd" clip-rule="evenodd" d="M1.19383 21.1403C0.868008 20.0684 0.65412 18.9544 0.558345 17.8289C0.483366 16.9486 0.480633 16.059 0.550265 15.1846L5.94881 15.6146C5.9027 16.1938 5.90448 16.7842 5.95439 17.3697C6.01796 18.1172 6.15948 18.8557 6.37516 19.565L1.19383 21.1403Z" fill="white" fill-opacity="0.68"/>
<path fill-rule="evenodd" clip-rule="evenodd" d="M27.0115 15.0867C26.8373 13.7549 26.4198 12.4884 25.7705 11.3225L30.5018 8.6875C31.4856 10.4541 32.118 12.3708 32.3813 14.3844L27.0115 15.0867Z" fill="white" fill-opacity="0.04"/>
<path fill-rule="evenodd" clip-rule="evenodd" d="M5.99268 15.1743L0.617188 14.518C0.862446 12.508 1.48046 10.5858 2.45401 8.80469L7.20602 11.402C6.56292 12.5787 6.15464 13.8479 5.99268 15.1743Z" fill="white" fill-opacity="0.76"/>
<path fill-rule="evenodd" clip-rule="evenodd" d="M7.42744 11.016L2.78809 8.22289C3.83222 6.48814 5.17603 4.98498 6.78174 3.75488L10.0749 8.05416C9.01081 8.86943 8.12008 9.86591 7.42744 11.016Z" fill="white" fill-opacity="0.84"/>
<path fill-rule="evenodd" clip-rule="evenodd" d="M10.4323 7.79156L7.32129 3.35872C8.9813 2.19374 10.8229 1.36552 12.7946 0.897461L14.0453 6.16672C12.7441 6.47555 11.5284 7.02215 10.4323 7.79156Z" fill="white" fill-opacity="0.92"/>
<path fill-rule="evenodd" clip-rule="evenodd" d="M18.451 6.05464C17.5206 5.88163 16.5646 5.83529 15.6101 5.91657C15.2228 5.93831 14.8498 6.00141 14.4787 6.0733L13.4619 0.738688C15.0471 0.219653 17.8902 0.219653 19.4345 0.638874L18.451 6.05464Z" fill="white"/>
</svg>
