<svg width="30" height="29" viewBox="0 0 30 29" fill="none" xmlns="http://www.w3.org/2000/svg">
<path fill-rule="evenodd" clip-rule="evenodd" d="M7.10047 14.1201H0.875L5.43897 18.6841L3.31811 25.691L10.431 23.6763L14.9947 28.2401H14.995V22.0148V14.1201H7.10047Z" fill="#F05138"/>
<path fill-rule="evenodd" clip-rule="evenodd" d="M14.976 6.23311C17.3153 6.23311 19.4164 7.2499 20.8638 8.8645C22.1179 10.2636 22.8812 12.1111 22.8812 14.1377C22.8812 18.1662 19.8663 21.4886 15.9699 21.9777V28.24C23.3147 27.7299 29.115 21.6114 29.115 14.1377C29.115 10.5132 27.7503 7.20775 25.5077 4.70578C22.9188 1.81763 19.1599 0 14.976 0C7.5165 0 1.40697 5.77584 0.875 13.0988H7.14083C7.64994 9.2244 10.9625 6.23311 14.976 6.23311Z" fill="#20C9A7"/>
</svg>
