<svg width="146" height="146" viewBox="0 0 146 146" fill="none" xmlns="http://www.w3.org/2000/svg">
<rect width="146" height="146" rx="10" fill="#D2D2D2"/>
<path d="M116.062 33.5H29.9375C24.3477 33.5 20 38.0547 20 43.4375V103.062C20 108.652 24.3477 113 29.9375 113H116.062C121.445 113 126 108.652 126 103.062V43.4375C126 38.0547 121.445 33.5 116.062 33.5ZM114.82 103.062H31.1797C30.3516 103.062 29.9375 102.648 29.9375 101.82V44.6797C29.9375 44.0586 30.3516 43.4375 31.1797 43.4375H114.82C115.441 43.4375 116.062 44.0586 116.062 44.6797V101.82C116.062 102.648 115.441 103.062 114.82 103.062ZM46.5 51.7188C41.7383 51.7188 38.2188 55.4453 38.2188 60C38.2188 64.7617 41.7383 68.2812 46.5 68.2812C51.0547 68.2812 54.7812 64.7617 54.7812 60C54.7812 55.4453 51.0547 51.7188 46.5 51.7188ZM39.875 93.125H106.125V76.5625L87.9062 58.5508C86.8711 57.5156 85.4219 57.5156 84.3867 58.5508L59.75 83.1875L51.4688 75.1133C50.4336 74.0781 48.9844 74.0781 47.9492 75.1133L39.875 83.1875V93.125Z" fill="white"/>
</svg>