<svg  viewBox="0 0 512 512" width="512" height="512" id="159-burundi" y="6144" xmlns="http://www.w3.org/2000/svg"><circle cx="256" cy="256" fill="#f0f0f0" r="256"/><g fill="#d80027"><path d="M411.876 52.902c-91.652-70.526-220.1-70.526-311.752-.001L256 208.777zM255.998 303.224L100.124 459.098c91.652 70.526 220.1 70.526 311.752 0L256 303.222z"/></g><g fill="#6da544"><path d="M208.777 256L52.902 100.124c-70.526 91.652-70.526 220.1 0 311.752zM303.224 256l155.874 155.876c70.526-91.652 70.526-220.1 0-311.752z"/></g><circle cx="256" cy="256" fill="#f0f0f0" r="111.304"/><g fill="#d80027"><path d="M256 178.087l9.639 16.696h19.279l-9.64 16.695 9.64 16.696h-19.279L256 244.87l-9.639-16.696h-19.278l9.639-16.696-9.639-16.695h19.278zM207.005 256l9.639 16.696h19.278l-9.639 16.695 9.639 16.696h-19.278l-9.639 16.696-9.64-16.696h-19.278l9.639-16.696-9.639-16.695h19.278zM304.996 256l9.639 16.696h19.278l-9.639 16.695 9.639 16.696h-19.278l-9.639 16.696-9.64-16.696h-19.278l9.639-16.696-9.639-16.695h19.278z"/></g></svg>