<svg width="16" height="16" viewBox="0 0 16 16" fill="none" xmlns="http://www.w3.org/2000/svg">
    <path fill-rule="evenodd" clip-rule="evenodd"
          d="M15.68 8.18172C15.68 7.61444 15.6291 7.06899 15.5346 6.54535H8.00002V9.6399H12.3055C12.12 10.6399 11.5564 11.4872 10.7091 12.0545V14.0617H13.2946C14.8073 12.669 15.68 10.6181 15.68 8.18172Z"
          fill="#4285F4"/>
    <path fill-rule="evenodd" clip-rule="evenodd"
          d="M8.00002 16C10.16 16 11.9709 15.2836 13.2946 14.0618L10.7091 12.0545C9.99275 12.5345 9.07639 12.8181 8.00002 12.8181C5.91638 12.8181 4.15274 11.4109 3.52365 9.51996H0.850914V11.5927C2.16728 14.2072 4.87274 16 8.00002 16Z"
          fill="#34A853"/>
    <path fill-rule="evenodd" clip-rule="evenodd"
          d="M3.52364 9.52009C3.36364 9.04009 3.27273 8.52736 3.27273 8.00008C3.27273 7.47281 3.36364 6.96008 3.52364 6.48008V4.40735H0.850911C0.309092 5.48735 0 6.70917 0 8.00008C0 9.291 0.309092 10.5128 0.850911 11.5928L3.52364 9.52009Z"
          fill="#FBBC05"/>
    <path fill-rule="evenodd" clip-rule="evenodd"
          d="M8.00002 3.18183C9.17457 3.18183 10.2291 3.58546 11.0582 4.37819L13.3528 2.08364C11.9673 0.792729 10.1564 0 8.00002 0C4.87274 0 2.16728 1.79273 0.850914 4.40728L3.52365 6.48001C4.15274 4.5891 5.91638 3.18183 8.00002 3.18183Z"
          fill="#EA4335"/>
</svg>
