<svg width="75" height="100" viewBox="0 0 75 100" fill="none" xmlns="http://www.w3.org/2000/svg">
<path fill-rule="evenodd" clip-rule="evenodd" d="M33.2896 82.5656C33.3259 84.2592 34.0427 85.6249 35.521 86.4908C38.6204 88.3065 42.3464 86.1761 42.4113 82.5427C42.4607 79.7883 42.4475 77.0313 42.4058 74.2762C42.3948 73.5451 42.6035 73.0748 43.1804 72.5943C45.9242 70.3087 46.6556 66.3012 45.0012 62.9996C43.4342 59.8715 39.6844 58.0672 36.2612 58.842C33.1212 59.5524 30.9836 61.4128 30.1397 64.5366C29.2687 67.7598 30.2027 70.5142 32.6717 72.7324C33.13 73.1433 33.308 73.5272 33.2922 74.117C33.2563 75.4791 33.2809 76.8423 33.2831 78.2051C33.2831 79.6582 33.2585 81.1125 33.2896 82.5656ZM54.987 46.7929C55.0091 46.5617 55.0432 46.372 55.0432 46.1819C55.0453 41.6727 55.0677 37.1631 55.0386 32.6539C55 26.6739 53.0535 21.6421 49.1525 17.5981C42.6859 10.8953 32.8406 10.5976 26.0836 16.936C22.3092 20.4765 19.9713 25.024 19.6637 30.5652C19.374 35.7843 19.5571 41.0377 19.535 46.2755C19.5347 46.433 19.569 46.5908 19.5922 46.7929H54.987ZM7.66225 32.8402C7.69148 30.884 7.76698 28.9038 8.07839 26.9814C9.61562 17.5004 14.2697 10.1492 22.0088 5.15551C29.4106 0.379389 37.4367 -0.798052 45.698 1.97683C57.4329 5.91883 64.3125 14.5953 66.5539 27.3845C66.858 29.1198 66.8667 30.9256 66.8894 32.7008C66.937 36.4736 66.904 40.2474 66.904 44.0205V45.209C67.9628 45.209 68.9391 45.2061 69.9154 45.2094C72.6621 45.2179 74.3577 46.902 74.539 49.8022C74.5515 50.0161 74.5466 50.2315 74.5466 50.4461C74.547 64.8954 74.5435 79.3447 74.5515 93.7941C74.5525 95.5324 74.2335 97.1332 72.7568 98.1225C72.1245 98.5459 71.3375 98.7251 70.6047 98.957C70.3104 99.0499 69.9718 98.9943 69.6538 98.9946C48.0592 98.9957 26.4642 98.9758 4.86999 99.0208C2.23359 99.0263 0.628522 97.524 0.221077 95.747C0.079463 95.1301 0.0102238 94.4785 0.009528 93.8427C-0.00160627 79.3628 -0.00160624 64.8829 0.00256989 50.4029C0.0032657 46.9794 1.69498 45.2098 4.93505 45.209C5.79831 45.2086 6.66155 45.209 7.64381 45.209C7.64381 40.9963 7.60102 36.9175 7.66225 32.8402Z" fill="url(#paint0_linear_517_5173)"/>
<defs>
<linearGradient id="paint0_linear_517_5173" x1="37.2757" y1="0.5" x2="37.2757" y2="99.0209" gradientUnits="userSpaceOnUse">
<stop stop-color="#7CEDD6"/>
<stop offset="1" stop-color="#43E6D3"/>
</linearGradient>
</defs>
</svg>
