<svg width="38" height="22" viewBox="0 0 38 22" fill="none" xmlns="http://www.w3.org/2000/svg">
<path fill-rule="evenodd" clip-rule="evenodd" d="M35.5 0C36.6046 0 37.5 0.89543 37.5 2V20C37.5 21.1046 36.6046 22 35.5 22H2.5C1.39543 22 0.5 21.1046 0.5 20V2C0.5 0.89543 1.39543 0 2.5 0H35.5ZM11 11H10C6.96243 11 4.5 13.4624 4.5 16.5V18H16.5V16.5C16.5 13.4624 14.0376 11 11 11ZM33.125 15.5H20.875L20.773 15.5067C20.3378 15.5645 20 15.9872 20 16.5C20 17.0523 20.3918 17.5 20.875 17.5H33.125L33.227 17.4933C33.6622 17.4355 34 17.0128 34 16.5C34 15.9477 33.6082 15.5 33.125 15.5ZM33.125 10.5H20.875L20.773 10.5067C20.3378 10.5645 20 10.9872 20 11.5C20 12.0523 20.3918 12.5 20.875 12.5H33.125L33.227 12.4933C33.6622 12.4355 34 12.0128 34 11.5C34 10.9477 33.6082 10.5 33.125 10.5ZM10.5 4C8.84315 4 7.5 5.34315 7.5 7C7.5 8.65685 8.84315 10 10.5 10C12.1569 10 13.5 8.65685 13.5 7C13.5 5.34315 12.1569 4 10.5 4ZM33.125 5.5H20.875L20.773 5.50673C20.3378 5.56449 20 5.98716 20 6.5C20 7.05228 20.3918 7.5 20.875 7.5H33.125L33.227 7.49327C33.6622 7.43551 34 7.01284 34 6.5C34 5.94772 33.6082 5.5 33.125 5.5Z" fill="url(#paint0_linear_517_5754)"/>
<defs>
<linearGradient id="paint0_linear_517_5754" x1="19" y1="0" x2="19" y2="22" gradientUnits="userSpaceOnUse">
<stop stop-color="#7CEDD6"/>
<stop offset="1" stop-color="#43E6D3"/>
</linearGradient>
</defs>
</svg>
